<svg width="227" height="173" viewBox="0 0 227 173" fill="none" xmlns="http://www.w3.org/2000/svg">
<g clip-path="url(#clip0)">
<path d="M220.133 89.5828H162.07C161.794 89.5828 161.567 89.3532 161.567 89.0745V0.565714C161.567 0.286947 161.794 0.057373 162.07 0.057373H220.133C220.409 0.057373 220.636 0.286947 220.636 0.565714V89.0745C220.644 89.3532 220.417 89.5828 220.133 89.5828ZM162.581 88.5661H219.631V1.08225H162.581V88.5661Z" fill="#C2AC96"/>
<path d="M219.744 13.0365H162.07C161.794 13.0365 161.567 12.8069 161.567 12.5281C161.567 12.2493 161.794 12.0198 162.07 12.0198H219.744C220.02 12.0198 220.247 12.2493 220.247 12.5281C220.247 12.8069 220.028 13.0365 219.744 13.0365Z" fill="#C2AC96"/>
<path d="M190.307 89.3531C190.031 89.3531 189.804 89.1236 189.804 88.8448V12.5198C189.804 12.241 190.031 12.0115 190.307 12.0115C190.583 12.0115 190.81 12.241 190.81 12.5198V88.8366C190.81 89.1236 190.583 89.3531 190.307 89.3531Z" fill="#C2AC96"/>
<path d="M192.593 112.827C192.318 112.827 192.091 112.598 192.091 112.319V105.087C192.091 104.808 192.318 104.579 192.593 104.579C192.869 104.579 193.096 104.808 193.096 105.087V112.319C193.096 112.598 192.869 112.827 192.593 112.827Z" fill="#C2AC96"/>
<path d="M211.11 121.272C210.834 121.272 210.607 121.043 210.607 120.764V113.532C210.607 113.253 210.834 113.024 211.11 113.024C211.386 113.024 211.613 113.253 211.613 113.532V120.764C211.613 121.043 211.386 121.272 211.11 121.272Z" fill="#C2AC96"/>
<path d="M222.168 113.434H186.099C185.824 113.434 185.597 113.204 185.597 112.926C185.597 112.647 185.824 112.417 186.099 112.417H222.168C222.444 112.417 222.671 112.647 222.671 112.926C222.671 113.204 222.444 113.434 222.168 113.434Z" fill="#C2AC96"/>
<path d="M221.69 121.272H195.877C195.601 121.272 195.374 121.042 195.374 120.764C195.374 120.485 195.601 120.255 195.877 120.255H221.69C221.965 120.255 222.192 120.485 222.192 120.764C222.192 121.042 221.965 121.272 221.69 121.272Z" fill="#C2AC96"/>
<path d="M60.2442 157.356C60.2442 159.734 86.3492 161.661 118.551 161.661C150.752 161.661 176.857 159.734 176.857 157.356C176.857 154.979 150.752 153.052 118.551 153.052C86.3411 153.052 60.2442 154.979 60.2442 157.356Z" fill="#C2AC96"/>
<path d="M74.3344 145.5C75.3722 146.55 76.5072 147.558 77.7313 148.509C83.8603 153.265 92.3323 156.684 103.585 157.823C161.146 163.645 180.157 136.342 184.81 94.33C186.878 75.6034 182.03 63.2556 176.022 55.3107C175.39 54.4826 174.75 53.6955 174.109 52.9658C173.744 52.5476 173.371 52.1459 172.982 51.7523C165.216 43.7336 154.011 39.9621 143.002 41.7905C134.344 43.2335 126.488 47.907 120.107 57.2539C109.909 72.1926 119.556 85.0405 90.3947 85.9014C68.0838 86.5409 53.9369 124.921 74.3344 145.5Z" fill="#FABD20"/>
<path d="M133.857 66.6336C138.057 57.0243 151.263 56.2126 156.565 65.2398C159.978 71.0529 162.11 79.6783 158.576 91.8211C150.72 118.853 135.803 117.779 132.892 118.115C119.532 119.657 94.8293 119.116 90.5406 107.571C87.0708 98.2164 100.342 92.5754 116.775 91.2718C127.104 90.4437 129.374 76.8988 133.857 66.6336Z" fill="#E5A501"/>
<path d="M157.003 128.143C157.133 128.143 157.262 128.094 157.36 127.987C157.546 127.79 157.538 127.479 157.343 127.29C151.466 121.641 145.856 118.312 142.183 116.517C138.186 114.565 135.616 113.958 135.511 113.934C135.243 113.876 134.984 114.04 134.927 114.303C134.87 114.573 135.033 114.836 135.292 114.893C135.414 114.918 145.637 117.394 156.671 128.003C156.76 128.102 156.881 128.143 157.003 128.143Z" fill="#A36A24"/>
<path d="M155.057 121.526C155.211 121.526 155.365 121.453 155.463 121.305C155.617 121.075 155.552 120.772 155.333 120.616C155.106 120.46 149.634 116.795 141.17 115.861C140.902 115.828 140.659 116.025 140.627 116.295C140.594 116.566 140.789 116.812 141.056 116.845C149.285 117.755 154.725 121.403 154.782 121.436C154.871 121.502 154.968 121.526 155.057 121.526Z" fill="#A36A24"/>
<path d="M159.395 80.7196C159.638 80.7196 159.849 80.5392 159.881 80.285C160.594 74.5539 163.027 70.1838 164.948 67.5191C167.031 64.6249 168.977 63.067 169.002 63.0506C169.212 62.8785 169.253 62.5669 169.083 62.3537C168.912 62.1405 168.612 62.0995 168.394 62.2717C168.312 62.3373 166.342 63.9115 164.178 66.9124C162.183 69.6755 159.654 74.2177 158.908 80.1703C158.876 80.4408 159.062 80.6868 159.33 80.7196C159.354 80.7196 159.37 80.7196 159.395 80.7196Z" fill="#E5A501"/>
<path d="M74.3344 145.5C75.3722 146.55 76.5072 147.558 77.7313 148.509C84.817 152.814 93.4592 155.643 102.977 156.749C105.928 157.094 108.911 157.266 111.895 157.266C120.115 157.266 128.352 155.971 136.119 153.429C156.322 146.812 170.899 132.652 177.165 113.557C180.603 103.087 182.289 92.9117 182.176 83.3024C182.086 75.6035 180.862 68.2571 178.519 61.4601C177.741 59.189 176.89 57.1474 176.03 55.3108C175.398 54.4827 174.758 53.6956 174.117 52.9659C173.752 52.5477 173.379 52.146 172.99 51.7524C174.523 54.4089 176.168 57.7869 177.571 61.8619C181.178 72.3731 183.878 89.8206 176.193 113.229C170.031 131.997 155.69 145.919 135.811 152.429C114.692 159.349 90.2569 156.545 75.0154 145.451C74.7965 145.295 74.5128 145.32 74.3344 145.5Z" fill="#E5A501"/>
<path d="M117.845 45.8409C126.009 45.7671 134.044 50.2028 141.745 44.8242C141.445 43.0532 140.448 26.5567 140.594 24.0396C140.87 19.0628 139.978 5.19819 129.836 4.77184C119.694 4.35369 112.722 11.8394 115.867 20.719C117.237 24.5971 118.162 40.8723 117.845 45.8409Z" fill="#131E07"/>
<path d="M85.0602 85.0571C83.6901 82.4006 84.7034 79.1209 87.3383 77.7353C87.3707 77.7189 90.5568 76.0381 94.0105 73.9146C100.002 70.2332 101.315 68.6426 101.453 68.4622C104.615 63.223 109.025 49.0468 110.468 44.0208C111.287 41.1429 114.27 39.4785 117.116 40.3148C119.961 41.1429 121.607 44.1602 120.78 47.0381C120.213 49.0386 115.073 66.7814 110.581 74.1851C109.576 75.8495 107.436 78.3584 99.8152 83.0565C95.9562 85.4342 92.4539 87.2872 92.308 87.3692C91.6432 87.7217 90.9378 87.9185 90.2325 87.9677C88.149 88.1153 86.0817 87.0412 85.0602 85.0571Z" fill="#B96F38"/>
<path d="M106.406 73.2176C106.479 73.2504 106.56 73.2504 106.625 73.2012C106.731 73.1356 106.763 72.988 106.698 72.8732C105.028 70.1921 102.061 68.5031 101.939 68.4376C101.826 68.372 101.688 68.413 101.623 68.5277C101.558 68.6425 101.599 68.7819 101.712 68.8475C101.745 68.8639 104.696 70.5447 106.301 73.1274C106.333 73.1684 106.366 73.193 106.406 73.2176Z" fill="#6B2D18"/>
<path d="M102.499 69.2081C102.555 69.2327 102.628 69.2409 102.685 69.2081C103.844 68.6998 105.369 69.1753 105.385 69.1835C105.506 69.2245 105.636 69.1507 105.677 69.0277C105.717 68.9048 105.644 68.7736 105.523 68.7326C105.45 68.708 103.812 68.1914 102.491 68.7736C102.369 68.8228 102.32 68.9621 102.369 69.0851C102.409 69.1425 102.45 69.1835 102.499 69.2081Z" fill="#6B2D18"/>
<path d="M110.962 90.2141C111.562 90.3781 112.154 90.5338 112.746 90.6814C112.989 90.747 113.241 90.8044 113.484 90.8618C123.123 93.1247 131.498 92.805 136.792 92.1573C137.051 92.1245 137.303 92.0917 137.546 92.0589C140.643 91.6325 142.524 91.1242 142.751 91.0586C142.759 91.0586 142.767 91.0586 142.775 91.0504C142.264 88.7137 142.029 87.6642 141.899 85.3274C141.867 84.6715 141.834 84.0402 141.818 83.4417C141.786 82.3184 141.778 81.2935 141.786 80.4572V80.408C141.786 79.8423 141.802 79.3585 141.81 78.9732C138.113 78.2681 131.311 77.03 124.996 76.2429C120.415 75.669 116.102 75.3328 113.427 75.6034L113.273 76.6119L113.046 78.0959L112.851 79.211L112.438 81.6461L111.003 90.0419L110.962 90.2141Z" fill="#B96F38"/>
<path d="M141.964 86.2867C141.964 86.2867 120.991 88.8038 112.073 83.3596C112.073 83.3596 110.136 92.354 110.306 94.7399C110.711 100.455 142.378 99.192 143.172 93.6002C143.521 91.1323 141.964 86.2867 141.964 86.2867Z" fill="#131E07"/>
<path d="M123.107 81.646C123.115 82.4495 123.391 83.0973 123.715 83.0891C124.039 83.0891 124.299 82.4331 124.291 81.6296C124.282 80.8261 124.007 80.1784 123.683 80.1866C123.358 80.1866 123.099 80.8425 123.107 81.646Z" fill="#6B2D18"/>
<path d="M113.038 78.0959C115.251 78.2599 118.186 78.5468 121.477 79.0634C127.825 80.0637 135.503 81.9084 141.891 85.3275C141.859 84.6715 141.826 84.0402 141.81 83.4417C141.778 82.3184 141.77 81.2935 141.778 80.4572V80.408C141.778 79.8423 141.794 79.3585 141.802 78.9732C138.105 78.2681 131.303 77.03 124.988 76.2429C120.407 75.669 116.094 75.3328 113.419 75.6034L113.265 76.6119L113.038 78.0959Z" fill="#6B2D18"/>
<path d="M111.489 77.0301C111.489 77.0301 111.157 78.5552 112.868 79.2193L113.265 76.612C113.265 76.6038 111.976 76.7186 111.489 77.0301Z" fill="#D7C4AC"/>
<path d="M141.818 83.4334C145.426 83.2777 144.721 81.2197 144.721 81.2197L144.696 81.2115L141.786 80.3916V80.4408L141.818 83.4334Z" fill="#D7C4AC"/>
<path d="M107.152 63.4201C107.168 63.6579 107.193 63.9039 107.241 64.1498C107.258 64.2482 107.282 64.3466 107.298 64.445C107.874 66.9293 110.273 69.963 111.352 71.119C111.481 71.2584 111.595 71.3732 111.684 71.4552C111.733 71.4962 111.773 71.5372 111.814 71.57C111.927 71.6684 111.984 71.7258 111.984 71.7258C111.984 71.7422 111.984 71.7586 111.984 71.775C111.976 71.8898 111.976 72.0127 111.968 72.1357C111.96 72.3489 111.943 72.5785 111.919 72.8244C111.895 73.1442 111.87 73.4886 111.83 73.8575L111.822 73.9149C111.773 74.4315 111.716 74.989 111.652 75.5875C111.603 76.0467 111.546 76.5304 111.481 77.0306C111.481 77.0306 111.481 77.0306 111.489 77.0306C112.049 76.8666 112.641 76.7272 113.257 76.6124C116.508 76.0221 120.513 76.1615 124.631 76.678C130.833 77.4569 137.286 79.1049 141.77 80.4086C142.872 80.7283 143.853 81.0235 144.68 81.2859V81.2285C144.631 80.6135 144.599 80.015 144.567 79.4247C144.494 77.9735 144.469 76.6124 144.486 75.317C144.502 74.1117 144.558 72.9802 144.648 71.9143C144.648 71.8898 144.648 71.8652 144.656 71.8488C144.891 68.9299 145.653 64.7894 146.756 60.4357C146.893 59.8781 147.047 59.3042 147.201 58.7385C147.242 58.5745 147.291 58.4105 147.339 58.2547C147.364 58.1645 147.388 58.0744 147.412 57.9842C147.428 57.9104 147.453 57.8448 147.469 57.771C147.526 57.5578 147.591 57.3528 147.647 57.1397C147.704 56.9347 147.769 56.7297 147.826 56.5247C147.939 56.1394 148.053 55.7622 148.174 55.3851C148.247 55.1555 148.312 54.9259 148.385 54.7045C148.62 53.9666 148.863 53.2287 149.115 52.5072C149.261 52.0808 149.407 51.6463 149.528 51.2117C149.634 50.8674 149.723 50.523 149.812 50.1705C149.901 49.8261 149.982 49.4817 150.055 49.1374C150.088 48.9652 150.12 48.793 150.152 48.6208C150.25 48.1043 150.323 47.5878 150.379 47.0876C150.485 46.0791 150.509 45.0952 150.428 44.1524C150.412 44.013 150.404 43.8654 150.388 43.726C150.388 43.7178 150.388 43.7096 150.388 43.7014C150.371 43.5538 150.347 43.4062 150.323 43.2669C150.315 43.1931 150.298 43.1193 150.282 43.0537L150.242 42.8405C150.225 42.7667 150.209 42.7011 150.193 42.6273V42.6191C150.185 42.5699 150.169 42.5289 150.161 42.4798C150.152 42.4552 150.152 42.4388 150.144 42.4142C150.128 42.3486 150.112 42.2912 150.096 42.2256C150.071 42.1436 150.047 42.0616 150.023 41.9796C149.966 41.791 149.909 41.6107 149.836 41.4303C149.836 41.4221 149.828 41.4139 149.828 41.4057C149.804 41.3401 149.779 41.2745 149.747 41.2089C149.723 41.1433 149.69 41.0777 149.666 41.0203C149.634 40.9547 149.609 40.8891 149.577 40.8235C149.52 40.7088 149.463 40.5858 149.398 40.471C149.358 40.4054 149.325 40.3398 149.285 40.2742C149.253 40.2168 149.22 40.1676 149.188 40.1184C149.115 40.0036 149.042 39.8889 148.961 39.7741C148.92 39.7167 148.88 39.6675 148.839 39.6101C148.807 39.5691 148.774 39.5199 148.742 39.4789C148.734 39.4625 148.717 39.4461 148.701 39.4297C148.669 39.3887 148.628 39.3395 148.596 39.2985C148.499 39.1837 148.393 39.0689 148.288 38.9542C148.247 38.9132 148.207 38.8722 148.166 38.8312C148.118 38.782 148.069 38.7328 148.012 38.6836C147.963 38.6344 147.907 38.5934 147.858 38.5442C147.809 38.495 147.753 38.454 147.696 38.4048C147.663 38.372 147.623 38.3474 147.582 38.3146C147.266 38.0687 146.926 37.8473 146.545 37.6505C146.496 37.6259 146.447 37.6013 146.399 37.5767C146.293 37.5275 146.188 37.4701 146.075 37.4209C146.026 37.3963 145.969 37.3717 145.92 37.3553C145.693 37.257 145.45 37.1668 145.199 37.0848C145.183 37.0766 145.167 37.0766 145.15 37.0684C145.085 37.0438 145.012 37.0274 144.948 37.0028C144.85 36.9782 144.753 36.9454 144.656 36.9208C144.413 36.8552 144.169 36.7978 143.934 36.7322C143.691 36.6748 143.456 36.6092 143.229 36.5518C140.286 35.8303 137.813 35.3712 136.905 35.2072C136.84 35.199 136.784 35.1826 136.735 35.1744C136.703 35.1662 136.678 35.1662 136.654 35.158C136.646 35.158 136.646 35.158 136.638 35.158C136.622 35.1498 136.605 35.1498 136.589 35.1498C136.581 35.1498 136.581 35.1498 136.581 35.1498C136.573 35.1498 136.557 35.1498 136.549 35.1416C136.541 35.1416 136.532 35.1416 136.532 35.1416L135.333 35.322L124.234 37.0192L123.861 37.0766L123.18 37.1832L122.904 37.2242L121.607 37.4209C119.71 37.7653 118.162 38.1179 116.897 38.4868C115.786 38.8148 114.894 39.1591 114.173 39.5445C113.63 39.8315 113.184 40.143 112.819 40.4792C112.787 40.5038 112.754 40.5366 112.73 40.5694C112.616 40.676 112.511 40.7907 112.422 40.8973C112.397 40.9219 112.373 40.9547 112.349 40.9793C112.114 41.2663 111.927 41.5779 111.765 41.9058C111.733 41.9796 111.692 42.0534 111.66 42.1272C111.595 42.283 111.538 42.4388 111.481 42.5945C111.457 42.6601 111.441 42.7175 111.416 42.7831C111.384 42.8815 111.352 42.9881 111.327 43.0947C111.295 43.2095 111.271 43.3243 111.246 43.4472C111.214 43.5784 111.189 43.7178 111.157 43.8572C111.133 43.972 111.117 44.0786 111.1 44.2016C111.084 44.2999 111.068 44.3901 111.052 44.4967C111.003 44.8329 110.954 45.1854 110.914 45.5626C110.906 45.661 110.89 45.7676 110.881 45.866C110.873 45.948 110.865 46.0381 110.857 46.1201C110.849 46.2185 110.833 46.3169 110.825 46.4153C110.784 46.7925 110.744 47.1942 110.695 47.6124C110.695 47.6288 110.695 47.6452 110.687 47.6616C110.679 47.7435 110.671 47.8337 110.654 47.9239C110.646 47.9731 110.646 48.0223 110.638 48.0715C110.63 48.1289 110.622 48.1863 110.622 48.2437C110.614 48.3257 110.606 48.3995 110.598 48.4815C110.598 48.5061 110.59 48.5389 110.59 48.5634C110.492 49.3506 110.371 50.1295 110.225 50.9002C110.217 50.9494 110.209 50.9986 110.192 51.0478C110.038 51.8595 109.86 52.663 109.665 53.4501C108.547 58.1809 106.974 60.6161 107.152 63.4201Z" fill="white"/>
<path d="M144.299 38.6914C144.34 39.6507 145.134 40.3968 146.083 40.3558C147.031 40.3148 147.769 39.5113 147.728 38.552C147.728 38.5028 147.72 38.4454 147.712 38.3962C147.031 37.8387 146.204 37.3959 145.223 37.0762C144.656 37.3795 144.275 37.9945 144.299 38.6914Z" fill="#D7C4AC"/>
<path d="M138.348 39.6506C138.389 40.6099 139.183 41.356 140.132 41.315C141.081 41.274 141.818 40.4705 141.778 39.5112C141.737 38.5519 140.943 37.8058 139.994 37.8468C139.054 37.8878 138.316 38.6913 138.348 39.6506Z" fill="#D7C4AC"/>
<path d="M132.373 40.4297C132.414 41.389 133.208 42.1351 134.157 42.0941C135.106 42.0531 135.843 41.2496 135.803 40.2903C135.762 39.331 134.968 38.5849 134.019 38.6259C133.071 38.6669 132.333 39.4704 132.373 40.4297Z" fill="#D7C4AC"/>
<path d="M126.358 41.02C126.398 41.9793 127.193 42.7254 128.142 42.6844C129.09 42.6434 129.828 41.8399 129.787 40.8806C129.747 39.9213 128.952 39.1752 128.004 39.2162C127.055 39.249 126.317 40.0607 126.358 41.02Z" fill="#D7C4AC"/>
<path d="M120.31 41.397C120.351 42.3562 121.145 43.1024 122.094 43.0614C123.042 43.0204 123.78 42.2169 123.739 41.2576C123.699 40.2983 122.904 39.5522 121.956 39.5932C121.007 39.626 120.269 40.4377 120.31 41.397Z" fill="#D7C4AC"/>
<path d="M114.222 41.561C114.262 42.5203 115.057 43.2664 116.005 43.2254C116.954 43.1844 117.691 42.3809 117.651 41.4216C117.61 40.4623 116.816 39.7162 115.867 39.7572C114.919 39.7982 114.181 40.6017 114.222 41.561Z" fill="#D7C4AC"/>
<path d="M145.377 47.5873C145.385 48.5466 146.156 49.3173 147.104 49.3091C148.053 49.3009 148.815 48.522 148.807 47.5627C148.799 46.6034 148.028 45.8327 147.08 45.8409C146.131 45.8491 145.369 46.628 145.377 47.5873Z" fill="#D7C4AC"/>
<path d="M139.492 48.2841C139.5 49.2433 140.27 50.0141 141.218 50.0059C142.167 49.9977 142.929 49.2188 142.921 48.2595C142.913 47.3002 142.143 46.5295 141.194 46.5377C140.245 46.5459 139.483 47.3248 139.492 48.2841Z" fill="#D7C4AC"/>
<path d="M133.492 48.8417C133.5 49.801 134.271 50.5717 135.219 50.5635C136.168 50.5553 136.93 49.7764 136.922 48.8171C136.913 47.8578 136.143 47.0871 135.195 47.0953C134.246 47.1035 133.484 47.8824 133.492 48.8417Z" fill="#D7C4AC"/>
<path d="M127.388 49.2516C127.396 50.2109 128.166 50.9816 129.114 50.9734C130.063 50.9652 130.825 50.1863 130.817 49.227C130.809 48.2677 130.039 47.497 129.09 47.5052C128.15 47.5134 127.388 48.2923 127.388 49.2516Z" fill="#D7C4AC"/>
<path d="M121.226 49.4894C121.234 50.4487 122.004 51.2194 122.953 51.2112C123.901 51.203 124.664 50.4241 124.655 49.4648C124.647 48.5055 123.877 47.7348 122.929 47.743C121.98 47.743 121.218 48.5301 121.226 49.4894Z" fill="#D7C4AC"/>
<path d="M115.016 49.5304C115.024 50.4897 115.794 51.2604 116.743 51.2522C117.691 51.244 118.453 50.4651 118.445 49.5058C118.437 48.5465 117.667 47.7758 116.719 47.784C115.778 47.784 115.016 48.5711 115.016 49.5304Z" fill="#D7C4AC"/>
<path d="M110.225 51.0637C110.322 51.0801 110.427 51.0883 110.525 51.0883C111.473 51.0801 112.235 50.3012 112.227 49.3419C112.219 48.4646 111.571 47.7431 110.727 47.6365C110.703 47.8415 110.679 48.0464 110.654 48.2596C110.646 48.3334 110.638 48.4154 110.63 48.4974C110.63 48.522 110.622 48.5548 110.622 48.5794C110.525 49.3665 110.403 50.1454 110.257 50.9161C110.249 50.9571 110.241 51.0063 110.225 51.0637Z" fill="#D7C4AC"/>
<path d="M147.412 57.9756C147.428 57.9018 147.453 57.8362 147.469 57.7624C147.526 57.5492 147.591 57.3442 147.647 57.1311C147.882 56.3112 148.126 55.4994 148.385 54.6959C148.32 54.6877 148.255 54.6795 148.19 54.6795C147.242 54.6549 146.456 55.4093 146.431 56.3685C146.423 57.0655 146.828 57.6886 147.412 57.9756Z" fill="#D7C4AC"/>
<path d="M140.627 56.7948C140.602 57.7541 141.348 58.5494 142.297 58.574C143.245 58.5986 144.032 57.8443 144.056 56.885C144.08 55.9257 143.334 55.1304 142.386 55.1058C141.437 55.0812 140.651 55.8355 140.627 56.7948Z" fill="#D7C4AC"/>
<path d="M134.603 57.1392C134.579 58.0985 135.324 58.8938 136.273 58.9184C137.222 58.943 138.008 58.1887 138.032 57.2294C138.057 56.2701 137.311 55.4748 136.362 55.4502C135.414 55.4174 134.627 56.18 134.603 57.1392Z" fill="#D7C4AC"/>
<path d="M128.417 57.3607C128.393 58.32 129.139 59.1153 130.087 59.1399C131.036 59.1645 131.822 58.4102 131.846 57.4509C131.871 56.4916 131.125 55.6963 130.176 55.6717C129.228 55.6471 128.441 56.4096 128.417 57.3607Z" fill="#D7C4AC"/>
<path d="M122.134 57.4508C122.11 58.4101 122.856 59.2054 123.804 59.23C124.753 59.2546 125.539 58.5003 125.563 57.541C125.588 56.5817 124.842 55.7864 123.893 55.7618C122.945 55.7372 122.158 56.4915 122.134 57.4508Z" fill="#D7C4AC"/>
<path d="M115.811 57.377C115.786 58.3363 116.532 59.1316 117.481 59.1562C118.429 59.1808 119.216 58.4265 119.24 57.4672C119.264 56.5079 118.518 55.7126 117.57 55.688C116.621 55.6552 115.835 56.4178 115.811 57.377Z" fill="#D7C4AC"/>
<path d="M109.495 57.1065C109.471 58.0658 110.217 58.8611 111.165 58.8857C112.114 58.9103 112.9 58.156 112.924 57.1967C112.949 56.2374 112.203 55.4421 111.254 55.4175C110.306 55.3847 109.519 56.1472 109.495 57.1065Z" fill="#D7C4AC"/>
<path d="M141.745 65.117C141.689 66.0762 142.418 66.8962 143.359 66.9453C144.307 67.0027 145.118 66.2648 145.167 65.3137C145.223 64.3544 144.494 63.5345 143.553 63.4853C142.613 63.428 141.802 64.1577 141.745 65.117Z" fill="#D7C4AC"/>
<path d="M135.697 65.2398C135.641 66.199 136.37 67.019 137.311 67.0682C138.259 67.1255 139.07 66.3876 139.119 65.4365C139.175 64.4772 138.446 63.6573 137.505 63.6081C136.565 63.5508 135.754 64.2805 135.697 65.2398Z" fill="#D7C4AC"/>
<path d="M129.439 65.2891C129.382 66.2484 130.112 67.0683 131.052 67.1175C132 67.1749 132.811 66.4369 132.86 65.4859C132.917 64.5266 132.187 63.7067 131.247 63.6575C130.298 63.6001 129.487 64.3298 129.439 65.2891Z" fill="#D7C4AC"/>
<path d="M123.034 65.2317C122.977 66.191 123.707 67.0109 124.647 67.0601C125.596 67.1175 126.407 66.3796 126.455 65.4285C126.512 64.4692 125.782 63.6493 124.842 63.6001C123.901 63.5427 123.091 64.2724 123.034 65.2317Z" fill="#D7C4AC"/>
<path d="M116.589 65.0349C116.532 65.9942 117.262 66.8141 118.202 66.8633C119.151 66.9207 119.961 66.1828 120.01 65.2317C120.067 64.2724 119.337 63.4525 118.397 63.4033C117.456 63.3459 116.646 64.0756 116.589 65.0349Z" fill="#D7C4AC"/>
<path d="M110.176 64.6577C110.119 65.617 110.849 66.4369 111.789 66.4861C112.738 66.5435 113.549 65.8056 113.597 64.8545C113.654 63.8952 112.924 63.0753 111.984 63.0261C111.044 62.9687 110.233 63.6984 110.176 64.6577Z" fill="#D7C4AC"/>
<path d="M144.429 75.3084C144.453 75.3084 144.469 75.3084 144.494 75.3166C144.51 74.1113 144.567 72.9799 144.656 71.914C144.656 71.8894 144.656 71.8648 144.664 71.8484C143.748 71.7992 142.953 72.4961 142.872 73.4308C142.783 74.3819 143.48 75.2182 144.429 75.3084Z" fill="#D7C4AC"/>
<path d="M136.8 73.3244C136.719 74.2836 137.416 75.1281 138.357 75.2101C139.297 75.2921 140.14 74.587 140.221 73.6359C140.302 72.6766 139.605 71.8321 138.665 71.7501C137.716 71.6681 136.881 72.3733 136.8 73.3244Z" fill="#D7C4AC"/>
<path d="M130.452 73.2014C130.371 74.1607 131.068 75.0052 132.009 75.0872C132.957 75.1691 133.792 74.464 133.873 73.5129C133.954 72.5537 133.257 71.7091 132.317 71.6272C131.368 71.537 130.533 72.2421 130.452 73.2014Z" fill="#D7C4AC"/>
<path d="M123.934 72.9963C123.853 73.9556 124.55 74.8001 125.49 74.8821C126.439 74.9641 127.274 74.259 127.355 73.3079C127.436 72.3486 126.739 71.5041 125.799 71.4221C124.858 71.3319 124.023 72.037 123.934 72.9963Z" fill="#D7C4AC"/>
<path d="M117.367 72.6765C117.286 73.6358 117.983 74.4803 118.924 74.5623C119.864 74.6442 120.707 73.9391 120.788 72.988C120.869 72.0287 120.172 71.1842 119.232 71.1023C118.283 71.0121 117.448 71.7172 117.367 72.6765Z" fill="#D7C4AC"/>
<path d="M111.838 73.8572L111.83 73.9146C112.008 74.0048 112.211 74.0622 112.422 74.0786C113.37 74.1606 114.205 73.4554 114.286 72.5044C114.367 71.5451 113.67 70.7006 112.73 70.6186C112.203 70.5694 111.708 70.7744 111.36 71.1269C111.489 71.2663 111.603 71.3811 111.692 71.4631C111.879 71.6435 111.992 71.7336 111.992 71.7336C111.992 71.75 111.992 71.7664 111.992 71.7828C111.984 71.8976 111.984 72.0206 111.976 72.1436C111.943 72.6273 111.895 73.2013 111.838 73.8572Z" fill="#D7C4AC"/>
<path d="M126.617 45.7343C126.488 45.7425 126.358 45.7425 126.236 45.7343C125.053 45.6687 124.145 45.2014 123.553 44.3323C121.81 41.807 123.326 36.7891 123.391 36.576C123.439 36.4038 123.618 36.3136 123.788 36.3628C123.958 36.412 124.047 36.5924 123.999 36.7645C123.983 36.8137 122.515 41.7004 124.08 43.9633C124.566 44.6684 125.288 45.0374 126.277 45.0866C130.428 45.308 136.419 35.3789 136.476 35.2805C136.565 35.1329 136.759 35.0837 136.913 35.1739C137.059 35.2641 137.108 35.4609 137.019 35.6167C136.759 36.0348 131.084 45.4309 126.617 45.7343Z" fill="#D5963D"/>
<path d="M131.992 72.2909C131.944 72.3975 131.838 72.4631 131.725 72.4713C131.668 72.4713 131.619 72.4631 131.563 72.4385C131.506 72.4139 126.171 69.8312 119.97 71.5038C116.824 72.3483 114.1 72.4713 111.968 72.1434C111.976 72.0122 111.984 71.8974 111.984 71.7826C111.984 71.7662 111.984 71.7498 111.984 71.7334C111.984 71.7334 111.87 71.635 111.684 71.4628C113.776 71.8482 116.54 71.7662 119.807 70.8889C126.244 69.1589 131.619 71.758 131.838 71.8728C132.001 71.9384 132.065 72.1352 131.992 72.2909Z" fill="#D7C4AC"/>
<path d="M123.537 80.3755C123.602 79.4244 123.148 78.5143 122.369 77.9895C122.102 77.8092 121.818 77.678 121.567 77.719C120.894 77.8256 121.105 78.9898 121.105 78.9898C121.105 78.9898 119.556 78.4323 119.483 79.6949C119.41 80.9576 121.25 81.1544 121.25 81.1544C121.25 81.1544 123.407 82.1956 123.537 80.4001C123.537 80.4001 123.537 80.3919 123.537 80.3755Z" fill="#A36A24"/>
<path d="M136.468 80.6543C136.532 79.7032 136.078 78.7931 135.3 78.2683C135.033 78.088 134.749 77.9568 134.498 77.9978C133.825 78.1044 134.035 79.2686 134.035 79.2686C134.035 79.2686 132.487 78.7111 132.414 79.9738C132.341 81.2364 134.181 81.4332 134.181 81.4332C134.181 81.4332 136.338 82.4745 136.468 80.6789C136.468 80.6789 136.468 80.6625 136.468 80.6543Z" fill="#A36A24"/>
<path d="M131.709 81.0888C132.074 80.2115 131.944 79.203 131.376 78.4405C131.182 78.1781 130.955 77.965 130.712 77.9158C130.039 77.7928 129.86 78.9653 129.86 78.9653C129.86 78.9653 128.579 77.924 128.093 79.0964C127.606 80.2689 129.285 81.0642 129.285 81.0642C129.285 81.0642 130.979 82.7614 131.684 81.1134C131.701 81.1052 131.709 81.097 131.709 81.0888Z" fill="#A36A24"/>
<path d="M126.95 80.9494C127.315 80.0721 127.185 79.0636 126.617 78.3011C126.423 78.0387 126.196 77.8256 125.953 77.7764C125.28 77.6534 125.101 78.8259 125.101 78.8259C125.101 78.8259 123.82 77.7846 123.334 78.957C122.848 80.1295 124.526 80.9248 124.526 80.9248C124.526 80.9248 126.22 82.622 126.925 80.974C126.942 80.974 126.95 80.9576 126.95 80.9494Z" fill="#A36A24"/>
<path d="M118.786 81.4987C119.151 80.6214 119.021 79.6129 118.453 78.8504C118.259 78.5881 118.032 78.3749 117.789 78.3257C117.116 78.2027 116.937 79.3752 116.937 79.3752C116.937 79.3752 115.657 78.3339 115.17 79.5064C114.684 80.6788 116.362 81.4741 116.362 81.4741C116.362 81.4741 118.056 83.1713 118.762 81.5233C118.778 81.5233 118.786 81.5069 118.786 81.4987Z" fill="#A36A24"/>
<path d="M131.255 78.9735C131.863 78.252 132.811 77.9077 133.735 78.0798C134.052 78.1372 134.344 78.2438 134.498 78.4488C134.903 78.9981 133.954 79.6869 133.954 79.6869C133.954 79.6869 135.454 80.3756 134.635 81.3349C133.817 82.2942 132.357 81.1381 132.357 81.1381C132.357 81.1381 130.095 80.3674 131.23 78.9899C131.238 78.9899 131.247 78.9817 131.255 78.9735Z" fill="#D5963D"/>
<path d="M129.122 80.7937C129.187 79.8426 128.733 78.9325 127.955 78.4077C127.688 78.2274 127.404 78.0962 127.152 78.1372C126.48 78.2438 126.69 79.408 126.69 79.408C126.69 79.408 125.142 78.8505 125.069 80.1131C124.996 81.3758 126.836 81.5726 126.836 81.5726C126.836 81.5726 128.993 82.6139 129.122 80.8183C129.114 80.8101 129.114 80.8019 129.122 80.7937Z" fill="#D5963D"/>
<path d="M121.364 80.3755C121.429 79.4244 120.975 78.5143 120.197 77.9895C119.929 77.8092 119.645 77.678 119.394 77.719C118.721 77.8256 118.932 78.9898 118.932 78.9898C118.932 78.9898 117.383 78.4323 117.31 79.6949C117.237 80.9576 119.078 81.1544 119.078 81.1544C119.078 81.1544 121.234 82.1956 121.364 80.4001C121.364 80.4001 121.364 80.3919 121.364 80.3755Z" fill="#D5963D"/>
<path d="M121.575 79.8179C121.64 78.8668 122.207 78.0305 123.05 77.6124C123.334 77.473 123.642 77.3828 123.877 77.4566C124.526 77.6533 124.161 78.7766 124.161 78.7766C124.161 78.7766 125.766 78.4323 125.677 79.7031C125.58 80.9658 123.731 80.9084 123.731 80.9084C123.731 80.9084 121.461 81.6463 121.567 79.8507C121.575 79.8425 121.575 79.8343 121.575 79.8179Z" fill="#D5963D"/>
<path d="M133.59 81.4578V104.866H134.4L136.784 81.0069C136.613 80.1706 135.973 79.5557 135.211 79.5557C134.765 79.5557 134.36 79.7688 134.068 80.1132C133.776 80.4494 133.59 80.9331 133.59 81.4578Z" fill="#A5410F"/>
<path d="M130.444 104.866H133.687V81.4577C133.687 80.4001 132.957 79.5474 132.065 79.5474C131.166 79.5474 130.444 80.4001 130.444 81.4577V104.866Z" fill="#F1EADC"/>
<path d="M127.29 104.866H130.533V81.4577C130.533 80.4001 129.803 79.5474 128.912 79.5474C128.012 79.5474 127.29 80.4001 127.29 81.4577V104.866Z" fill="#A5410F"/>
<path d="M124.145 104.866H127.388V81.4577C127.388 80.4001 126.658 79.5474 125.766 79.5474C124.866 79.5474 124.145 80.4001 124.145 81.4577V104.866Z" fill="#F1EADC"/>
<path d="M120.991 104.866H124.234V81.4577C124.234 80.4001 123.504 79.5474 122.612 79.5474C121.713 79.5474 120.991 80.4001 120.991 81.4577V104.866Z" fill="#A5410F"/>
<path d="M115.073 80.1049C114.927 80.2771 114.814 80.4739 114.733 80.6952L117.149 104.858H117.838V81.4577C117.838 80.4001 117.116 79.5474 116.217 79.5474C115.771 79.5474 115.365 79.7605 115.073 80.1049Z" fill="#A5410F"/>
<path d="M114.603 81.4413L114.684 80.8591C114.627 81.0395 114.603 81.2363 114.603 81.4413Z" fill="#A5410F"/>
<path d="M117.845 104.866H121.088V81.4577C121.088 80.4001 120.359 79.5474 119.467 79.5474C118.567 79.5474 117.845 80.4001 117.845 81.4577V104.866Z" fill="#F1EADC"/>
<path d="M114.684 80.8593C114.7 80.8019 114.717 80.7527 114.733 80.7036L114.725 80.5806L114.684 80.8593Z" fill="#A5410F"/>
<path d="M157.254 107.244C157.254 107.244 159.905 105.456 161.754 107.08C163.602 108.703 163.124 111.228 165.532 112.852C167.94 114.475 176.622 119.436 175.901 125.044L167.623 117.894C167.623 117.894 159.751 112.122 157.254 107.244Z" fill="#F1EADC"/>
<path d="M146.066 115.697C146.066 115.697 146.877 115.877 148.199 116.205C148.572 116.296 148.993 116.402 149.439 116.509C150.039 116.656 150.696 116.828 151.393 117.009C151.79 117.115 152.204 117.222 152.633 117.337C157.927 118.755 164.924 120.871 167.704 122.789C167.899 122.929 168.085 123.06 168.272 123.191C172.504 126.29 173.306 128.865 174.125 128.373C174.985 127.864 175.244 125.667 173.931 124.167C173.015 123.125 172.407 121.641 171.182 120.01C170.85 119.567 170.477 119.116 170.047 118.665C168.126 116.656 165.005 114.541 163.278 112.934C163.164 112.827 163.059 112.729 162.962 112.631C161.543 111.212 161.073 108.383 158.43 107.441C157.141 106.981 155.568 107.088 154.044 107.432C153.776 107.498 153.501 107.564 153.241 107.637C152.844 107.752 152.455 107.875 152.082 108.006C151.563 108.195 151.069 108.383 150.623 108.58C150.193 108.769 149.796 108.949 149.463 109.113C148.645 109.507 148.142 109.81 148.142 109.81L146.066 115.697Z" fill="#B96F38"/>
<path d="M164.81 113.991C164.81 113.991 165.532 119.108 160.951 119.928C160.951 119.928 167.623 126.306 171.077 128.422C174.531 130.537 177.911 126.347 174.693 122.371C171.482 118.378 164.81 113.991 164.81 113.991Z" fill="#F1EADC"/>
<path d="M175.617 124.298C175.649 124.298 175.674 124.289 175.706 124.281C175.844 124.232 175.917 124.084 175.868 123.945C175.803 123.765 174.263 119.403 165.216 114.139C165.094 114.065 164.924 114.106 164.851 114.237C164.778 114.369 164.818 114.533 164.948 114.606C173.785 119.747 175.341 124.076 175.358 124.117C175.406 124.224 175.504 124.298 175.617 124.298Z" fill="#C2AC96"/>
<path d="M107.89 135.776C107.89 135.776 104.704 135.957 104.193 138.384C103.682 140.802 105.563 142.524 104.598 145.295C103.634 148.059 99.6449 157.299 103.553 161.341L105.92 150.592C105.928 150.584 108.798 141.188 107.89 135.776Z" fill="#F1EADC"/>
<path d="M121.858 135.744C121.858 135.744 121.315 136.383 120.456 137.449C120.213 137.752 119.937 138.088 119.645 138.449C119.256 138.933 118.826 139.466 118.381 140.04C118.121 140.368 117.854 140.704 117.586 141.056C114.197 145.402 109.86 151.346 108.782 154.569C108.709 154.798 108.636 155.019 108.571 155.233C107.031 160.283 107.914 162.825 106.974 162.932C105.985 163.046 104.469 161.448 104.631 159.447C104.744 158.061 104.347 156.495 104.355 154.454C104.355 153.904 104.388 153.314 104.469 152.683C104.817 149.911 106.05 146.32 106.479 143.992C106.504 143.844 106.528 143.697 106.552 143.557C106.844 141.565 105.547 139.015 107.095 136.654C107.849 135.498 109.171 134.637 110.598 133.989C110.849 133.874 111.108 133.768 111.368 133.669C111.749 133.522 112.138 133.382 112.519 133.259C113.046 133.095 113.549 132.948 114.027 132.833C114.481 132.718 114.903 132.628 115.275 132.554C116.167 132.374 116.751 132.308 116.751 132.308L121.858 135.744Z" fill="#B96F38"/>
<path d="M105.855 145.763C105.855 145.763 108.36 150.321 112.511 148.19C112.511 148.19 110.922 157.315 109.414 161.103C107.906 164.891 102.726 163.596 102.928 158.455C103.131 153.322 105.855 145.763 105.855 145.763Z" fill="#F1EADC"/>
<path d="M103.253 160.472C103.334 160.406 103.374 160.299 103.35 160.193C102.523 156.635 106.033 146.451 106.066 146.345C106.114 146.205 106.041 146.05 105.904 146C105.766 145.951 105.612 146.025 105.563 146.164C105.417 146.591 101.972 156.602 102.831 160.316C102.863 160.463 103.009 160.545 103.147 160.513C103.196 160.504 103.228 160.488 103.253 160.472Z" fill="#C2AC96"/>
<path d="M82.9118 90.6653C88.3841 97.9214 100.975 105.579 114.562 110.245C119.28 111.868 123.334 113.098 126.796 114.041C129.09 114.664 131.125 115.156 132.917 115.549C133.257 115.623 133.59 115.697 133.914 115.763C141.753 117.378 144.672 116.919 144.672 116.919C144.672 116.919 149.593 115.508 147.777 107.441C147.777 107.441 138.624 104.973 131.595 101.152C130.379 100.488 129.228 99.7908 128.198 99.0447C128.012 98.9135 127.833 98.7823 127.663 98.6511C127.396 98.4461 127.12 98.233 126.853 98.0198C120.375 92.8626 114.927 85.9836 100.164 79.4162C100.164 79.4162 92.4944 74.3327 86.1303 76.2677C85.1818 76.5547 84.2738 76.9892 83.4469 77.596C78.769 81.0642 79.2149 85.7704 82.9118 90.6653Z" fill="#2D4446"/>
<path d="M144.421 104.653C144.364 104.62 144.307 104.604 144.234 104.604C144.048 104.612 143.902 104.767 143.91 104.964C144.105 109.925 140.529 116.238 140.497 116.304C140.4 116.468 140.456 116.681 140.618 116.771C140.781 116.869 140.991 116.812 141.081 116.648C141.235 116.386 144.786 110.105 144.591 104.94C144.583 104.808 144.518 104.71 144.421 104.653Z" fill="#131E07"/>
<path d="M126.796 114.041C129.09 114.664 131.125 115.156 132.917 115.549C138.681 114.033 146.61 110.769 146.61 110.769L146.366 108.055L126.796 114.041Z" fill="#131E07"/>
<path d="M82.9118 90.6653C87.8409 84.4258 87.0869 79.0308 86.1384 76.2595C85.1899 76.5465 84.2819 76.981 83.4631 77.5878C78.769 81.0642 79.2149 85.7704 82.9118 90.6653Z" fill="#131E07"/>
<path d="M86.5114 76.1611C86.5114 76.1611 83.4874 74.7345 82.8145 76.2923C82.1416 77.8501 84.0792 81.3593 84.8413 82.5482C85.6034 83.7288 85.9033 80.4656 85.4331 79.0636C85.1575 78.2355 85.0683 76.8826 85.0683 76.8826L86.5114 76.1611Z" fill="#B96F38"/>
<path d="M83.1469 79.6211C83.1469 79.6211 80.3337 78.8094 79.5311 80.6624C78.7285 82.5154 81.031 86.6805 81.939 88.0825C82.847 89.4846 83.3172 85.5654 82.6443 83.9502C81.9714 82.335 82.4578 81.5233 82.4578 81.5233L83.1469 79.6211Z" fill="#B96F38"/>
<path d="M81.4768 81.6298C81.4768 81.6298 78.9879 80.9165 78.2826 82.5481C77.5773 84.1797 79.6041 87.8611 80.4067 89.0992C81.2093 90.3372 81.6227 86.8772 81.0309 85.4506C80.4391 84.024 80.8607 83.3024 80.8607 83.3024L81.4768 81.6298Z" fill="#B96F38"/>
<path d="M84.7035 76.7432C84.7035 76.7432 81.8903 75.9315 81.0877 77.7845C80.2851 79.6374 82.5875 83.8025 83.4955 85.2046C84.4035 86.6066 84.8737 82.6875 84.2008 81.0723C83.5279 79.4571 84.0144 78.6453 84.0144 78.6453L84.7035 76.7432Z" fill="#B96F38"/>
<path d="M146.918 109.785C142.151 108.67 132.414 104.243 120.878 97.9624C112.252 93.2643 102.288 87.2462 100.82 85.1391C100.026 83.9994 99.8233 83.0729 100.212 82.3678C100.796 81.3183 102.499 81.1953 103.269 81.1953C103.472 81.1953 103.626 81.3675 103.617 81.5643C103.609 81.7447 103.455 81.8922 103.277 81.8922C102.515 81.8922 101.185 82.0398 100.812 82.7121C100.504 83.2697 100.95 84.1224 101.388 84.7373C102.572 86.4345 110.906 91.7393 121.21 97.3474C130.079 102.177 141.535 107.809 147.08 109.105L146.918 109.785Z" fill="#131E07"/>
<path d="M146.002 106.375C145.499 110.63 144.437 114.5 142.094 117.476C142.094 117.476 144.137 118.935 145.985 117.861C147.396 117.042 150.079 110.384 149.009 106.85C147.809 106.202 146.788 105.981 146.002 106.375Z" fill="#131E07"/>
<path d="M112.56 131.898C114.846 139.843 119.832 138.663 119.832 138.663C119.832 138.663 126.82 136.055 142.961 118.042C152.268 107.654 159.419 95.2813 161.065 86.3198C162.273 79.7359 160.513 74.9969 154.465 74.2262C153.071 74.0458 151.709 74.2426 150.412 74.6771C144.429 76.6859 139.808 83.8683 139.808 83.8683C129.649 97.3967 134.165 97.8722 126.625 110.966C122.296 118.452 112.56 131.898 112.56 131.898Z" fill="#2D4446"/>
<path d="M130.793 100.848C129.601 105.382 127.55 109.605 124.728 113.336C124.518 113.623 124.988 113.893 125.199 113.614C128.044 109.851 130.112 105.571 131.311 100.996C131.409 100.643 130.882 100.496 130.793 100.848Z" fill="#131E07"/>
<path d="M114.878 127.807L114.886 127.823C114.951 127.922 115.592 128.914 116.637 130.209C116.775 130.39 116.921 130.57 117.075 130.75C118.697 132.685 121.056 135.08 123.634 136.268C123.747 136.318 123.861 136.309 123.958 136.244C124.007 136.211 124.056 136.162 124.08 136.096C124.161 135.924 124.088 135.719 123.918 135.637C121.445 134.489 119.118 132.111 117.537 130.209C117.383 130.021 117.229 129.84 117.091 129.66V129.652C116.086 128.389 115.478 127.454 115.462 127.43C115.365 127.266 115.154 127.225 114.992 127.331C114.838 127.454 114.797 127.659 114.878 127.807Z" fill="#131E07"/>
<path d="M150.404 74.6688C151.433 77.2187 155.227 85.5736 161.065 86.3115C162.273 79.7276 160.513 74.9886 154.465 74.2179C153.063 74.0375 151.701 74.2343 150.404 74.6688Z" fill="#131E07"/>
<path d="M116.646 130.217C116.783 130.398 116.929 130.578 117.083 130.758C117.229 130.586 117.383 130.406 117.537 130.225C121.21 125.88 126.171 118.862 131.53 110.4C136.816 102.054 142.629 91.9031 142.905 89.345C143.051 87.9676 142.783 87.0411 142.102 86.6229C141.089 85.9834 139.54 86.7131 138.867 87.0985C138.689 87.1969 138.632 87.4182 138.746 87.5904C138.843 87.7462 139.046 87.7954 139.2 87.7052C139.873 87.3281 141.097 86.8033 141.745 87.2051C142.288 87.5412 142.305 88.5087 142.224 89.263C142.005 91.3292 137.262 100.061 130.955 110.023C126.69 116.754 121.275 124.699 117.1 129.668V129.676C116.937 129.865 116.783 130.037 116.646 130.217Z" fill="#131E07"/>
<path d="M113.614 130.094C116.094 133.563 118.875 136.424 122.361 137.875C122.361 137.875 121.275 140.155 119.143 140.122C117.513 140.097 111.976 135.596 111.214 131.98C111.943 130.832 112.738 130.144 113.614 130.094Z" fill="#131E07"/>
<path d="M139.873 47.1773L141.672 50.3257L143.464 53.4905C144.656 55.6059 145.831 57.7213 146.999 59.8366C148.158 61.952 149.309 64.0755 150.42 66.1909C150.971 67.2486 151.523 68.3062 152.041 69.3475L152.431 70.1264L152.625 70.5118L152.812 70.8971L152.998 71.2825L153.168 71.6596L153.339 72.0368L153.493 72.3894C153.606 72.6353 153.687 72.8403 153.776 73.0535L153.809 73.1273L153.833 73.1929L153.882 73.3158L153.93 73.4306C153.906 73.3568 153.89 73.2831 153.865 73.2093C153.841 73.1273 153.825 73.0207 153.809 72.9305L153.784 72.7665C153.776 72.7091 153.768 72.6517 153.768 72.5943C153.768 72.5369 153.76 72.4631 153.752 72.3976C153.752 72.332 153.744 72.2582 153.752 72.1926C153.752 72.045 153.76 71.881 153.776 71.7252C153.793 71.5531 153.825 71.3809 153.865 71.2087C153.906 71.0283 153.963 70.8479 154.02 70.6676C154.084 70.4872 154.157 70.315 154.238 70.151C154.279 70.069 154.328 69.987 154.368 69.905C154.409 69.8313 154.457 69.7575 154.506 69.6837C154.555 69.6099 154.611 69.5361 154.652 69.4705C154.701 69.4049 154.749 69.3475 154.798 69.2819C155.203 68.7982 155.568 68.5522 155.819 68.3964C156.079 68.2406 156.241 68.1832 156.346 68.1422C156.403 68.1258 156.435 68.1094 156.468 68.1094C156.484 68.1012 156.517 68.1012 156.517 68.1012C156.541 68.1012 156.517 68.1095 156.492 68.1176C156.427 68.134 156.29 68.1586 156.119 68.1668C155.779 68.1996 155.333 68.2078 154.855 68.1996C153.89 68.175 152.812 68.0849 151.717 67.9619C150.615 67.8307 149.488 67.6749 148.353 67.4863C146.083 67.1174 143.772 66.6664 141.47 66.1663C140.318 65.9203 139.159 65.6579 138.008 65.3874L136.281 64.9774L135.422 64.7642L134.587 64.5511L134.514 64.5347C131.83 63.8541 129.106 65.5103 128.441 68.2242C127.785 70.8807 129.341 73.57 131.928 74.3243L132.852 74.5949L133.752 74.8491L135.551 75.341C136.751 75.669 137.951 75.9805 139.159 76.2839C141.575 76.8906 144.007 77.4564 146.504 77.9565C147.753 78.2025 149.017 78.4321 150.315 78.6288C151.62 78.8256 152.949 78.9896 154.409 79.0798C155.138 79.1208 155.908 79.1454 156.776 79.1044C157.214 79.0798 157.684 79.047 158.211 78.965C158.478 78.924 158.762 78.8748 159.07 78.801C159.224 78.7682 159.395 78.719 159.557 78.6698C159.735 78.6124 159.913 78.5632 160.108 78.4894C160.497 78.3419 160.935 78.1615 161.454 77.8499C161.592 77.7679 161.713 77.6859 161.851 77.5875C161.924 77.5384 161.997 77.481 162.062 77.4318C162.135 77.3744 162.2 77.3334 162.273 77.2678C162.346 77.2022 162.419 77.1448 162.491 77.0792C162.564 77.0136 162.637 76.948 162.71 76.8742C162.783 76.8004 162.864 76.7185 162.937 76.6447L163.051 76.5217L163.164 76.3905C163.237 76.3003 163.31 76.2101 163.383 76.1117C163.456 76.0215 163.529 75.9067 163.594 75.8084C163.667 75.7018 163.732 75.5952 163.797 75.4886C163.862 75.3738 163.926 75.259 163.983 75.1442C164.105 74.9147 164.202 74.6605 164.299 74.4145C164.389 74.1604 164.462 73.9144 164.518 73.6602C164.575 73.4142 164.616 73.1601 164.64 72.9141C164.664 72.6845 164.68 72.4385 164.68 72.2172C164.68 72.1106 164.68 72.004 164.672 71.8974C164.664 71.7908 164.664 71.676 164.648 71.5858C164.64 71.4875 164.632 71.3891 164.616 71.2989C164.599 71.2005 164.591 71.1021 164.575 71.0201C164.543 70.8561 164.51 70.6758 164.47 70.52C164.429 70.3724 164.389 70.2248 164.348 70.0772L164.243 69.7575L164.137 69.4459L164.089 69.2901L164.04 69.1507C163.91 68.7982 163.772 68.4292 163.643 68.1176L163.448 67.6257L163.254 67.1584L163.059 66.691L162.864 66.2401L162.67 65.7891L162.467 65.3464L162.07 64.4691C161.535 63.3048 160.992 62.1733 160.448 61.0501C159.354 58.8035 158.243 56.5898 157.125 54.3842C156.006 52.1869 154.871 49.9977 153.728 47.8168L152.009 44.5536L150.266 41.2822C148.701 38.3551 145.085 37.2564 142.191 38.8388C139.297 40.4213 138.211 44.078 139.775 47.0051C139.8 47.0543 139.824 47.0953 139.856 47.1445L139.873 47.1773Z" fill="#B96F38"/>
<path d="M130.322 64.543C130.322 64.543 124.388 67.0355 123.934 69.118C123.48 71.2006 123.593 72.1025 123.593 72.1025L130.322 64.543Z" fill="#6B2D18"/>
<path d="M134.911 64.797C133.079 63.641 130.72 63.8213 129.009 65.1414C127.371 66.404 125.028 68.3882 123.504 70.4298C121.121 73.6274 120.399 78.3255 121.477 78.8092C122.556 79.293 122.612 74.6605 124.218 73.5044C124.218 73.5044 121.461 79.3503 122.402 80.3834C123.423 81.4985 124.153 76.2183 125.766 74.7343C125.766 74.7343 123.415 80.3998 124.226 80.7196C125.474 81.2115 125.693 77.7761 127.396 76.4315C127.396 76.4315 125.482 80.1784 126.358 80.818C127.225 81.4575 129.05 75.7756 131.368 74.7671C133.695 73.7586 135.778 73.2175 136.638 71.0611C137.27 69.4787 137.457 66.4122 134.911 64.797Z" fill="#B96F38"/>
<path d="M157.708 69.3394C157.781 69.3312 157.854 69.2902 157.895 69.2164C157.951 69.1016 157.911 68.9622 157.797 68.8967C155.017 67.429 151.62 67.4782 151.474 67.4782C151.344 67.4782 151.239 67.5848 151.247 67.716C151.247 67.8472 151.352 67.9538 151.482 67.9456C151.514 67.9456 154.903 67.8964 157.579 69.3066C157.619 69.3394 157.66 69.3476 157.708 69.3394Z" fill="#6B2D18"/>
<path d="M152.341 67.8716C152.406 67.8634 152.463 67.8306 152.503 67.7732C153.249 66.7401 154.814 66.3794 154.83 66.3794C154.96 66.3548 155.033 66.2236 155.009 66.1006C154.984 65.9694 154.855 65.8956 154.733 65.9202C154.66 65.9366 152.982 66.322 152.131 67.4944C152.058 67.601 152.074 67.7486 152.179 67.8224C152.228 67.8552 152.285 67.8716 152.341 67.8716Z" fill="#6B2D18"/>
<path d="M118.567 20.2517C118.567 20.2517 117.4 20.4403 117.278 21.9653C117.156 23.4985 118.081 25.9746 119.572 25.5565C121.064 25.1465 118.567 20.2517 118.567 20.2517Z" fill="#6B2D18"/>
<path d="M119.289 28.1719C118.154 28.3031 117.124 27.475 116.994 26.3272C116.865 25.1793 117.683 24.138 118.818 24.0068C119.953 23.8756 120.983 24.7038 121.113 25.8516C121.242 26.9995 120.424 28.0408 119.289 28.1719ZM118.883 24.6136C118.081 24.7037 117.505 25.4417 117.594 26.2534C117.683 27.0651 118.413 27.6472 119.216 27.557C120.018 27.4668 120.594 26.7289 120.505 25.9172C120.415 25.1055 119.686 24.5234 118.883 24.6136Z" fill="#ECB46B"/>
<path d="M136.216 35.0754C136.216 35.0754 134.433 39.1257 130.087 40.0686C124.566 41.2739 123.764 38.888 123.764 38.888C123.95 38.1091 124.039 37.3384 124.047 36.5184C124.047 36.2069 124.047 35.8953 124.023 35.5674C123.974 34.6737 123.845 33.698 123.658 32.5829C123.618 32.3205 123.561 32.05 123.512 31.7712L123.504 31.7384C127.298 30.5413 130.339 28.59 132.309 25.5563L132.86 25.1628L133.233 24.9004L133.322 25.1218L133.298 25.8515C133.184 29.2951 134.133 32.0664 136.216 35.0754Z" fill="#B96F38"/>
<path d="M129.844 28.7458C129.155 30.6644 127.493 34.0916 124.031 35.5757C123.983 34.682 123.853 33.7063 123.666 32.5912C123.626 32.3288 123.569 32.0583 123.52 31.7795C123.593 31.7795 123.674 31.7877 123.756 31.7877C125.863 31.7713 128.069 30.5086 129.844 28.7458Z" fill="#131E07"/>
<path d="M137.546 18.9481C137.821 21.0553 136.403 23.8757 133.687 24.3185H133.671L133.614 24.3267C133.59 24.4497 133.549 24.5809 133.517 24.712C133.5 24.7694 133.484 24.8268 133.468 24.876C133.468 24.8842 133.468 24.8842 133.46 24.8924C132.236 28.6968 127.469 31.4845 124.753 31.9272C123.78 32.083 123.099 31.9518 122.88 31.9354C119.905 31.6894 118.843 27.8113 118.899 24.7284C118.907 24.2775 118.94 23.8511 118.997 23.4494C118.997 23.4248 119.005 23.392 119.005 23.3674C119.005 23.3674 117.481 19.2761 117.01 17.4641C116.102 13.9549 117.651 10.0521 125.304 8.29754C132.957 6.54295 135.454 11.1508 136.338 13.6597C136.484 14.0779 136.735 16.6524 136.37 17.1197C137.149 17.3903 137.457 18.243 137.546 18.9481Z" fill="#B96F38"/>
<path d="M133.217 22.7032C133.33 22.6704 133.411 22.572 133.419 22.449C133.533 20.4157 135.762 19.2432 135.778 19.235C135.916 19.1612 135.973 18.989 135.9 18.8496C135.827 18.7103 135.657 18.6529 135.519 18.7267C135.414 18.7759 132.981 20.0549 132.852 22.4244C132.844 22.5802 132.965 22.7196 133.119 22.7278C133.152 22.7196 133.184 22.7196 133.217 22.7032Z" fill="#6B2D18"/>
<path d="M135.511 21.2685C135.543 21.2603 135.576 21.2439 135.608 21.2193C135.73 21.1209 135.746 20.9405 135.649 20.8175C135.624 20.7847 134.976 19.9976 133.841 20.1944C133.687 20.219 133.581 20.3666 133.614 20.5223C133.638 20.6781 133.784 20.7847 133.938 20.7519C134.749 20.6125 135.203 21.1619 135.211 21.1701C135.284 21.2685 135.406 21.3013 135.511 21.2685Z" fill="#6B2D18"/>
<g opacity="0.5">
<g opacity="0.5">
<g opacity="0.5">
<g opacity="0.5">
<g opacity="0.5">
<g opacity="0.5">
<g opacity="0.5">
<g opacity="0.5">
<g opacity="0.5">
<g opacity="0.5">
<path opacity="0.5" d="M120.407 23.9084C120.44 24.2199 119.799 24.5643 118.899 24.7283C118.907 24.2773 118.94 23.851 118.997 23.4492C119.783 23.4492 120.375 23.6214 120.407 23.9084Z" fill="#6B2D18"/>
</g>
</g>
</g>
</g>
</g>
</g>
</g>
</g>
</g>
</g>
<g opacity="0.5">
<g opacity="0.5">
<g opacity="0.5">
<g opacity="0.5">
<g opacity="0.5">
<g opacity="0.5">
<g opacity="0.5">
<g opacity="0.5">
<g opacity="0.5">
<g opacity="0.5">
<path opacity="0.5" d="M125.223 23.3016C125.263 23.6624 126.18 23.8509 127.266 23.7198C128.352 23.5968 129.204 23.2032 129.163 22.8425C129.123 22.4817 128.206 22.2931 127.12 22.4243C126.026 22.5555 125.182 22.949 125.223 23.3016Z" fill="#6B2D18"/>
</g>
</g>
</g>
</g>
</g>
</g>
</g>
</g>
</g>
</g>
<path d="M133.687 24.3184H133.671L133.614 24.3266C133.59 24.4496 133.549 24.5808 133.517 24.712C133.5 24.7694 133.484 24.8268 133.468 24.876C133.468 24.8842 133.468 24.8842 133.46 24.8924C133.144 24.8842 132.738 24.8186 132.349 24.6136C132.122 24.4906 131.903 24.3184 131.717 24.0807C131.619 23.9577 131.636 23.7773 131.765 23.6789C131.887 23.5805 132.065 23.5969 132.163 23.7199C132.373 23.9905 132.649 24.138 132.909 24.22C133.087 24.2774 133.265 24.302 133.419 24.3102C133.517 24.3184 133.614 24.3184 133.687 24.3184Z" fill="#6B2D18"/>
<path d="M132.99 24.3429C133.192 24.3757 133.419 24.3757 133.598 24.3593C133.598 24.3675 133.598 24.3839 133.598 24.3921C133.687 25.2038 134.416 25.7859 135.219 25.6957C136.022 25.6055 136.597 24.8676 136.508 24.0559C136.427 23.3262 135.827 22.7769 135.114 22.7441C134.911 22.5555 134.879 22.3505 135.041 22.1292C136.078 22.1292 136.978 22.9163 137.108 23.9821C137.238 25.13 136.419 26.1713 135.284 26.3025C134.149 26.4337 133.119 25.6055 132.99 24.4577C132.998 24.4167 132.99 24.3839 132.99 24.3429Z" fill="#ECB46B"/>
<path d="M125.207 24.843C125.207 24.843 125.361 27.3273 123.326 27.6963C121.291 28.0652 120.837 26.0565 120.837 26.0565L125.207 24.843Z" fill="white"/>
<path d="M123.845 28.5737C124.234 28.4425 124.412 28.1391 124.428 28.1145C124.477 28.0243 124.453 27.9096 124.364 27.8604C124.274 27.8112 124.161 27.8358 124.112 27.926C124.104 27.9424 123.861 28.3277 123.326 28.2375C123.22 28.2211 123.131 28.2867 123.115 28.3933C123.099 28.4917 123.164 28.5901 123.269 28.6065C123.488 28.6557 123.683 28.6311 123.845 28.5737Z" fill="#6B2D18"/>
<path d="M123.974 21.4897C124.096 21.4733 124.201 21.3832 124.226 21.252C124.274 20.965 124.485 20.3501 124.793 20.2599C125.247 20.1287 125.799 20.4813 125.807 20.4895C125.936 20.5796 126.115 20.5386 126.204 20.4075C126.293 20.2763 126.253 20.0959 126.123 20.0057C126.09 19.9811 125.345 19.4974 124.639 19.7023C123.901 19.9155 123.683 21.0224 123.658 21.1536C123.634 21.3094 123.731 21.4651 123.893 21.4897C123.918 21.4897 123.942 21.4897 123.974 21.4897Z" fill="#131E07"/>
<path d="M120.975 22.031C120.999 22.031 121.032 22.0228 121.056 22.0064C121.202 21.9408 121.267 21.7686 121.21 21.621C121.169 21.5226 120.796 20.6945 120.156 20.6617C119.564 20.6289 119.086 21.1209 119.037 21.1783C118.924 21.293 118.932 21.4816 119.045 21.5882C119.159 21.6948 119.345 21.6948 119.451 21.58C119.548 21.4816 119.848 21.2275 120.132 21.2439C120.342 21.2521 120.594 21.6456 120.683 21.8506C120.723 21.9818 120.845 22.0474 120.975 22.031Z" fill="#131E07"/>
<path d="M133.573 9.53551C131.676 8.01868 129.179 6.93641 126.415 7.47755C122.54 8.23186 119.11 10.1012 117.4 12.5118C116.573 13.6678 116.143 14.9469 116.248 16.2915C116.581 20.4239 117.343 19.5056 117.343 19.5056C117.343 19.5056 117.31 19.4154 117.31 18.5217C117.31 17.9887 117.335 17.1606 117.383 15.8898C117.505 12.8643 126.763 11.2655 126.415 13.2579C126.415 13.2579 126.415 13.5038 126.496 13.8646C126.577 14.25 126.739 14.7829 127.071 15.2912C127.144 15.2912 127.217 15.2994 127.29 15.2994C128.247 15.3486 129.05 15.5126 129.722 15.7504C129.812 15.7996 131.352 16.6441 131.352 18.1691C131.352 19.7351 131.052 21.8259 132.041 21.3093C133.03 20.7846 133.209 19.4892 133.209 19.4892C133.671 18.7266 134.254 17.9477 135.227 17.4722C135.227 14.7255 134.96 11.9542 133.573 9.53551Z" fill="#131E07"/>
<path d="M134.352 11.2162C131.441 10.6259 127.234 13.3152 126.504 13.8727C126.585 14.2581 126.747 14.791 127.08 15.2994C127.152 15.2994 127.225 15.3076 127.298 15.3076C128.255 15.3568 129.058 15.5207 129.731 15.7585C129.82 15.8077 131.36 16.6522 131.36 18.1772C131.36 19.7433 131.384 28.6146 132.471 28.8524C135.316 29.4837 133.63 19.4235 133.63 19.4235C134.092 18.661 134.262 17.9477 135.235 17.4721C136.005 15.16 135.357 13.1266 134.352 11.2162Z" fill="#131E07"/>
<path d="M133.703 11.1344C133.703 11.1344 135.714 13.3646 135.243 17.4805C135.243 17.4805 136.549 16.9557 137.213 17.1033C137.886 17.2509 138.235 14.7994 137.311 12.7086C136.378 10.6179 132.982 8.37134 132.982 8.37134C132.982 8.37134 133.03 10.5031 133.703 11.1344Z" fill="#131E07"/>
<path d="M122.353 24.6545C122.312 24.6627 122.264 24.6545 122.223 24.6381L121.08 24.1543C120.999 24.1215 120.95 24.0477 120.934 23.9657C120.926 23.8838 120.959 23.7936 121.023 23.7444C121.794 23.1294 122.199 22.2931 122.296 21.1125C122.304 20.9813 122.418 20.8829 122.556 20.8911C122.685 20.8993 122.783 21.0223 122.775 21.1535C122.677 22.3259 122.312 23.195 121.623 23.8674L122.418 24.2035C122.539 24.2527 122.596 24.3921 122.548 24.5151C122.507 24.5889 122.434 24.6381 122.353 24.6545Z" fill="#6B2D18"/>
<path d="M122.742 21.6946C122.45 20.1367 123.472 18.6363 125.004 18.3411C126.544 18.046 128.028 19.0791 128.32 20.6287C128.612 22.1865 127.59 23.6869 126.058 23.9821C124.518 24.2773 123.034 23.2524 122.742 21.6946ZM123.18 21.6126C123.423 22.9244 124.68 23.7853 125.977 23.5393C127.274 23.2934 128.125 22.0225 127.882 20.7107C127.639 19.3988 126.382 18.5379 125.085 18.7839C123.796 19.0299 122.937 20.3007 123.18 21.6126Z" fill="white"/>
<path d="M116.127 22.9572C115.835 21.3994 116.856 19.899 118.389 19.6038C119.929 19.3087 121.413 20.3418 121.704 21.8914C121.996 23.4492 120.975 24.9496 119.443 25.2448C117.91 25.5399 116.419 24.5069 116.127 22.9572ZM116.565 22.8671C116.808 24.1789 118.064 25.048 119.362 24.7938C120.659 24.5479 121.51 23.277 121.267 21.9652C121.023 20.6533 119.767 19.7924 118.47 20.0384C117.181 20.2926 116.321 21.5634 116.565 22.8671Z" fill="white"/>
<path d="M133.881 18.9972L134.068 18.6364C133.946 18.5708 130.728 16.9966 127.379 19.0464L127.615 19.4317C130.752 17.505 133.857 18.9808 133.881 18.9972Z" fill="white"/>
<path d="M122.839 21.6372L123.034 21.2355C122.677 21.0551 121.85 20.8911 121.283 21.5716L121.623 21.8586C122.102 21.2929 122.807 21.629 122.839 21.6372Z" fill="white"/>
<path d="M123.756 17.5133C123.148 17.7018 122.726 16.8983 123.22 16.4966C123.48 16.2916 123.845 16.144 124.347 16.1604C126.528 16.2342 127.606 18.0052 127.606 18.0052C127.606 18.0052 125.499 17.2755 124.388 17.3821C124.137 17.4067 123.926 17.4559 123.756 17.5133Z" fill="#131E07"/>
<path d="M120.448 18.1937C121.08 18.1609 121.218 17.259 120.61 17.054C120.294 16.9474 119.905 16.931 119.434 17.1196C117.408 17.9313 117.529 19.4727 117.529 19.4727C117.529 19.4727 118.721 18.5544 119.799 18.2839C120.059 18.2265 120.27 18.2019 120.448 18.1937Z" fill="#131E07"/>
<path d="M40.5357 170.54C51.7293 170.54 60.8036 169.072 60.8036 167.261C60.8036 165.449 51.7293 163.981 40.5357 163.981C29.3421 163.981 20.2679 165.449 20.2679 167.261C20.2679 169.072 29.3421 170.54 40.5357 170.54Z" fill="#C2AC96"/>
<path d="M49.6319 143.688L49.486 144.254L49.3239 144.861L44.7352 162.333L44.5244 163.136L43.5354 166.916H30.7099L29.6802 162.997L29.5749 162.612L28.8533 159.832L28.7398 159.414L28.0912 156.946L27.994 156.594L25.7726 148.124L25.6915 147.812L24.6133 143.688H49.6319Z" fill="#FABD20"/>
<path d="M29.2668 155.437C28.9101 155.962 28.5209 156.479 28.0912 156.946L27.9939 156.594C28.3588 156.184 28.6912 155.733 28.9911 155.282C29.8262 154.052 30.6612 152.617 30.1991 151.076C29.8018 149.764 28.6587 148.747 27.3778 148.353C26.8508 148.19 26.3077 148.116 25.7645 148.116L25.6834 147.804C26.3887 147.796 27.0941 147.903 27.7751 148.157C29.0236 148.632 30.1099 149.682 30.4991 150.985C31.0017 152.617 30.1504 154.142 29.2668 155.437Z" fill="#ECB46B"/>
<path d="M43.811 143.688C42.7003 144.664 41.5653 145.607 40.3898 146.501C38.9224 147.616 37.309 148.96 35.493 149.42C33.977 149.805 32.3637 149.395 31.5043 148.001C30.7017 146.689 30.799 145.14 31.0828 143.68H31.3989C31.0584 145.435 30.9693 147.534 32.5258 148.69C34.05 149.829 36.0524 149.059 37.4793 148.165C39.0034 147.214 40.4384 146.107 41.8247 144.967C42.3355 144.549 42.8381 144.123 43.3327 143.688H43.811Z" fill="#ECB46B"/>
<path d="M49.486 144.254L49.3238 144.861C48.6834 145.558 48.1159 146.329 47.6294 147.148C45.8621 150.141 45.1 153.732 44.7514 157.168C44.5812 158.881 44.5487 160.628 44.7352 162.333L44.5244 163.145C44.4595 162.694 44.4028 162.243 44.3704 161.784C44.0866 158.168 44.5974 154.372 45.6675 150.912C46.4296 148.436 47.6538 146.066 49.486 144.254Z" fill="#ECB46B"/>
<path d="M43.1867 148.755C40.1709 154.314 39.0926 160.726 39.9682 166.916H39.6439C39.6115 166.695 39.5791 166.482 39.5547 166.26C38.5738 158.151 41.0708 149.895 46.2675 143.68H46.6728C45.3351 145.246 44.1677 146.943 43.1867 148.755Z" fill="#ECB46B"/>
<path d="M37.4874 157.397C37.3577 160.578 36.6281 163.743 36.3848 166.916H36.0768C36.1335 166.227 36.2065 165.547 36.2957 164.858C36.5713 162.694 36.9604 160.537 37.1307 158.365C37.2118 157.25 37.3009 156.077 37.1226 154.962C36.9604 153.937 36.3443 152.748 35.1769 152.74C34.0257 152.732 33.2068 153.667 32.5421 154.486C31.8448 155.347 31.1882 156.233 30.5558 157.151C29.9559 158.02 29.3884 158.914 28.8533 159.832L28.7398 159.414C29.4857 158.168 30.2883 156.954 31.1476 155.782C32.1448 154.429 33.6608 151.928 35.6795 152.51C37.6577 153.076 37.5523 155.782 37.4874 157.397Z" fill="#ECB46B"/>
<path d="M33.2879 166.416C33.2636 166.588 33.2312 166.752 33.1988 166.924H32.8745C33.1096 165.793 33.1988 164.629 33.1177 163.464C33.0853 162.923 33.0285 162.317 32.7123 161.849C32.2016 161.103 31.326 161.464 30.7342 161.907C30.3288 162.21 29.9721 162.579 29.6721 162.989L29.5749 162.604C29.8991 162.194 30.2802 161.833 30.7099 161.538C31.707 160.849 32.8177 160.98 33.2231 162.218C33.6609 163.506 33.4987 165.104 33.2879 166.416Z" fill="#ECB46B"/>
<path d="M49.6319 143.688C49.6319 144.131 44.0299 144.492 37.1226 144.492C30.2153 144.492 24.6133 144.131 24.6133 143.688C24.6133 143.246 30.2153 142.885 37.1226 142.885C44.0299 142.885 49.6319 143.246 49.6319 143.688Z" fill="#131E07"/>
<path d="M37.1388 124.06C37.1388 124.06 29.8991 120.231 29.6154 113.549C29.5749 112.581 29.6316 111.597 29.7694 110.605L32.988 112.45C32.9474 112.393 31.399 110.22 30.1586 108.58C31.8124 101.693 36.5794 95.3303 36.5794 95.3303C36.5794 95.3303 39.4088 99.0363 41.5086 103.923L39.4656 108.728L42.222 105.735C44.5406 112.089 45.0838 119.788 37.1388 124.06Z" fill="#7F784B"/>
<path d="M36.6281 105.186C37.0496 115.352 36.9686 125.552 36.9443 135.727C36.9361 138.384 36.928 141.032 36.9199 143.688C36.9199 143.902 37.2523 143.902 37.2523 143.688C37.2848 133.407 37.3415 123.125 37.1631 112.852C37.1226 110.302 37.0578 107.744 36.9524 105.194C36.9524 104.972 36.62 104.964 36.6281 105.186Z" fill="#131E07"/>
<path d="M32.9312 107.596C34.2365 109.039 35.5417 110.482 36.847 111.917C36.9929 112.081 37.228 111.835 37.0821 111.679C35.7768 110.236 34.4716 108.793 33.1663 107.358C33.0204 107.194 32.7853 107.432 32.9312 107.596Z" fill="#131E07"/>
<path d="M41.3545 110.638C39.8871 111.909 38.4197 113.18 36.9523 114.451C36.7902 114.59 37.0253 114.828 37.1874 114.688C38.6548 113.418 40.1222 112.147 41.5896 110.876C41.7518 110.736 41.5167 110.499 41.3545 110.638Z" fill="#131E07"/>
<path d="M32.5664 115.5C34.0419 116.763 35.5255 118.017 37.001 119.28C37.1631 119.419 37.3982 119.181 37.2361 119.042C35.7606 117.779 34.277 116.525 32.8015 115.262C32.6393 115.123 32.4042 115.361 32.5664 115.5Z" fill="#131E07"/>
<path d="M41.4599 134.719C41.4599 134.719 49.0806 135.055 52.4127 129.799C52.8991 129.037 53.3044 128.209 53.653 127.348L50.1994 127.307C50.2561 127.282 52.518 126.257 54.2773 125.527C56.1338 119.181 55.2339 111.778 55.2339 111.778C55.2339 111.778 51.229 113.426 47.2727 116.377L46.689 121.231L45.8459 117.501C41.0302 121.534 37.0253 127.495 41.4599 134.719Z" fill="#7F784B"/>
<path d="M50.3453 119.55C46.7701 125.216 43.1057 130.816 39.8223 136.654C38.8413 138.4 37.8928 140.163 36.9767 141.942C36.8794 142.131 37.1631 142.303 37.2685 142.114C40.333 136.145 43.8353 130.447 47.4268 124.79C48.4969 123.101 49.5752 121.412 50.6372 119.723C50.7507 119.534 50.4588 119.362 50.3453 119.55Z" fill="#131E07"/>
<path d="M52.4127 123.092C50.6453 123.65 48.878 124.207 47.1187 124.765C46.916 124.831 47.0052 125.159 47.2079 125.093C48.9752 124.535 50.7426 123.978 52.5019 123.42C52.7045 123.355 52.6154 123.027 52.4127 123.092Z" fill="#131E07"/>
<path d="M43.9731 121.961C44.5569 123.65 45.1406 125.339 45.7243 127.028C45.7973 127.233 46.1134 127.143 46.0486 126.938C45.4649 125.249 44.8811 123.56 44.2974 121.871C44.2245 121.666 43.9002 121.756 43.9731 121.961Z" fill="#131E07"/>
<path d="M49.0401 129.652C47.2241 129.971 45.4081 130.299 43.5921 130.619C43.3813 130.66 43.4705 130.98 43.6813 130.947C45.4973 130.627 47.3133 130.299 49.1293 129.979C49.34 129.938 49.2509 129.619 49.0401 129.652Z" fill="#131E07"/>
<path d="M33.4744 136.899C33.4744 136.899 26.1617 139.105 21.6704 134.825C21.0218 134.202 20.4219 133.505 19.8787 132.751L23.2188 131.865C23.1621 131.857 20.7218 131.422 18.8329 131.144C15.5008 125.445 14.5928 118.05 14.5928 118.05C14.5928 118.05 18.8734 118.665 23.4215 120.551L25.1564 125.109L25.0754 121.288C30.7098 124.011 36.0362 128.799 33.4744 136.899Z" fill="#7F784B"/>
<path d="M20.965 124.617C25.197 128.659 29.2586 132.857 33.1501 137.236C34.3824 138.629 35.6146 140.023 36.8388 141.425C36.9848 141.589 37.2199 141.351 37.0739 141.187C33.2149 136.785 29.3397 132.406 25.197 128.274C23.8836 126.962 22.5459 125.667 21.2001 124.388C21.0461 124.224 20.8029 124.461 20.965 124.617Z" fill="#131E07"/>
<path d="M20.049 128.668C21.8487 128.774 23.6566 128.873 25.4564 128.979C25.6672 128.996 25.6672 128.651 25.4564 128.643C23.6566 128.536 21.8487 128.438 20.049 128.331C19.8382 128.315 19.8382 128.651 20.049 128.668Z" fill="#131E07"/>
<path d="M27.6291 125.142C27.467 126.962 27.3048 128.782 27.1427 130.594C27.1265 130.808 27.4589 130.808 27.4751 130.594C27.6372 128.774 27.7994 126.954 27.9615 125.142C27.9858 124.929 27.6534 124.929 27.6291 125.142Z" fill="#131E07"/>
<path d="M24.9051 134.194C26.6482 134.063 28.3993 133.931 30.1424 133.8C30.3531 133.784 30.3531 133.448 30.1424 133.464C28.3993 133.595 26.6482 133.726 24.9051 133.858C24.6862 133.874 24.6862 134.21 24.9051 134.194Z" fill="#131E07"/>
<path d="M86.8356 24.5151C92.9832 24.5151 97.9667 19.475 97.9667 13.2578C97.9667 7.04055 92.9832 2.00049 86.8356 2.00049C80.6881 2.00049 75.7045 7.04055 75.7045 13.2578C75.7045 19.475 80.6881 24.5151 86.8356 24.5151Z" fill="#C2AC96"/>
<path d="M86.8356 23.0476C92.9832 23.0476 97.9667 18.0075 97.9667 11.7903C97.9667 5.57302 92.9832 0.532959 86.8356 0.532959C80.6881 0.532959 75.7045 5.57302 75.7045 11.7903C75.7045 18.0075 80.6881 23.0476 86.8356 23.0476Z" fill="#A5410F"/>
<path d="M86.8356 21.211C92.089 21.211 96.3534 16.8901 96.3534 11.5853C96.3534 6.27232 92.0809 1.95142 86.8356 1.95142C81.5822 1.95142 77.3178 6.27232 77.3178 11.5853C77.3097 16.8901 81.5822 21.211 86.8356 21.211Z" fill="white"/>
<path d="M77.3097 11.577C77.3097 11.8312 77.3178 12.0853 77.3421 12.3395C77.7313 7.38729 81.8416 3.46814 86.8356 3.46814C91.8296 3.46814 95.9399 7.37909 96.3291 12.3395C96.3453 12.0853 96.3615 11.8312 96.3615 11.577C96.3615 6.26402 92.089 1.94312 86.8356 1.94312C81.5822 1.95131 77.3097 6.27221 77.3097 11.577Z" fill="#C2AC96"/>
<path d="M86.8356 12.7413C86.9086 12.7413 86.9735 12.7085 87.014 12.6512L91.4567 6.60845C91.5297 6.51006 91.5134 6.36248 91.4081 6.28869C91.3108 6.2149 91.1648 6.2313 91.0919 6.33788L86.7627 12.233L81.8416 10.0439C81.7281 9.99466 81.5903 10.0439 81.5417 10.1586C81.493 10.2734 81.5417 10.4128 81.6552 10.462L86.7465 12.7167C86.7708 12.7331 86.8032 12.7413 86.8356 12.7413Z" fill="#131E07"/>
</g>
<defs>
<clipPath id="clip0">
<rect width="227" height="173" fill="white"/>
</clipPath>
</defs>
</svg>
