<svg width="219" height="186" viewBox="0 0 219 186" fill="none" xmlns="http://www.w3.org/2000/svg">
<path d="M31.6937 171.072V165.967C31.6937 158.11 31.7404 150.273 31.8337 142.681C32.3563 99.287 39.7851 62.7847 53.3268 37.1073C59.589 25.2425 66.9711 15.9963 75.2865 9.63373C83.6299 3.24276 92.5332 0 101.754 0C110.975 0 119.878 3.24276 128.231 9.63373C136.537 15.9963 143.928 25.2425 150.19 37.1073C163.732 62.7752 171.161 99.287 171.683 142.681C171.777 150.273 171.823 158.11 171.823 165.967V171.072H31.6937Z" fill="#D7C4AC"/>
<path d="M165.767 166.042H37.7319C37.7319 158.224 37.7786 150.604 37.8719 143.182C38.0026 131.904 38.6185 121.315 39.6358 111.445C43.9661 69.6106 55.7253 40.4258 70.4149 23.8906C71.9641 22.151 73.5413 20.5438 75.1558 19.0784C91.8986 3.85732 111.6 3.85732 128.343 19.0784C129.957 20.5438 131.534 22.1416 133.084 23.8906C140.802 32.5789 147.708 44.7558 153.158 60.4307C160.531 81.6268 165.225 109.214 165.627 143.182C165.72 150.604 165.767 158.224 165.767 166.042Z" fill="#F3E3CE"/>
<path d="M133.084 23.8905H70.4242C71.9734 22.151 73.5506 20.5438 75.1652 19.0784H128.352C129.957 20.5343 131.534 22.1415 133.084 23.8905Z" fill="#D7C4AC"/>
<path d="M175.015 166.042H28.4926V176.385H175.015V166.042Z" fill="#D7C4AC"/>
<path d="M61.6328 176.395L58.8984 186H47.8112L45.0767 176.395H61.6328Z" fill="#C2AC96"/>
<path d="M160.662 176.395L157.927 186H146.831L144.096 176.395H160.662Z" fill="#C2AC96"/>
<path d="M63.0234 145.754C62.6594 145.754 62.3608 145.461 62.3514 145.083C62.2208 137.983 67.8484 134.901 68.0817 134.768C68.4083 134.589 68.819 134.721 68.9963 135.052C69.1736 135.383 69.043 135.799 68.7163 135.969C68.707 135.978 67.4004 136.687 66.1405 138.162C64.47 140.119 63.6487 142.436 63.7047 145.045C63.714 145.423 63.4154 145.735 63.0421 145.744C63.0327 145.754 63.0327 145.754 63.0234 145.754Z" fill="#7F784B"/>
<path d="M60.8489 128.113C60.8489 128.113 53.0188 113.156 81.1007 102.672C82.5473 102.133 84.0125 103.428 83.6672 104.95C81.894 112.74 76.0891 130.939 60.8489 128.113Z" fill="#49421F"/>
<path d="M53.1494 144.402C53.1214 144.402 53.0841 144.402 53.0561 144.392C52.6921 144.336 52.4308 143.995 52.4868 143.617C54.428 130.013 64.442 123.688 65.5712 123.007C65.8885 122.818 66.3085 122.922 66.4951 123.244C66.6818 123.565 66.5885 123.981 66.2618 124.18L66.2432 124.189C65.7672 124.473 63.2754 126.033 60.5876 129.086C56.8825 133.303 54.6053 138.257 53.8027 143.816C53.7654 144.156 53.4761 144.402 53.1494 144.402Z" fill="#49421F"/>
<path d="M57.2745 144.402C57.2651 144.402 57.2558 144.402 57.2465 144.402C56.8732 144.383 56.5839 144.062 56.6025 143.684C56.8732 137.86 53.2241 132.556 53.1868 132.499C52.9721 132.187 53.0468 131.762 53.3454 131.545C53.6534 131.327 54.0734 131.403 54.288 131.705C54.4467 131.942 58.2357 137.453 57.9464 143.74C57.9278 144.118 57.6291 144.402 57.2745 144.402Z" fill="#49421F"/>
<path d="M59.2157 145.404C59.2063 145.404 59.2063 145.404 59.197 145.404C58.8237 145.395 58.5344 145.083 58.5437 144.705L59.1223 122.563C59.1317 122.185 59.4396 121.892 59.813 121.901C60.1863 121.911 60.4756 122.223 60.4662 122.601L59.8876 144.742C59.8783 145.111 59.5796 145.404 59.2157 145.404Z" fill="#7F784B"/>
<path d="M54.5213 132.887C54.5213 132.887 38.5998 138.011 33.4389 108.155C33.1682 106.614 34.6895 105.385 36.108 106.009C43.3502 109.157 59.9903 118.205 54.5213 132.887Z" fill="#49421F"/>
<path d="M64.8339 138.625C64.8339 138.625 79.1502 147.352 91.012 119.528C91.628 118.091 90.4241 116.541 88.9028 116.805C81.1381 118.176 62.8834 123.064 64.8339 138.625Z" fill="#7F784B"/>
<path d="M62.2115 130.221C61.1009 132.547 57.7598 132.291 56.9945 129.824C53.5974 118.838 47.9138 95.5621 59.6916 92.8866C72.9067 89.8896 68.483 117.08 62.2115 130.221Z" fill="#7F784B"/>
<path d="M59.4957 131.705C59.4863 131.705 59.4863 131.705 59.477 131.705C59.2717 131.696 59.113 131.526 59.1223 131.318L60.3636 100.195C60.3729 99.9866 60.5409 99.8259 60.7462 99.8354C60.9515 99.8448 61.1102 100.015 61.1009 100.223L59.8596 131.346C59.8596 131.554 59.6916 131.705 59.4957 131.705Z" fill="#49421F"/>
<path d="M65.2352 138.673C65.1326 138.673 65.0206 138.625 64.9459 138.54C64.8153 138.38 64.8433 138.143 65.0019 138.02L82.0153 123.915C82.174 123.783 82.4073 123.811 82.5286 123.972C82.6593 124.132 82.6313 124.369 82.4726 124.492L65.4592 138.597C65.3939 138.644 65.3192 138.673 65.2352 138.673Z" fill="#49421F"/>
<path d="M77.5077 142.946L76.5557 147.352L76.2478 148.789L75.5945 151.833L75.2865 153.27L72.972 164.01C72.72 165.201 71.6748 166.052 70.4708 166.052H49.771C48.5671 166.052 47.5312 165.201 47.2699 164.01L44.9554 153.27L44.6474 151.833L43.9941 148.789L43.6861 147.352L42.7342 142.946H77.5077Z" fill="#FABD20"/>
<path d="M76.5557 147.352L76.2478 148.789H43.9848L43.6768 147.352H76.5557Z" fill="#E5A501"/>
<path d="M75.5945 151.823L75.2865 153.26H44.9554L44.6474 151.823H75.5945Z" fill="#E5A501"/>
<path d="M158.17 153.572C158.17 153.572 153.205 155 147.736 147.815C143.779 142.625 136.779 131.535 127.111 131.346C127.111 131.346 138.581 126.307 148.697 131.44C158.823 136.574 164.217 149.848 158.17 153.572Z" fill="#7F784B"/>
<path d="M161.128 174.324H161.119C160.979 174.315 160.867 174.192 160.867 174.05C160.867 173.984 161.184 167.044 159.831 159.16C158.58 151.908 155.613 142.341 148.594 137.926C148.473 137.85 148.436 137.68 148.51 137.557C148.585 137.434 148.753 137.396 148.874 137.472C152.057 139.467 154.689 142.643 156.714 146.907C158.319 150.301 159.551 154.395 160.354 159.075C161.726 167.026 161.399 174.003 161.399 174.078C161.38 174.22 161.268 174.324 161.128 174.324Z" fill="#49421F"/>
<path d="M161.931 137.756C161.931 137.756 166.952 136.565 168.296 127.593C169.266 121.107 170.069 107.975 178.422 103.05C178.422 103.05 165.981 104.298 159.598 113.761C153.205 123.215 154.857 137.472 161.931 137.756Z" fill="#7F784B"/>
<path d="M168.846 174.91C168.744 174.91 168.641 174.844 168.604 174.74C168.566 174.646 165.263 165.4 162.845 153.989C161.427 147.286 160.587 141.15 160.354 135.77C160.064 129.02 160.727 123.423 162.323 119.131C162.369 118.989 162.528 118.923 162.659 118.98C162.799 119.027 162.864 119.188 162.808 119.32C159.243 128.897 161.138 143.4 163.349 153.875C165.757 165.248 169.061 174.466 169.089 174.561C169.136 174.702 169.07 174.854 168.93 174.901C168.902 174.91 168.874 174.91 168.846 174.91Z" fill="#49421F"/>
<path d="M46.9246 78.0908C46.9246 78.0908 50.2097 82.1183 58.7397 79.3482C64.9086 77.344 76.8824 72.2388 84.9458 77.637C84.9458 77.637 78.3196 66.8972 67.1111 65.3089C55.9119 63.7206 44.0314 71.5391 46.9246 78.0908Z" fill="#7F784B"/>
<path d="M32.8696 93.482L32.8789 93.4915C33.0003 93.5671 33.1682 93.5293 33.2429 93.4064C33.2802 93.3497 36.9013 87.4598 42.4356 81.74C47.5219 76.4835 55.324 70.31 63.574 70.7071C63.714 70.7165 63.8447 70.6031 63.8447 70.4518C63.854 70.31 63.742 70.1777 63.5927 70.1777C59.8503 69.998 55.9026 71.0947 51.8522 73.4488C48.6231 75.3207 45.3287 77.9867 42.0436 81.3808C36.4627 87.1383 32.8229 93.0755 32.7856 93.1322C32.7203 93.2457 32.7576 93.3969 32.8696 93.482Z" fill="#49421F"/>
<path d="M52.6922 62.8982C52.6922 62.8982 49.2204 59.0315 53.1495 50.8726C55.9866 44.9732 62.6781 33.6945 58.5531 24.8455C58.5531 24.8455 68.1004 33.0138 68.0537 44.4816C68.0164 55.9305 58.6744 66.7271 52.6922 62.8982Z" fill="#7F784B"/>
<path d="M26.1874 89.5305C26.2714 89.5966 26.3927 89.5966 26.4861 89.5305C26.5607 89.4737 34.4655 83.7635 42.8462 75.7558C47.7738 71.0477 51.8895 66.4814 55.1 62.1797C59.1223 56.7909 61.7075 51.7991 62.7994 47.3463C62.8367 47.2044 62.7434 47.0626 62.6034 47.0248C62.4634 46.987 62.3234 47.0721 62.2861 47.2233C59.8596 57.1596 50.1817 68.0129 42.4916 75.3682C34.1388 83.3475 26.2621 89.0483 26.1781 89.105C26.0568 89.1901 26.0288 89.3603 26.1128 89.4737C26.1408 89.4926 26.1688 89.5116 26.1874 89.5305Z" fill="#49421F"/>
<path d="M122.398 76.7958C122.024 78.0343 121.651 79.235 121.259 80.4451C120.876 81.6552 120.475 82.8559 120.065 84.0566C119.663 85.2572 119.253 86.4579 118.833 87.6491C118.413 88.8403 117.993 90.041 117.554 91.2322C116.677 93.6147 115.79 96.0065 114.866 98.3795C114.39 99.5707 113.933 100.753 113.438 101.944L112.701 103.731C112.458 104.326 112.188 104.922 111.936 105.517C111.432 106.709 110.881 107.909 110.34 109.1L109.472 110.916L109.257 111.369C109.22 111.445 109.183 111.521 109.136 111.606L109.005 111.852C108.828 112.183 108.669 112.523 108.483 112.844C107.064 115.463 105.384 117.836 103.564 120.011C101.745 122.194 99.7754 124.17 97.6849 125.976C96.6396 126.874 95.557 127.735 94.4558 128.548C93.9051 128.954 93.3358 129.351 92.7572 129.739C92.4679 129.937 92.1693 130.126 91.8706 130.315L91.404 130.599L90.872 130.921C88.4082 132.632 85.0485 131.989 83.3686 129.493C81.6794 126.997 82.314 123.594 84.7778 121.892C84.7591 121.901 84.7965 121.873 84.8058 121.854L84.8618 121.797L84.9925 121.665L85.2818 121.391L85.8697 120.824C86.271 120.436 86.663 120.039 87.055 119.632C87.8389 118.829 88.6042 117.997 89.3508 117.165C90.8347 115.482 92.2253 113.752 93.4665 111.975C94.6984 110.197 95.7997 108.373 96.6769 106.538C96.7889 106.312 96.8916 106.075 96.9942 105.848L97.0689 105.678C97.0969 105.621 97.1249 105.565 97.1529 105.489L97.3209 105.092L98.0115 103.485C98.4595 102.379 98.9168 101.282 99.3554 100.147C101.129 95.6378 102.846 90.9959 104.554 86.3445L107.12 79.3579L108.408 75.8599C108.837 74.697 109.276 73.5247 109.705 72.3902L109.715 72.3618C111.04 68.8544 114.922 67.1054 118.385 68.4573C121.688 69.7525 123.406 73.4207 122.398 76.7958Z" fill="#E8A36F"/>
<path d="M108.987 64.0327C108.987 64.0327 104.404 81.797 101.754 86.1364L112.197 97.0748C112.197 97.0653 112.897 72.4374 108.987 64.0327Z" fill="#131E07"/>
<path d="M148.473 154.641C148.398 155 148.408 156.173 148.305 156.513C148.305 156.522 148.296 156.541 148.296 156.551C148.156 157.014 147.997 157.449 147.829 157.874C146.327 161.609 134.698 162.157 123.256 160.862C114.381 159.85 105.608 157.732 101.763 155.123C98.1515 152.675 105.851 130.06 105.851 130.06L150.778 136.735C150.769 136.735 150.769 143.022 148.473 154.641Z" fill="#A5410F"/>
<path d="M121.8 166.005L122.426 160.758L122.594 159.292L106.178 151.616L105.151 151.134L100.97 149.177C100.933 149.517 100.895 149.857 100.867 150.198C100.737 151.474 100.597 152.75 100.475 154.017C100.438 154.405 100.401 154.783 100.354 155.161C99.9807 158.82 99.6261 162.441 99.2994 165.995H121.8V166.005Z" fill="#A5410F"/>
<path d="M119.701 166.005L120.27 161.561C120.307 161.268 120.102 160.994 119.813 160.956C119.523 160.919 119.253 161.127 119.215 161.42L118.627 166.005H119.701Z" fill="#731F07"/>
<path d="M110.797 141.906C110.741 142.19 109.696 147.711 106.178 151.625C105.468 152.419 104.656 153.138 103.732 153.743C103.014 154.216 102.258 154.584 101.465 154.858C101.101 154.991 100.727 155.095 100.354 155.18C100.391 154.802 100.429 154.424 100.475 154.036C100.653 153.989 100.83 153.941 101.007 153.875C101.763 153.62 102.482 153.28 103.163 152.835C103.9 152.353 104.563 151.776 105.16 151.143C108.669 147.418 109.743 141.774 109.752 141.708C109.808 141.415 110.079 141.226 110.377 141.273C110.657 141.33 110.844 141.604 110.797 141.906Z" fill="#731F07"/>
<path d="M119.57 158.517C119.561 158.753 119.747 158.961 119.99 158.971C120.233 158.98 120.438 158.801 120.457 158.555C120.531 156.929 120.634 155.255 120.737 153.592C120.755 153.298 120.774 153.005 120.792 152.712C121.138 147.267 121.586 141.916 121.922 138.134C121.95 137.832 121.978 137.529 122.006 137.245C122.08 136.413 122.146 135.685 122.202 135.061C121.903 135.014 121.614 134.967 121.324 134.92C121.268 135.544 121.203 136.281 121.119 137.122C121.091 137.406 121.063 137.699 121.035 138.011C120.709 141.755 120.261 147.059 119.915 152.476C119.897 152.778 119.878 153.072 119.859 153.374C119.757 155.095 119.654 156.825 119.57 158.517Z" fill="#731F07"/>
<path d="M118.31 152.769C118.45 152.835 119.075 153.128 119.859 153.374C120.139 153.459 120.429 153.535 120.736 153.601C121.016 153.658 121.296 153.696 121.576 153.714C122.118 153.743 122.631 153.686 123.07 153.478C123.611 153.213 123.956 152.741 124.078 152.098C124.404 150.415 125.076 143.476 125.533 138.569C125.561 138.266 125.589 137.973 125.617 137.69C125.692 136.905 125.757 136.187 125.813 135.581C125.524 135.544 125.226 135.506 124.927 135.468C124.871 136.083 124.806 136.801 124.731 137.595C124.703 137.879 124.675 138.172 124.647 138.474C124.19 143.372 123.518 150.301 123.2 151.928C123.126 152.306 122.958 152.542 122.668 152.684C122.202 152.911 121.492 152.864 120.792 152.712C120.494 152.646 120.195 152.561 119.915 152.466C119.411 152.296 118.963 152.107 118.693 151.984C118.469 151.88 118.207 151.965 118.095 152.183C117.993 152.4 118.086 152.656 118.31 152.769Z" fill="#731F07"/>
<path d="M147.428 166.005C147.708 162.989 147.969 160.143 148.203 157.619C148.231 157.26 148.268 156.9 148.296 156.551C148.296 156.532 148.305 156.522 148.305 156.513V156.503C148.333 156.154 148.37 155.804 148.398 155.473C148.884 150.103 149.201 146.595 149.201 146.595C147.157 145.735 143.518 146.274 139.598 147.361C139.252 147.456 138.907 147.56 138.553 147.664C137.899 147.862 137.237 148.07 136.583 148.288C136.238 148.401 135.893 148.524 135.547 148.638C129.183 150.84 123.256 153.705 123.256 153.705V166.014H147.428V166.005Z" fill="#A5410F"/>
<path d="M144.768 166.005C145.048 162.044 145.225 159.425 145.235 159.33C145.253 159.037 145.029 158.772 144.74 158.754C144.451 158.735 144.189 158.962 144.171 159.255C144.161 159.349 143.984 161.996 143.695 166.005H144.768Z" fill="#731F07"/>
<path d="M148.305 156.494V156.503C148.305 156.513 148.305 156.532 148.296 156.541C148.268 156.891 148.23 157.25 148.203 157.61C146.691 157.865 145.216 157.732 143.779 157.203C141.054 156.201 138.907 153.932 137.358 151.682C136.621 150.614 136.014 149.545 135.547 148.619C134.745 147.04 134.325 145.858 134.278 145.726C134.176 145.442 134.325 145.13 134.605 145.036C134.885 144.932 135.183 145.083 135.286 145.366C135.295 145.395 135.734 146.633 136.593 148.269C137.041 149.139 137.61 150.122 138.282 151.096C139.738 153.204 141.707 155.293 144.161 156.191C145.487 156.692 146.877 156.796 148.305 156.494Z" fill="#731F07"/>
<path d="M156.705 96.9235C156.714 97.2544 156.667 97.85 156.621 98.1714C156.154 101.518 155.687 102.52 155.529 104.978C155.454 106.056 155.137 107.408 155.025 108.495C154.931 109.46 154.754 110.641 154.53 112.041C154.297 113.497 154.017 115.179 153.727 117.089C153.634 117.722 153.531 118.375 153.438 119.056C153.41 119.245 153.382 119.424 153.354 119.623C153.298 119.982 153.251 120.351 153.205 120.729L153.195 122.922C152.692 126.704 152.44 130.353 152.085 133.237C152.066 133.426 152.038 133.615 152.02 133.794C151.917 134.589 151.805 135.307 151.674 135.959C151.544 136.602 151.404 137.17 151.236 137.633C151.217 137.642 151.208 137.652 151.189 137.652L151.18 137.661C151.161 137.671 151.133 137.68 151.114 137.699C151.086 137.708 151.068 137.718 151.04 137.727C151.03 137.737 151.021 137.737 151.012 137.737C150.993 137.746 150.965 137.756 150.956 137.765C150.946 137.775 150.928 137.775 150.918 137.784C150.881 137.794 150.862 137.803 150.853 137.812C150.853 137.812 150.853 137.812 150.844 137.812C150.834 137.822 150.816 137.822 150.797 137.831C150.629 137.907 150.358 138.03 150.2 138.096C150.19 138.106 150.172 138.106 150.153 138.115C148.669 138.767 147.148 139.316 145.599 139.76C143.825 140.289 142.034 140.696 140.223 140.989C139.887 141.046 139.551 141.093 139.215 141.14C139.187 141.14 139.159 141.15 139.131 141.15C138.011 141.31 136.901 141.424 135.781 141.5C135.361 141.528 134.941 141.556 134.521 141.566C133.018 141.632 131.516 141.632 130.032 141.556C129.855 141.556 129.677 141.547 129.491 141.528C127.829 141.433 126.187 141.263 124.572 141.017C124.404 140.989 124.227 140.961 124.059 140.932C124.031 140.932 124.003 140.923 123.975 140.923C123.714 140.876 123.443 140.838 123.182 140.781C122.314 140.63 121.455 140.45 120.606 140.242C120.317 140.176 120.018 140.1 119.729 140.025C116.555 139.212 113.588 138.115 110.975 136.801C110.788 136.706 110.592 136.602 110.405 136.508C110.265 136.442 110.135 136.366 110.004 136.29C109.967 136.271 109.939 136.253 109.911 136.234C109.052 135.761 108.231 135.269 107.456 134.749C107.419 134.721 107.381 134.702 107.344 134.674C106.327 133.984 105.394 133.256 104.554 132.49C104.778 131.072 105.03 129.568 105.291 128.094C105.347 127.772 105.403 127.451 105.459 127.139C105.618 126.25 105.776 125.38 105.926 124.567V124.558C106.262 122.856 106.588 121.088 106.906 119.32C106.915 119.292 106.915 119.264 106.915 119.264C107.018 118.687 107.12 118.11 107.223 117.533C107.288 117.174 107.344 116.824 107.409 116.475C107.988 113.099 108.501 109.885 108.884 107.351C108.931 107.058 108.968 106.784 109.005 106.51C109.099 105.886 109.183 105.319 109.257 104.808C109.416 103.702 109.547 102.624 109.677 101.575C109.799 100.544 109.911 99.5423 110.004 98.5685C110.116 97.4623 110.209 96.3751 110.275 95.3257C110.321 94.7585 110.359 94.2007 110.387 93.6618C110.405 93.4065 110.415 93.1607 110.433 92.9149C110.443 92.688 110.461 92.4517 110.471 92.2248C110.471 92.1681 110.471 92.1113 110.48 92.0641C110.489 91.8088 110.499 91.5441 110.508 91.2983C110.545 90.438 110.573 89.6154 110.583 88.8024C110.62 86.9872 110.601 85.2855 110.564 83.6877C110.555 83.4041 110.545 83.1299 110.536 82.8652C110.433 80.1046 110.228 77.6844 110.004 75.5761C109.976 75.3208 109.948 75.075 109.92 74.8292C109.388 70.244 108.763 67.143 108.837 65.0631C108.847 64.6944 108.884 64.3541 108.949 64.0516C109.052 63.5032 109.211 63.0021 109.397 62.5578C109.584 62.1135 109.808 61.7258 110.069 61.376C110.975 60.1565 112.281 59.4663 113.774 58.9463C113.942 58.8802 114.11 58.8234 114.288 58.7667C114.754 58.6154 115.24 58.4736 115.734 58.3318C115.912 58.2845 116.08 58.2373 116.266 58.1806C116.807 58.0293 117.358 57.8686 117.909 57.6889H117.918C118.338 57.5471 118.749 57.4053 119.159 57.2446C119.337 57.1784 119.505 57.1028 119.673 57.0272C119.841 56.9515 120.009 56.8759 120.167 56.8003C120.373 56.6963 120.587 56.5923 120.792 56.4694C121.875 55.8643 122.892 55.0512 123.751 53.9262C123.76 53.9168 123.77 53.9073 123.77 53.8978C123.872 53.7655 123.975 53.6237 124.068 53.4724H136.63C136.63 53.4724 137.367 54.0869 138.702 54.8433C138.851 54.9283 139.01 55.0229 139.178 55.108C139.271 55.1552 139.374 55.2025 139.467 55.2592C139.579 55.316 139.682 55.3727 139.803 55.4294C139.868 55.4578 139.943 55.4956 140.008 55.524C140.428 55.7319 140.895 55.9305 141.408 56.129C141.847 56.2992 142.314 56.4694 142.818 56.6206C142.976 56.6774 143.135 56.7152 143.303 56.7624C143.63 56.857 143.975 56.9515 144.329 57.0366C144.516 57.0839 144.703 57.1217 144.889 57.169C145.319 57.2635 145.767 57.3486 146.224 57.4242C147.12 57.566 147.96 57.8402 148.725 58.2467C148.893 58.3318 149.052 58.4264 149.21 58.5209C149.752 58.8518 150.265 59.2489 150.741 59.7027C151.002 59.9485 151.254 60.2226 151.488 60.5063C151.777 60.8466 152.048 61.2248 152.318 61.6218C152.654 62.1324 152.962 62.6902 153.251 63.2763C153.345 63.4749 153.438 63.6828 153.531 63.8908C154.707 66.5947 155.435 70.0833 155.697 74.2525C155.837 76.5121 155.977 78.7243 156.117 80.8704C156.135 81.1162 156.145 81.362 156.163 81.6078C156.21 82.4209 156.266 83.2339 156.313 84.0375C156.397 85.5218 156.481 86.9872 156.555 88.4431C156.565 88.7362 156.583 89.0387 156.593 89.3413C156.621 90.0125 156.639 90.6176 156.649 91.1943C156.677 92.6597 156.649 93.9171 156.667 95.581C156.714 95.7701 156.705 96.7438 156.705 96.9235Z" fill="#131E07"/>
<path d="M149.248 58.5114C148.473 59.5324 147.633 60.4967 146.719 61.4043C145.767 62.3497 144.74 63.2384 143.657 64.0326C142.64 64.77 141.362 65.5263 140.055 65.2994C137.647 64.874 137.358 61.8581 137.479 59.8728C137.582 58.1143 138.021 56.4126 138.739 54.8337C138.889 54.9188 139.047 55.0134 139.215 55.0985C138.581 56.5071 138.189 58.0103 138.058 59.5608C137.871 61.8014 138.329 65.6587 141.53 64.5904C142.79 64.1744 143.891 63.2006 144.88 62.3497C145.767 61.584 146.607 60.7709 147.391 59.9011C147.876 59.3623 148.333 58.8139 148.762 58.2372C148.93 58.3223 149.089 58.4168 149.248 58.5114Z" fill="#425045"/>
<path d="M148.184 136.829C148.296 136.829 148.408 136.754 148.436 136.631C156.789 105.678 151.646 73.6759 151.59 73.3544C151.562 73.2126 151.441 73.1086 151.292 73.137C151.152 73.1654 151.049 73.2977 151.077 73.4395C151.133 73.761 156.247 105.659 147.932 136.489C147.895 136.631 147.979 136.773 148.119 136.82C148.147 136.82 148.165 136.829 148.184 136.829Z" fill="#425045"/>
<path d="M114.82 33.6662C117.041 38.6958 121.24 42.553 126.448 44.1413C127.148 44.3493 127.708 44.5668 128.053 44.7653C129.967 45.8809 132.85 44.2264 134.567 41.5131C136.117 39.0739 135.071 36.4079 136.219 34.1578C139.066 28.5704 136.705 24.4484 136.705 24.4484C136.705 24.4484 135.594 21.338 129.817 20.3453C124.04 19.3527 121.455 21.9809 116.453 22.2267C111.451 22.4725 110.443 22.8507 110.275 25.4506C110.107 28.0504 114.372 31.5295 114.372 31.5295C114.372 31.5295 114.11 32.6262 114.642 33.3731C114.708 33.4204 114.764 33.5244 114.82 33.6662Z" fill="#131E07"/>
<path d="M136.817 53.6049C136.35 55.8645 133.018 58.5967 131.152 59.2207C128.249 60.2039 125.272 59.9203 122.911 58.6723L122.519 54.2195L122.435 53.3119L122.286 51.5912L132.356 43.5836L132.934 43.1203L133.326 42.8083L133.494 43.1865L133.69 43.6214L133.653 43.8105C134.801 48.0743 134.987 50.6269 136.817 53.6049Z" fill="#E8A36F"/>
<path d="M122.752 57.2636C126.943 55.855 129.052 52.3286 129.864 50.1353C127.904 52.045 125.468 53.3875 123.163 53.3591C122.911 53.3591 122.678 53.3402 122.444 53.3118L122.752 57.2636Z" fill="#131E07"/>
<path d="M116.35 38.9983C116.35 38.9983 115.062 39.2346 114.96 40.9364C114.857 42.6381 115.94 45.3704 117.582 44.8787C119.234 44.3777 116.35 38.9983 116.35 38.9983Z" fill="#B05935"/>
<path d="M133.933 44.2074C133.914 44.2074 133.886 44.2169 133.868 44.2169C133.84 44.3681 133.812 44.51 133.774 44.6612C133.756 44.7274 133.746 44.7936 133.728 44.8598C133.662 45.1245 133.569 45.3986 133.476 45.6728C131.936 49.8893 127.027 54.3422 122.743 54.1342C122.491 54.1248 122.248 54.0964 122.015 54.0586C117.853 53.3779 116.481 48.717 116.695 45.115C116.705 44.9827 116.714 44.8408 116.723 44.7085C116.723 44.7085 116.695 44.4627 116.649 44.0372C116.611 43.6969 116.546 43.2336 116.481 42.6948C116.257 41.0687 115.902 38.6579 115.398 36.2943C114.53 32.1534 116.845 25.7908 125.142 23.7487C131.749 22.1132 135.351 25.6301 136.565 29.355C136.873 30.3004 137.022 31.2648 137.031 32.1629C137.041 33.269 136.854 34.5548 136.565 35.8594C137.358 35.8594 138.245 36.2471 138.795 37.6368C139.803 40.1894 136.901 43.6969 133.933 44.2074Z" fill="#E8A36F"/>
<path d="M136.565 35.8407C135.062 36.8995 134.11 37.0886 134.11 37.0886L132.449 39.3198L130.489 38.1758C130.489 38.1758 131.254 35.6043 129.939 34.8385C128.623 34.0727 129.173 32.3994 129.173 32.3994C129.173 32.3994 134.484 29.2511 136.565 29.3268C136.873 30.2722 137.022 31.2365 137.031 32.1347C137.041 33.2502 136.854 34.536 136.565 35.8407Z" fill="#B05935"/>
<path d="M115.165 31.4349C115.165 31.4349 120.811 27.0482 124.302 28.3528C127.783 29.6481 129.164 32.4087 129.164 32.4087C129.164 32.4087 135.706 33.2595 137.125 31.5011C138.543 29.7426 136.21 23.1815 131.17 22.1888C126.131 21.1961 118.823 23.2193 115.165 31.4349Z" fill="#131E07"/>
<path d="M117.918 40.6434C118.03 41.2391 118.357 41.6645 118.665 41.6078C118.963 41.551 119.122 41.0216 119.019 40.4355C118.907 39.8398 118.581 39.4144 118.273 39.4711C117.974 39.5279 117.815 40.0573 117.918 40.6434Z" fill="#131E07"/>
<path d="M119.785 39.4711C119.813 39.4616 119.841 39.4333 119.859 39.4049C119.897 39.3293 119.869 39.2347 119.794 39.1874C119.729 39.1496 118.217 38.3366 117.069 39.3576C117.003 39.4143 116.994 39.5183 117.05 39.5845C117.106 39.6507 117.209 39.6602 117.274 39.6034C118.263 38.7242 119.635 39.4616 119.645 39.4711C119.691 39.49 119.747 39.49 119.785 39.4711Z" fill="#131E07"/>
<g opacity="0.5">
<g opacity="0.5">
<g opacity="0.5">
<g opacity="0.5">
<g opacity="0.5">
<g opacity="0.5">
<g opacity="0.5">
<path opacity="0.5" d="M124.526 42.2316C124.582 42.6287 125.599 42.8178 126.793 42.6476C127.997 42.4869 128.921 42.0236 128.865 41.6266C128.809 41.2295 127.792 41.0404 126.597 41.2106C125.403 41.3808 124.47 41.8346 124.526 42.2316Z" fill="#B05935"/>
</g>
</g>
</g>
</g>
</g>
</g>
</g>
<g opacity="0.5">
<g opacity="0.5">
<g opacity="0.5">
<g opacity="0.5">
<g opacity="0.5">
<g opacity="0.5">
<g opacity="0.5">
<path opacity="0.5" d="M116.649 44.0279C117.47 43.8105 118.03 43.4701 117.993 43.1581C117.946 42.8462 117.321 42.6665 116.481 42.6854C116.555 43.2243 116.611 43.6876 116.649 44.0279Z" fill="#B05935"/>
</g>
</g>
</g>
</g>
</g>
</g>
</g>
<path d="M131.702 43.9901C131.917 44.2548 132.169 44.4344 132.421 44.5668C132.888 44.8032 133.373 44.8599 133.728 44.8504C133.746 44.7842 133.756 44.7181 133.774 44.6613C133.812 44.5101 133.84 44.3683 133.868 44.217C133.886 44.217 133.914 44.2075 133.933 44.2075C133.84 44.217 133.728 44.217 133.597 44.217C133.429 44.2075 133.233 44.1886 133.028 44.1319C132.729 44.0468 132.43 43.8861 132.188 43.593C132.076 43.4607 131.88 43.4418 131.749 43.5552C131.609 43.6592 131.59 43.8577 131.702 43.9901Z" fill="#B05935"/>
<path d="M122.015 54.0492C122.248 54.087 122.491 54.1154 122.743 54.1248C127.027 54.3328 131.936 49.88 133.476 45.6634C133.345 45.1624 133.046 44.718 132.421 44.5668L132.44 39.3197L130.48 38.1758C130.48 38.1758 129.341 42.9785 127.755 43.3566C126.168 43.7348 122.454 43.5079 120.97 44.5857C120.97 44.5857 118.273 43.905 116.695 45.0962C116.481 48.7076 117.853 53.3591 122.015 54.0492Z" fill="#131E07"/>
<path d="M124.068 44.5383C124.068 44.5383 124.33 47.3557 122.043 47.8473C119.757 48.3389 119.159 46.0793 119.159 46.0793L124.068 44.5383Z" fill="white"/>
<path d="M122.659 48.8305C123.098 48.6698 123.284 48.3105 123.303 48.2916C123.359 48.1876 123.322 48.0552 123.219 47.9985C123.116 47.9418 122.986 47.9796 122.939 48.0836C122.93 48.1025 122.668 48.5469 122.062 48.4712C121.95 48.4523 121.838 48.5374 121.828 48.6508C121.81 48.7643 121.894 48.8777 122.006 48.8872C122.267 48.9345 122.482 48.8967 122.659 48.8305Z" fill="#693B1E"/>
<path d="M134.39 41.9762C134.511 41.9384 134.605 41.825 134.605 41.6831C134.689 39.4236 137.125 38.0717 137.143 38.0528C137.293 37.9677 137.358 37.7786 137.274 37.6179C137.19 37.4666 137.003 37.4004 136.854 37.4855C136.742 37.5517 134.073 39.0265 133.98 41.6548C133.97 41.8344 134.11 41.9762 134.278 41.9857C134.325 41.9951 134.362 41.9857 134.39 41.9762Z" fill="#B05935"/>
<path d="M136.901 40.3313C136.938 40.3219 136.975 40.303 137.003 40.2746C137.134 40.1612 137.153 39.9626 137.041 39.8303C137.013 39.7925 136.275 38.9321 135.025 39.1874C134.857 39.2252 134.745 39.3859 134.773 39.5656C134.81 39.7357 134.969 39.8492 135.137 39.8208C136.033 39.6412 136.546 40.2463 136.555 40.2557C136.649 40.3313 136.789 40.3692 136.901 40.3313Z" fill="#B05935"/>
<path d="M120.671 43.886C120.746 43.8577 120.811 43.8104 120.849 43.7348C120.933 43.5835 120.877 43.3849 120.727 43.2999L118.898 42.2599L120.335 41.6076C120.419 41.5698 120.485 41.4941 120.513 41.409L121.642 37.514C121.688 37.3438 121.595 37.1641 121.427 37.1169C121.259 37.0696 121.082 37.1642 121.035 37.3343L119.943 41.0876L118.077 41.9385C117.965 41.9857 117.899 42.0992 117.89 42.2126C117.881 42.3355 117.946 42.449 118.049 42.5057L120.419 43.8577C120.503 43.9049 120.587 43.9144 120.671 43.886Z" fill="#B05935"/>
<path d="M125.748 36.6914C125.879 36.6442 126 36.578 126.103 36.4645C126.439 36.1147 126.429 35.5664 126.084 35.2261C126 35.1504 124.059 33.2785 121.754 34.3846C121.324 34.5926 121.138 35.1126 121.343 35.557C121.548 35.9918 122.062 36.1809 122.491 35.9729C123.723 35.3773 124.862 36.474 124.871 36.4835C125.114 36.7198 125.45 36.786 125.748 36.6914Z" fill="#131E07"/>
<path d="M116.826 37.8259C117.069 37.7502 117.265 37.5612 117.367 37.3059C117.629 36.6157 118.823 36.4456 119.131 36.4361C119.607 36.4267 119.99 36.0296 119.981 35.538C119.971 35.0558 119.579 34.6682 119.103 34.6777C118.133 34.6966 116.341 35.1409 115.762 36.6725C115.594 37.1263 115.818 37.6273 116.257 37.807C116.443 37.8921 116.649 37.8921 116.826 37.8259Z" fill="#131E07"/>
<path d="M123.014 39.745C123.126 40.3406 123.452 40.7661 123.76 40.7093C124.059 40.6526 124.218 40.1232 124.115 39.537C124.003 38.9414 123.676 38.516 123.368 38.5727C123.07 38.62 122.911 39.1494 123.014 39.745Z" fill="#131E07"/>
<path d="M125.282 38.743C125.31 38.7335 125.338 38.7146 125.356 38.6863C125.403 38.6106 125.394 38.5161 125.319 38.4594C125.263 38.4121 123.863 37.41 122.594 38.2797C122.519 38.327 122.5 38.431 122.547 38.4972C122.594 38.5728 122.696 38.5917 122.762 38.5445C123.854 37.7976 125.114 38.7052 125.132 38.7146C125.188 38.7524 125.244 38.7619 125.282 38.743Z" fill="#131E07"/>
<path d="M113.942 69.2799C113.046 71.6339 111.684 73.7138 110.041 75.5574C110.013 75.3021 109.985 75.0563 109.957 74.8105C111.311 73.2128 112.458 71.4448 113.27 69.4784C114.633 66.1789 114.913 62.3122 113.802 58.9182C113.97 58.8614 114.148 58.7953 114.316 58.7385C115.426 62.1231 115.212 65.952 113.942 69.2799Z" fill="#425045"/>
<path d="M153.578 63.9006C151.73 67.011 149.042 69.6014 145.879 71.3031C145.412 71.5489 144.927 71.7853 144.441 71.9933C139.738 74.0259 134.53 74.0448 129.519 74.4986C124.488 74.9524 119.729 76.0964 115.529 79.065C113.681 80.3602 112.029 81.9201 110.611 83.6786C110.601 83.3949 110.592 83.1208 110.583 82.8561C111.889 81.315 113.382 79.9347 115.025 78.7435C118.767 76.0396 123.042 74.6877 127.577 74.1394C132.766 73.5154 138.151 73.7139 143.135 71.9082C144.189 71.53 145.207 71.0479 146.177 70.4901C149.117 68.7789 151.6 66.2736 153.298 63.2766C153.391 63.4846 153.485 63.6831 153.578 63.9006Z" fill="#425045"/>
<path d="M110.079 70.9911C110.097 71.1707 110.247 72.6456 110.415 74.7255C110.443 75.028 110.461 75.3495 110.489 75.6803C110.741 78.9893 110.993 83.4138 110.919 86.7795C110.909 87.082 110.517 87.1954 110.359 86.9402L110.349 86.9307C110.443 83.5745 110.172 79.0365 109.92 75.6709C109.92 75.652 109.911 75.6331 109.92 75.6142C109.724 72.9954 109.537 71.1046 109.528 71.0573C109.509 70.8966 109.621 70.7548 109.78 70.7453C109.92 70.7169 110.06 70.8398 110.079 70.9911Z" fill="#425045"/>
<path d="M128.063 89.5401C127.745 91.6294 125.421 93.1043 123.975 94.3522C118.954 98.6917 113.942 103.022 108.921 107.352C108.968 107.059 109.005 106.784 109.052 106.51C109.948 105.735 110.844 104.96 111.749 104.184C115.324 101.093 118.907 98.0015 122.482 94.9195C123.415 94.1159 124.339 93.3217 125.272 92.5087C126 91.8753 126.747 91.204 127.213 90.3342C127.867 89.1052 127.447 87.7911 126.065 87.4507C125.207 87.2427 124.302 87.3846 123.462 87.5547C118.842 88.4907 114.437 90.3342 110.489 92.9057C110.499 92.6694 110.517 92.4425 110.527 92.2156C111.796 91.4025 113.121 90.6651 114.474 90.0128C116.294 89.1336 118.189 88.3961 120.121 87.8194C121.903 87.29 124.022 86.5526 125.907 86.8551C127.223 87.0726 128.287 88.0842 128.063 89.5401Z" fill="#425045"/>
<path d="M147.344 73.449C143.508 74.886 139.672 76.8336 137.115 80.1898C134.838 83.1678 133.681 87.2236 135.165 90.8351C135.771 92.3194 136.761 93.643 138.058 94.5695C139.43 95.5622 140.97 95.8174 142.603 95.9687C144.479 96.1483 147.036 96.4508 147.101 98.9184C147.157 100.904 145.748 102.653 145.533 104.61C145.151 108.06 148.856 110.982 152.057 109.942C152.393 109.828 152.253 109.29 151.908 109.403C150.209 109.951 148.408 109.299 147.223 107.994C145.944 106.576 145.86 104.903 146.448 103.154C146.952 101.66 147.867 100.072 147.605 98.4268C147.419 97.2544 146.607 96.3658 145.533 95.9403C144.077 95.3636 142.454 95.496 140.942 95.2029C139.224 94.872 137.741 93.8604 136.705 92.4423C134.353 89.2468 134.745 85.0586 136.705 81.7686C139.094 77.779 143.322 75.5478 147.503 73.9784C147.82 73.865 147.68 73.3261 147.344 73.449Z" fill="#425045"/>
<path d="M153.447 119.037C153.419 119.226 153.391 119.415 153.363 119.604C151.656 119.746 149.92 119.547 148.268 119.018C146.373 118.413 144.6 117.364 143.228 115.908C141.511 114.083 140.41 111.767 139.29 109.536C138.142 107.238 136.882 104.903 134.894 103.239C132.561 101.292 129.743 101.046 126.952 102.076C124.339 103.05 121.912 104.695 119.617 106.293C117.414 107.824 115.305 109.498 113.308 111.294C111.152 113.232 109.127 115.321 107.251 117.534C107.316 117.174 107.372 116.825 107.437 116.475C109.491 114.121 111.703 111.918 114.073 109.885C116.033 108.203 118.086 106.643 120.223 105.206C122.426 103.731 124.731 102.209 127.26 101.377C129.575 100.62 132.001 100.696 134.11 101.991C136.061 103.192 137.498 105.102 138.618 107.087C139.906 109.356 140.867 111.805 142.351 113.951C143.751 115.974 145.645 117.496 147.941 118.328C149.705 118.971 151.6 119.207 153.447 119.037Z" fill="#425045"/>
<path d="M150.816 137.822C150.648 137.898 150.377 138.021 150.218 138.087C146.159 135.279 141.306 133.483 136.397 134.853C133.84 135.562 130.881 137.349 130.19 140.148C130.069 140.649 130.032 141.121 130.069 141.575C129.892 141.566 129.705 141.556 129.528 141.547C129.351 139.41 130.722 137.501 132.337 136.253C134.213 134.806 136.527 134.05 138.87 133.88C143.228 133.539 147.297 135.317 150.816 137.822Z" fill="#425045"/>
<path d="M124.61 141.027C124.432 140.999 124.264 140.97 124.096 140.942C124.068 140.932 124.04 140.932 124.012 140.923C125.589 138.446 127.129 135.232 126.541 132.358C126.14 130.401 124.498 129.219 122.575 129.143C120.699 129.067 118.889 129.928 117.283 130.826C114.68 132.282 112.365 134.229 110.452 136.517C110.312 136.451 110.181 136.376 110.041 136.3C110.004 136.281 109.976 136.262 109.948 136.243C110.181 135.96 110.424 135.685 110.667 135.411C113.102 132.707 116.229 130.334 119.654 129.096C122.771 127.971 126.672 128.841 127.148 132.67C127.493 135.515 126.177 138.531 124.61 141.027Z" fill="#425045"/>
<path d="M152.094 133.227C152.066 133.417 152.048 133.596 152.029 133.785C150.34 133.596 148.669 133.18 147.092 132.518C142.65 130.675 139.756 126.969 136.686 123.405C135.155 121.627 133.541 119.859 131.572 118.574C129.22 117.033 126.523 116.446 123.751 116.844C120.69 117.288 117.834 118.687 115.193 120.275C112.832 121.693 110.583 123.31 108.492 125.116C107.391 126.061 106.336 127.063 105.328 128.103C105.384 127.782 105.44 127.46 105.496 127.149C106.719 125.919 108.016 124.766 109.369 123.669C113.541 120.313 118.627 116.881 124.031 116.248C129.136 115.643 133.046 118.479 136.313 122.138C139.654 125.882 142.594 130.079 147.372 132.027C148.884 132.651 150.48 133.048 152.094 133.227Z" fill="#425045"/>
<path d="M152.664 87.2049C152.738 87.2049 152.813 87.1765 152.878 87.1198C153.009 86.9969 153.027 86.7889 152.906 86.6565C152.878 86.6187 149.854 83.1018 146.868 79.7456C146.747 79.6132 146.541 79.6038 146.411 79.7172C146.28 79.8401 146.271 80.0481 146.383 80.1805C149.369 83.5367 152.384 87.0536 152.412 87.082C152.486 87.1671 152.57 87.2049 152.664 87.2049Z" fill="#425045"/>
<path d="M146.392 82.4494L148.548 82.4683C148.725 82.4683 148.874 82.3265 148.874 82.1374C148.874 81.9578 148.734 81.8065 148.557 81.8065L146.401 81.7876C146.224 81.7876 146.075 81.9294 146.075 82.1185C146.065 82.3076 146.215 82.4494 146.392 82.4494Z" fill="#425045"/>
<path d="M107.941 107.247C107.941 107.247 104.423 105.385 102.277 105.754C100.13 106.113 99.2807 108.788 99.2807 108.788L107.941 107.247Z" fill="#E27D5B"/>
<path d="M103.014 128.633C95.3797 133.416 86.7377 136.687 76.9197 138.2L76.2944 135.638L76.0984 134.844L70.2095 110.66L70.0136 109.866L69.5003 107.758L89.4628 100.44L90.2561 102.095L90.6107 102.823L101.558 125.617L101.913 126.354L103.014 128.633Z" fill="#A5410F"/>
<path d="M90.62 102.832L70.2189 110.67L70.0229 109.876L90.2654 102.095L90.62 102.832Z" fill="#731F07"/>
<path d="M101.913 126.354C92.0573 132.783 80.8674 134.976 76.2944 135.638L76.0984 134.844C80.5594 134.21 91.7493 132.055 101.558 125.617L101.913 126.354Z" fill="#731F07"/>
<path d="M75.0999 124.34C75.0065 124.35 74.9879 124.35 74.9412 124.35H74.8292H74.6146C74.4746 124.35 74.3439 124.34 74.2226 124.331C73.9613 124.312 73.7186 124.284 73.4666 124.255C72.972 124.189 72.496 124.095 72.0201 123.972C71.0775 123.726 70.1722 123.386 69.3229 122.96C68.8936 122.743 68.483 122.506 68.0817 122.251C67.979 122.185 67.8857 122.119 67.7831 122.053L67.6337 121.949L67.4751 121.835C67.2698 121.684 67.0738 121.533 66.8871 121.381C66.1592 120.767 65.5712 120.143 64.9926 119.576C63.8633 118.441 62.7901 117.515 61.5488 117.07C60.9329 116.843 60.2703 116.739 59.5797 116.749C58.889 116.758 58.1611 116.881 57.4425 117.089C56.9478 116.512 56.7052 115.813 56.7239 114.99C57.5545 114.65 58.4411 114.385 59.3837 114.262C60.3263 114.139 61.3249 114.177 62.2861 114.404C63.2474 114.631 64.1527 115.038 64.9646 115.52C65.7765 116.002 66.4951 116.55 67.1578 117.08C67.8204 117.609 68.4457 118.12 69.0243 118.507C69.3136 118.706 69.5656 118.838 69.9016 118.999C70.2189 119.15 70.5362 119.292 70.8628 119.405C71.5161 119.642 72.1787 119.812 72.8507 119.897C73.1867 119.944 73.5133 119.973 73.8399 119.973C73.9986 119.973 74.1666 119.973 74.3159 119.963C74.3906 119.963 74.4652 119.954 74.5399 119.944L74.6332 119.935L74.6706 119.925C74.6706 119.925 74.7079 119.916 74.6612 119.925L75.0999 124.34Z" fill="#A5410F"/>
<path d="M56.7239 114.981C56.7239 114.981 50.163 116.522 49.7244 122.166C49.2857 127.81 51.7869 140.223 47.0459 142.946H56.1452C56.1452 142.946 55.6039 135.648 53.3548 128.415C52.0949 124.369 52.9068 118.952 57.4425 117.089C57.4425 117.08 56.5839 116.427 56.7239 114.981Z" fill="white"/>
<path d="M101.11 123.688C99.4487 124.302 97.9462 124.567 97.6102 124.624L97.1809 121.939C99.598 121.542 103.2 120.256 103.658 118.658C103.91 117.76 103.238 114.792 101.483 111.048C99.6634 107.162 97.8808 104.988 97.2462 104.742C96.0983 104.298 92.5706 106.548 90.1254 108.845L88.3056 106.85C88.3709 106.793 89.8454 105.404 91.6933 104.137C94.4838 102.218 96.6116 101.584 98.1982 102.199C100.522 103.097 102.967 107.871 103.9 109.876C104.843 111.889 106.952 116.843 106.224 119.405C105.618 121.58 103.228 122.913 101.11 123.688Z" fill="#A5410F"/>
<path d="M116.033 105.442C116.285 105.356 116.583 105.262 116.863 105.177C117.143 105.082 117.433 104.997 117.722 104.912C118.291 104.742 118.87 104.553 119.439 104.392L122.864 103.362C125.123 102.671 127.381 101.981 129.472 101.253C130.508 100.885 131.525 100.516 132.356 100.138C132.561 100.043 132.757 99.9581 132.916 99.8731C133.084 99.788 133.233 99.7029 133.317 99.6462C133.345 99.6273 133.364 99.6178 133.373 99.6083C133.392 99.5989 133.401 99.5894 133.401 99.58C133.401 99.58 133.42 99.5705 133.401 99.5705C133.392 99.5705 133.392 99.5705 133.382 99.58H133.373L133.392 99.5611L133.569 99.4287L133.756 99.2775C134.754 98.436 135.911 97.0368 136.938 95.3824C137.974 93.7279 138.926 91.8371 139.775 89.8423C140.624 87.8474 141.39 85.7581 142.062 83.6215C142.743 81.4943 143.322 79.3009 143.816 77.1359C143.937 76.5971 144.049 76.0487 144.152 75.5098C144.264 74.971 144.367 74.4321 144.451 73.9026C144.628 72.8438 144.777 71.8038 144.88 70.8584L144.899 70.7071C145.291 66.8971 148.65 64.1271 152.412 64.5147C155.986 64.8834 158.627 68.0033 158.552 71.5769C158.515 73.1085 158.394 74.5361 158.226 75.9353C158.142 76.6349 158.048 77.325 157.936 78.0057C157.824 78.6864 157.703 79.3671 157.582 80.0384C157.078 82.7233 156.406 85.3421 155.622 87.942C154.819 90.5419 153.886 93.1039 152.766 95.6565C151.637 98.1997 150.321 100.724 148.669 103.22C146.999 105.697 145.011 108.183 142.127 110.386L141.576 110.793L140.998 111.18L140.923 111.227L140.82 111.294L140.606 111.426C140.456 111.521 140.335 111.577 140.204 111.653C140.074 111.729 139.952 111.785 139.831 111.851C139.71 111.918 139.588 111.974 139.476 112.022C139.019 112.239 138.609 112.419 138.207 112.57C137.806 112.731 137.433 112.863 137.069 112.986C135.603 113.478 134.269 113.808 132.953 114.111C130.33 114.688 127.792 115.085 125.263 115.387L123.368 115.595C122.734 115.652 122.108 115.709 121.474 115.756C120.839 115.813 120.214 115.841 119.579 115.879C119.262 115.898 118.945 115.917 118.627 115.926L117.647 115.954C114.726 116.049 112.29 113.723 112.197 110.774C112.122 108.363 113.625 106.273 115.772 105.536L116.033 105.442Z" fill="#E8A36F"/>
<path d="M145.235 63.2763L138.991 89.5304C138.991 89.5304 150.778 95.5053 155.211 95.3068C155.211 95.3068 159.644 78.384 159.644 72.4941C159.644 66.6136 155.501 60.8182 150.769 59.6932C146.037 58.5587 145.235 63.2763 145.235 63.2763Z" fill="#131E07"/>
<path d="M114.745 115.425C114.745 115.425 105.832 122.884 103.648 118.753C102.734 117.032 95.6504 111.53 99.3461 107.937C101.623 105.735 111.861 105.498 115.846 105.356C115.856 105.375 117.694 112.872 114.745 115.425Z" fill="#E8A36F"/>
<path d="M138.758 104.184C138.637 104.184 138.515 104.127 138.45 104.014C136.705 101.442 133.662 100.147 133.625 100.138C133.429 100.053 133.336 99.8353 133.42 99.6368C133.504 99.4382 133.718 99.3437 133.914 99.4288C134.045 99.4855 137.199 100.828 139.066 103.589C139.187 103.759 139.14 104.005 138.973 104.118C138.907 104.165 138.833 104.184 138.758 104.184Z" fill="#E27D5B"/>
<path d="M139.514 101.433C139.448 101.433 139.392 101.414 139.327 101.386C139.299 101.376 136.957 100.081 134.623 100.554C134.418 100.592 134.222 100.459 134.176 100.251C134.138 100.043 134.269 99.8448 134.474 99.7975C137.078 99.2681 139.579 100.658 139.691 100.715C139.878 100.819 139.943 101.055 139.84 101.235C139.775 101.357 139.654 101.433 139.514 101.433Z" fill="#E27D5B"/>
<path d="M7.40079 46.1833C7.08348 46.1833 6.82217 45.9186 6.82217 45.5972V37.9961C6.82217 37.6746 7.08348 37.4099 7.40079 37.4099C7.7181 37.4099 7.97941 37.6746 7.97941 37.9961V45.5972C7.97941 45.9186 7.7181 46.1833 7.40079 46.1833Z" fill="#C2AC96"/>
<path d="M26.8314 55.0608C26.5141 55.0608 26.2527 54.796 26.2527 54.4746V46.8735C26.2527 46.5521 26.5141 46.2874 26.8314 46.2874C27.1487 46.2874 27.41 46.5521 27.41 46.8735V54.4746C27.41 54.796 27.1487 55.0608 26.8314 55.0608Z" fill="#C2AC96"/>
<path d="M38.4412 46.8168H0.578624C0.261314 46.8168 0 46.5521 0 46.2307C0 45.9092 0.261314 45.6445 0.578624 45.6445H38.4412C38.7585 45.6445 39.0198 45.9092 39.0198 46.2307C39.0198 46.5521 38.7585 46.8168 38.4412 46.8168Z" fill="#C2AC96"/>
<path d="M37.9372 55.0607H10.8445C10.5272 55.0607 10.2659 54.796 10.2659 54.4746C10.2659 54.1531 10.5272 53.8884 10.8445 53.8884H37.9372C38.2545 53.8884 38.5159 54.1531 38.5159 54.4746C38.5159 54.796 38.2545 55.0607 37.9372 55.0607Z" fill="#C2AC96"/>
<path d="M187.372 124.596C187.054 124.596 186.793 124.331 186.793 124.01V116.408C186.793 116.087 187.054 115.822 187.372 115.822C187.689 115.822 187.95 116.087 187.95 116.408V124.01C187.95 124.331 187.689 124.596 187.372 124.596Z" fill="#C2AC96"/>
<path d="M206.802 133.473C206.485 133.473 206.224 133.208 206.224 132.887V125.286C206.224 124.964 206.485 124.7 206.802 124.7C207.12 124.7 207.381 124.964 207.381 125.286V132.887C207.39 133.208 207.129 133.473 206.802 133.473Z" fill="#C2AC96"/>
<path d="M218.412 125.229H180.549C180.232 125.229 179.971 124.964 179.971 124.643C179.971 124.322 180.232 124.057 180.549 124.057H218.412C218.729 124.057 218.991 124.322 218.991 124.643C219 124.964 218.739 125.229 218.412 125.229Z" fill="#C2AC96"/>
<path d="M217.908 133.473H190.815C190.498 133.473 190.237 133.208 190.237 132.887C190.237 132.565 190.498 132.301 190.815 132.301H217.908C218.225 132.301 218.487 132.565 218.487 132.887C218.487 133.208 218.235 133.473 217.908 133.473Z" fill="#C2AC96"/>
</svg>
