<svg width="214" height="185" viewBox="0 0 214 185" fill="none" xmlns="http://www.w3.org/2000/svg">
<path d="M112.28 83.3204C112.15 83.3204 112.021 83.2713 111.923 83.173C111.826 83.0748 111.777 82.9519 111.769 82.8127L111.185 0.90895C111.185 0.630533 111.404 0.39306 111.688 0.39306L165.513 0C165.642 0 165.772 0.0491324 165.869 0.147397C165.967 0.245662 166.015 0.368493 166.024 0.507702L166.616 82.4033C166.616 82.6817 166.397 82.9192 166.113 82.9192L112.28 83.3204C112.288 83.3204 112.288 83.3204 112.28 83.3204ZM112.199 1.41665L112.783 82.2886L165.594 81.8956L165.01 1.02359L112.199 1.41665Z" fill="#C2AC96"/>
<path d="M111.769 12.4796C111.493 12.4796 111.266 12.2504 111.266 11.9719C111.266 11.6935 111.493 11.456 111.769 11.456L165.228 11.063C165.504 11.063 165.731 11.2923 165.731 11.5707C165.731 11.8491 165.504 12.0866 165.228 12.0866L111.769 12.4796C111.777 12.4796 111.769 12.4796 111.769 12.4796Z" fill="#C2AC96"/>
<path d="M138.454 82.9111C138.179 82.9111 137.951 82.6818 137.951 82.4034L137.44 11.7837C137.44 11.5053 137.659 11.2678 137.943 11.2678C138.219 11.2678 138.446 11.4971 138.446 11.7755L138.957 82.3952C138.965 82.6736 138.738 82.9111 138.454 82.9111Z" fill="#C2AC96"/>
<path d="M175.595 53.5624C175.319 53.5624 175.092 53.3331 175.092 53.0547L175.043 46.3645C175.043 46.0861 175.27 45.8486 175.546 45.8486C175.822 45.8486 176.049 46.0779 176.049 46.3563L176.097 53.0465C176.106 53.3331 175.878 53.5624 175.595 53.5624C175.603 53.5624 175.603 53.5624 175.595 53.5624Z" fill="#C2AC96"/>
<path d="M192.814 61.2516C192.538 61.2516 192.311 61.0223 192.311 60.7439L192.263 54.0537C192.263 53.7753 192.49 53.5378 192.765 53.5378C193.041 53.5378 193.268 53.7671 193.268 54.0455L193.317 60.7357C193.325 61.0223 193.098 61.2516 192.814 61.2516C192.822 61.2516 192.814 61.2516 192.814 61.2516Z" fill="#C2AC96"/>
<path d="M169.584 54.1684C169.309 54.1684 169.081 53.9391 169.081 53.6607C169.081 53.3823 169.309 53.1448 169.584 53.1448L203.018 52.8992C203.294 52.8992 203.521 53.1285 203.521 53.4069C203.521 53.6853 203.294 53.9228 203.018 53.9228L169.584 54.1684Z" fill="#C2AC96"/>
<path d="M178.701 61.358C178.425 61.358 178.198 61.1288 178.198 60.8503C178.198 60.5719 178.425 60.3344 178.701 60.3344L202.628 60.1543C202.904 60.1543 203.131 60.3836 203.131 60.662C203.131 60.9404 202.904 61.1779 202.628 61.1779L178.701 61.358Z" fill="#C2AC96"/>
<path d="M35.9154 100.378C35.6396 100.378 35.4125 100.148 35.4125 99.8699L35.3638 93.1797C35.3638 92.9013 35.5909 92.6638 35.8667 92.6638C36.1425 92.6638 36.3696 92.8931 36.3696 93.1715L36.4183 99.8617C36.4264 100.148 36.1993 100.378 35.9154 100.378Z" fill="#C2AC96"/>
<path d="M18.8093 108.321C18.5336 108.321 18.3064 108.091 18.3064 107.813L18.2578 101.123C18.2578 100.844 18.4768 100.607 18.7607 100.607C19.0364 100.607 19.2635 100.836 19.2635 101.115L19.3122 107.805C19.3203 108.091 19.0932 108.321 18.8093 108.321Z" fill="#C2AC96"/>
<path d="M8.5084 101.139C8.23263 101.139 8.00552 100.91 8.00552 100.631C8.00552 100.353 8.22452 100.116 8.5084 100.116L41.9418 99.8699C42.2176 99.8699 42.4447 100.099 42.4447 100.378C42.4447 100.656 42.2257 100.893 41.9418 100.893L8.5084 101.139Z" fill="#C2AC96"/>
<path d="M9.00319 108.394C8.72741 108.394 8.50031 108.165 8.50031 107.887C8.50031 107.608 8.7193 107.371 9.00319 107.371L32.9306 107.191C33.2063 107.191 33.4334 107.42 33.4334 107.698C33.4334 107.977 33.2063 108.214 32.9306 108.214L9.00319 108.394Z" fill="#C2AC96"/>
<path d="M213.692 178.67C213.716 181.7 165.894 184.509 106.886 184.943C47.8791 185.377 0.0243422 183.272 9.28168e-06 180.242C-0.0243236 177.213 47.798 174.404 106.805 173.97C165.813 173.536 213.667 175.64 213.692 178.67Z" fill="#C2AC96"/>
<path d="M132.079 158.952L132.225 179.268L140.579 179.211L145.227 161.9L146.947 155.488L132.079 158.952Z" fill="#731F07"/>
<g opacity="0.5">
<g opacity="0.5">
<g opacity="0.5">
<g opacity="0.5">
<g opacity="0.5">
<path opacity="0.5" d="M132.079 158.952L132.12 164.135C135.908 163.685 141.301 162.678 145.227 161.9L146.947 155.488L132.079 158.952Z" fill="#731F07"/>
</g>
</g>
</g>
</g>
</g>
<path d="M85.0274 159.295L85.1734 179.62L76.8272 179.677L71.9281 162.44L70.1113 156.053L85.0274 159.295Z" fill="#731F07"/>
<g opacity="0.5">
<g opacity="0.5">
<g opacity="0.5">
<g opacity="0.5">
<g opacity="0.5">
<path opacity="0.5" d="M85.0274 159.295L85.0679 164.479C81.2801 164.078 75.8701 163.152 71.9281 162.44L70.1113 156.053L85.0274 159.295Z" fill="#731F07"/>
</g>
</g>
</g>
</g>
</g>
<path d="M52.7457 45.1526C53.5406 52.9892 60.2646 81.4779 63.6469 95.5215C63.9875 96.9218 64.2876 98.1747 64.5472 99.2556C65.1879 101.884 65.5691 103.456 65.5691 103.456L135.81 101.45C135.81 101.45 135.997 100.541 136.329 98.9281C138.754 87.038 148.755 36.8984 145.981 32.0342C145.787 31.6903 145.503 31.3546 145.13 31.027C144.87 30.7896 144.562 30.5603 144.221 30.331C143.881 30.1017 143.491 29.8806 143.07 29.6595C137.968 26.99 127.35 24.8118 115.298 23.5671C101.087 22.0931 84.8895 21.9293 73.4125 23.7882C73.088 23.8373 72.7636 23.8946 72.4391 23.952C71.6037 24.0994 70.8007 24.2467 70.0302 24.4023C54.9843 27.3912 52.0968 31.5593 52.0482 37.4224V37.4306C52.04 39.7317 52.4537 42.2947 52.7457 45.1526Z" fill="#A5410F"/>
<path d="M135.267 86.26C135.413 86.26 135.543 86.1536 135.567 86.0062C135.591 85.8834 137.724 73.5102 139.436 60.9405C140.442 53.5542 141.099 47.5355 141.399 43.0726C141.91 35.3998 141.253 33.8767 140.717 33.3935C137.611 30.6176 121.632 28.5949 112.386 27.6369C107.957 27.1783 103.447 27.0555 98.9783 27.2766C88.2961 27.8006 69.9166 29.119 66.8182 32.0424C66.2991 32.5337 65.6827 34.0814 66.4127 41.7379C66.8345 46.2007 67.6699 52.1867 68.8784 59.5484C70.9386 72.069 73.4287 84.3766 73.453 84.4995C73.4855 84.6632 73.6477 84.7697 73.8099 84.7369C73.9721 84.7042 74.0776 84.5404 74.0451 84.3766C74.0208 84.2538 71.5388 71.9625 69.4787 59.4501C65.8774 37.5616 66.5263 33.1724 67.2319 32.501C69.3894 30.462 80.9638 28.7833 99.0026 27.8989C103.439 27.6778 107.917 27.8006 112.313 28.2592C121.486 29.2091 137.327 31.2071 140.304 33.8685C141.034 34.5154 141.804 38.8882 138.828 60.8668C137.124 73.4283 134.991 85.7933 134.967 85.9161C134.934 86.0799 135.048 86.2437 135.218 86.2764C135.226 86.26 135.251 86.26 135.267 86.26Z" fill="#731F07"/>
<path d="M52.0564 37.4224C52.1051 39.5761 52.4701 41.9426 52.7377 44.5548C53.5326 52.3915 60.2566 80.8801 63.6389 94.9238L75.1159 94.8419C75.1159 94.8419 62.1221 48.3217 61.2948 36.8656C60.7514 29.3893 66.1938 25.9173 70.0384 24.4023C54.9926 27.3912 52.1051 31.5593 52.0564 37.4224Z" fill="#731F07"/>
<path d="M136.305 99.829C136.305 99.829 148.115 98.5843 149.112 102.892C149.891 106.257 149.096 136.424 148.715 149.535C148.609 152.974 151.253 155.856 154.66 156.028C155.414 156.069 156.201 156.094 157.02 156.118C160.938 156.233 165.375 156.143 168.416 155.422C175.035 153.858 175.181 144.359 177.419 128.588C179.658 112.816 181.597 84.7372 167.013 79.4473C166.51 79.2671 166.007 79.1033 165.504 78.9478C151.464 74.7715 138.17 83.3287 138.17 83.3287C134.999 92.3773 136.305 99.829 136.305 99.829Z" fill="#731F07"/>
<path d="M157.012 156.118C160.93 156.233 165.367 156.143 168.408 155.422C175.027 153.858 175.173 144.359 177.411 128.588C179.65 112.816 181.589 84.7372 167.005 79.4473C166.502 79.2671 165.999 79.1033 165.496 78.9478C163.023 79.5619 160.76 81.2406 159.559 84.8928C156.299 94.8175 161.838 129.145 157.012 156.118Z" fill="#A5410F"/>
<path d="M164.734 153.703C167.751 153.678 170.095 152.401 171.515 150.001C173.729 146.243 176.738 114.086 176.868 112.718C176.884 112.554 176.762 112.399 176.592 112.382C176.43 112.366 176.276 112.489 176.26 112.661C176.227 112.996 173.137 146.046 170.987 149.69C167.727 155.218 160.427 152.335 160.354 152.311C160.2 152.245 160.021 152.327 159.965 152.483C159.9 152.638 159.981 152.818 160.135 152.876C160.216 152.908 162.106 153.662 164.458 153.703C164.555 153.703 164.645 153.703 164.734 153.703Z" fill="#731F07"/>
<path d="M163.201 90.4366C163.201 90.4366 163.396 85.0402 167.435 85.4415C171.466 85.8427 171.726 94.7357 168.132 95.9149C162.868 97.6345 163.201 90.4366 163.201 90.4366Z" fill="#731F07"/>
<path d="M172.472 88.7578C172.496 88.7578 172.512 88.7578 172.537 88.7496C172.699 88.7087 172.804 88.5449 172.764 88.3811C172.715 88.1846 171.604 83.4597 167.694 82.5508C166.113 82.1823 164.71 82.4771 163.525 83.4351C161.814 84.819 161.035 87.3002 161.043 88.5367C161.043 88.7087 161.181 88.8397 161.344 88.8397C161.514 88.8397 161.644 88.7005 161.644 88.5367C161.636 87.5705 162.293 85.2121 163.899 83.9183C164.929 83.083 166.161 82.8292 167.548 83.1567C171.093 83.9838 172.155 88.4876 172.164 88.5285C172.204 88.6677 172.326 88.7578 172.472 88.7578Z" fill="#731F07"/>
<path d="M54.0921 98.4204C54.8708 101.622 55.3412 103.53 55.3412 103.53L140.774 101.09C140.774 101.09 141.001 99.9845 141.399 98.0274C126.239 95.538 74.2803 96.7991 54.0921 98.4204Z" fill="#731F07"/>
<path d="M54.887 114.708C54.9194 116.337 54.9681 118.057 55.033 119.842C55.6251 135.917 57.7258 157.101 64.6445 158.903C75.9106 161.85 145.697 162.874 149.291 156.118C150.361 154.104 151.018 150.714 151.432 146.57C151.513 145.76 151.586 144.916 151.643 144.056C152.186 136.564 152.129 127.245 152.316 119.13C152.365 116.952 152.438 114.855 152.543 112.906C153.306 98.5925 141.772 98.4778 141.772 98.4778C125.461 98.2158 101.517 99.1575 82.8861 100.091C73.1772 100.574 64.9121 101.057 59.932 101.36C56.7282 101.557 54.887 101.671 54.887 101.671C54.887 101.671 54.7329 107.142 54.887 114.708Z" fill="#A5410F"/>
<path d="M109.774 147.086C111.177 147.078 112.629 147.054 114.13 147.013C136.646 146.382 149.566 141.174 149.696 141.117C149.883 141.035 149.98 140.822 149.899 140.625C149.818 140.437 149.607 140.339 149.412 140.421C149.283 140.47 136.475 145.637 114.105 146.259C91.7108 146.882 79.3821 143.753 79.2605 143.729C79.0577 143.68 78.863 143.794 78.8063 143.999C78.7576 144.196 78.8711 144.4 79.0739 144.458C79.1875 144.482 90.0237 147.234 109.774 147.086Z" fill="#731F07"/>
<path d="M54.8867 114.708C54.9191 116.338 54.9678 118.057 55.0327 119.842C55.6248 135.917 57.7255 157.101 64.6442 158.903C75.9103 161.851 145.697 162.874 149.29 156.118C150.361 154.104 151.018 150.714 151.432 146.57C151.513 145.76 151.586 144.916 151.643 144.056C148.349 146.308 138.438 149.305 131.617 150.059C103.179 153.211 81.004 149.363 81.004 149.363C84.6296 133.78 83.4535 108.951 82.8776 100.075C73.1688 100.558 64.9037 101.041 59.9236 101.344L54.8867 114.708Z" fill="#731F07"/>
<path d="M138.535 102.04C137.708 102.801 136.784 103.522 135.753 104.202C135.721 104.226 135.689 104.243 135.656 104.267C134.934 104.742 134.172 105.184 133.369 105.61C133.077 105.766 132.785 105.913 132.493 106.052C130.149 107.199 127.496 108.149 124.649 108.836C124.39 108.902 124.13 108.959 123.863 109.017C123.108 109.189 122.338 109.336 121.559 109.467C121.3 109.516 121.032 109.557 120.772 109.598C117.763 110.057 114.608 110.229 111.429 110.057C111.056 110.032 110.682 110.016 110.309 109.983C109.312 109.909 108.314 109.795 107.324 109.639C107.3 109.639 107.276 109.631 107.251 109.631C106.951 109.582 106.651 109.541 106.351 109.483C104.737 109.205 103.139 108.82 101.566 108.337C100.195 107.919 98.8404 107.42 97.5183 106.83C97.2912 106.732 97.0722 106.625 96.8451 106.527C96.5693 106.396 96.2854 106.265 96.0178 106.126C95.9934 106.118 95.9691 106.101 95.9366 106.085C94.3469 101.54 92.7085 85.3757 92.2705 80.5361C92.1813 79.5699 92.1164 78.6118 92.0596 77.6455C92.0515 77.4817 92.0434 77.3098 92.0353 77.146C92.019 76.8921 92.0109 76.6465 92.0028 76.3926C91.9298 74.6321 91.9136 72.8633 91.9298 71.07C91.9298 70.7833 91.9379 70.4886 91.946 70.202C91.946 70.0627 91.946 69.9153 91.9542 69.7761C91.9542 69.7598 91.9542 69.7352 91.9542 69.7188C91.9623 69.5141 91.9623 69.3094 91.9704 69.0965C92.019 67.2458 92.1002 65.3706 92.2056 63.4626C92.2137 63.2825 92.2218 63.1105 92.238 62.9303C92.2462 62.8403 92.2461 62.7502 92.2543 62.6601C92.3191 61.5464 92.3922 60.4164 92.4733 59.2782C92.4814 59.1062 92.4976 58.9261 92.5138 58.7459C92.5219 58.6804 92.5219 58.6149 92.53 58.5494C92.7247 55.8143 92.9437 52.9974 93.1546 50.0658C93.2681 48.4608 93.4709 46.9705 93.7386 45.603C93.771 45.431 93.8035 45.2672 93.844 45.1035C94.3956 42.5731 95.2067 40.485 96.2935 38.88C96.3827 38.7408 96.4801 38.6016 96.5774 38.4706C96.9343 37.9874 97.3155 37.5616 97.7211 37.185C98.1185 36.8165 98.5403 36.4889 98.9945 36.2105C99.838 35.6946 100.763 35.3589 101.777 35.2033C102.734 35.0641 103.602 34.8675 104.396 34.6464C104.542 34.6055 104.688 34.5646 104.826 34.5236C105.272 34.3926 105.694 34.2452 106.092 34.0978C106.294 34.0159 106.497 33.9422 106.684 33.8603C106.838 33.7948 106.992 33.7293 107.138 33.6638C107.203 33.631 107.276 33.6065 107.341 33.5737C107.397 33.5492 107.462 33.5164 107.519 33.4918C107.625 33.4427 107.722 33.3936 107.819 33.3444C109.45 32.5256 110.374 31.7886 110.374 31.7886L121.584 31.9032C121.673 32.0342 121.762 32.1571 121.843 32.2799C121.851 32.2881 121.859 32.2963 121.859 32.3045C122.297 32.8859 122.784 33.3772 123.303 33.7948C123.433 33.9013 123.571 33.9995 123.709 34.0978C123.96 34.278 124.22 34.4417 124.487 34.5973C124.674 34.7038 124.86 34.802 125.039 34.8921C125.185 34.9658 125.331 35.0313 125.477 35.0968C125.517 35.1132 125.558 35.1378 125.598 35.1541C125.712 35.2033 125.817 35.2524 125.931 35.2934C125.988 35.3179 126.053 35.3425 126.109 35.3671C126.418 35.4899 126.726 35.5963 127.034 35.7028C127.042 35.7028 127.042 35.7028 127.05 35.7028C129.5 36.5217 131.998 36.9311 133.555 38.5197C133.718 38.6835 133.864 38.8636 134.01 39.052C134.237 39.3632 134.439 39.7153 134.602 40.1083C134.764 40.5014 134.894 40.9436 134.983 41.4349C135.04 41.7133 135.064 42.0081 135.072 42.3357C135.129 44.825 134.05 48.9276 133.547 55.6833C133.531 55.8798 133.515 56.0682 133.507 56.2729C133.434 57.362 133.377 58.5084 133.336 59.7367C133.328 59.9169 133.328 60.1052 133.32 60.2854C133.304 60.9405 133.296 61.6201 133.296 62.3162C133.296 62.6765 133.296 63.0368 133.296 63.4053C133.304 64.1259 133.32 64.8629 133.336 65.6244C133.344 65.8537 133.353 66.083 133.361 66.3123C133.377 66.7791 133.393 67.254 133.426 67.7371C133.442 67.991 133.458 68.253 133.466 68.5069C133.474 68.687 133.49 68.8672 133.499 69.0473C133.499 69.1047 133.507 69.162 133.507 69.2111C133.563 70.0955 133.628 71.0126 133.718 71.9462C133.718 71.9953 133.726 72.0444 133.734 72.0935C133.742 72.2164 133.758 72.3474 133.766 72.4702C133.831 73.2154 133.912 73.9851 134.001 74.7631C134.107 75.6966 134.212 76.6547 134.342 77.6373C134.853 81.5515 136.013 89.3145 137.254 95.8409C137.449 96.8727 137.643 97.8635 137.838 98.8052C137.862 98.9035 137.879 99.0017 137.903 99.1C138.097 100.165 138.316 101.155 138.535 102.04Z" fill="white"/>
<path d="M141.017 58.8034C138.3 58.8034 135.689 57.8617 133.482 56.2812C133.474 56.2731 133.458 56.2649 133.45 56.2567C133.036 55.9619 132.647 55.6425 132.274 55.315C128.713 52.1705 126.815 47.593 126.028 42.9172C125.647 40.6408 125.274 37.7829 125.582 35.1543C125.696 35.2034 125.801 35.2526 125.915 35.2935C125.972 35.3181 126.036 35.3426 126.093 35.3672C126.045 35.7848 126.028 36.2025 126.02 36.6201C125.923 41.6807 126.904 47.159 129.63 51.4663C130.368 52.6373 131.276 53.7264 132.298 54.6681C132.687 55.0284 133.101 55.3723 133.523 55.6835C135.689 57.2966 138.268 58.2957 141.017 58.2957C141.334 58.3039 141.334 58.8034 141.017 58.8034Z" fill="#D7C4AC"/>
<path d="M123.684 34.106C122.614 35.9566 121.389 37.709 119.978 39.314C115.76 44.129 109.806 47.5519 103.374 47.8467C103.237 47.8549 103.091 47.8631 102.953 47.8631C99.7326 47.945 96.5126 47.1588 93.7062 45.6112C92.1651 44.7677 90.7619 43.6868 89.5452 42.4012C89.6588 42.2865 89.7804 42.1719 89.894 42.0573C91.0295 43.2692 92.3597 44.301 93.8035 45.1117C94.4767 45.4883 95.1742 45.8241 95.8961 46.1107C98.3456 47.0851 100.909 47.4536 103.464 47.3144C107.073 47.1261 110.65 45.9223 113.765 43.9816C117.78 41.4922 120.927 37.8728 123.279 33.7866C123.417 33.9095 123.546 34.0077 123.684 34.106Z" fill="#D7C4AC"/>
<path d="M117.123 42.8188C114.746 42.7942 112.572 41.2793 110.78 38.3887C109.247 35.9157 108.533 33.3363 108.509 33.2298C108.444 33.0005 108.582 32.7712 108.801 32.7057C109.028 32.6402 109.255 32.7794 109.32 33.0005C109.344 33.0988 112.126 43.0072 118.136 41.8771C119.71 41.5823 120.87 40.8453 121.6 39.6825C123.19 37.144 122.241 33.3936 122.232 33.3608C122.176 33.1315 122.305 32.9023 122.533 32.8449C122.76 32.7876 122.987 32.9186 123.044 33.1479C123.084 33.3199 124.09 37.2914 122.305 40.1411C121.446 41.5086 120.099 42.3766 118.291 42.7124C117.893 42.7942 117.504 42.827 117.123 42.8188Z" fill="#D5963D"/>
<path d="M137.935 61.964C137.692 62.0377 137.457 62.1114 137.213 62.1769C136.905 62.0377 136.605 61.8903 136.297 61.7429C135.299 61.268 134.302 60.7848 133.304 60.2935C132.874 60.0806 132.452 59.8759 132.022 59.663C124.601 56.019 116.985 52.3914 108.582 52.4896C105.986 52.5224 103.456 52.9482 101.063 53.7998C99.1243 54.4877 97.275 55.454 95.5554 56.6987C94.4605 57.493 93.4304 58.3692 92.449 59.3027C91.4432 60.2444 90.4942 61.2516 89.5777 62.2834C89.3992 62.2343 89.2289 62.1769 89.0586 62.1196C90.1535 60.8831 91.2891 59.6876 92.5057 58.5739C93.7548 57.4275 95.085 56.3629 96.5288 55.4376C98.1023 54.4304 99.7488 53.6688 101.436 53.1284C108.703 50.7946 116.79 52.4569 123.838 55.3393C126.62 56.4776 129.346 57.796 132.063 59.1225C132.485 59.3272 132.898 59.532 133.32 59.7367C134.845 60.4982 136.386 61.2434 137.935 61.964Z" fill="#D7C4AC"/>
<path d="M133.482 69.0555C132.298 68.8098 131.122 68.5559 129.938 68.3021C125.72 67.4095 121.502 66.4842 117.277 65.6407C113.172 64.8219 108.979 64.175 104.778 64.4534C100.162 64.7564 95.2716 66.4924 91.938 69.7842C91.938 69.7679 91.938 69.7433 91.938 69.7269C91.9461 69.5222 91.9461 69.3175 91.9542 69.1046C92.8302 68.2857 93.7954 67.5651 94.8255 66.9346C101.785 62.7255 110.115 63.6918 117.715 65.2231C122.971 66.2795 128.21 67.3931 133.45 68.515C133.458 68.6951 133.466 68.8753 133.482 69.0555Z" fill="#D7C4AC"/>
<path d="M107.6 81.2076C106.927 84.655 105.418 88.0779 103.902 91.2224C102.361 94.416 100.43 97.4213 97.8752 99.8861C97.6481 100.107 97.2912 99.7551 97.5264 99.534C100.154 97.0037 102.101 93.8919 103.658 90.6001C105.005 87.7504 106.311 84.7042 107.016 81.617C107.722 78.5544 107.479 74.9842 104.559 73.1744C102.125 71.6759 98.9458 71.8642 96.4882 73.1826C94.7038 74.1407 93.26 75.5492 92.0353 77.146C92.0191 76.8921 92.0109 76.6465 92.0028 76.3926C93.4709 74.5829 95.2391 73.0352 97.4291 72.2C99.9678 71.2255 103.131 71.422 105.337 73.1089C107.844 75.0333 108.176 78.2924 107.6 81.2076Z" fill="#D7C4AC"/>
<path d="M125.534 101.139C121.811 98.7396 118.477 95.7425 115.719 92.2541C111.745 87.2344 106.278 78.0467 113.586 73.3136C116.652 71.3237 120.553 70.8979 124.106 70.8488C127.342 70.7996 130.562 71.2009 133.693 71.9624C133.693 72.0116 133.701 72.0607 133.709 72.1098C133.718 72.2327 133.734 72.3637 133.742 72.4865C130.295 71.6349 126.742 71.2254 123.19 71.3728C119.807 71.5121 116.068 72.0198 113.278 74.1324C110.074 76.5645 109.961 80.5197 111.323 84.049C112.678 87.5456 114.997 90.7802 117.455 93.5643C119.888 96.3239 122.695 98.7232 125.785 100.713C126.053 100.877 125.809 101.311 125.534 101.139Z" fill="#D7C4AC"/>
<path d="M88.9856 54.414C87.266 55.847 84.9382 55.9944 82.8699 55.3147C82.1561 55.0773 81.4829 54.7579 80.8503 54.3812C80.9395 54.2256 81.0287 54.07 81.1098 53.9144C83.3728 55.3065 85.9115 55.9616 88.3042 54.3075C90.2914 52.94 90.5834 50.5161 89.4965 48.4444C88.8558 47.2324 87.8581 46.3071 86.7631 45.5046C86.8686 45.3736 86.974 45.2508 87.0714 45.1279C88.361 46.086 89.529 47.2079 90.1779 48.7228C91.0457 50.7372 90.697 52.9891 88.9856 54.414Z" fill="#D7C4AC"/>
<path d="M147.368 57.4439C147.214 57.5503 147.044 57.6568 146.857 57.7796C144.384 56.8133 142.153 55.192 140.498 53.0547C138.041 49.8775 137.011 45.7422 137.522 41.7788C137.668 41.918 137.822 42.0654 137.968 42.2128C137.578 45.9305 138.584 49.771 140.88 52.7435C142.559 54.9054 144.838 56.5185 147.368 57.4439Z" fill="#D7C4AC"/>
<path d="M104.242 40.3784C103.796 40.5995 103.334 40.7551 102.872 40.8534C101.095 41.2383 99.2054 40.8288 97.6238 39.8789C97.1371 39.5841 96.6829 39.2484 96.2692 38.8799C95.9123 38.5605 95.5717 38.2084 95.2635 37.8399C95.4095 37.758 95.5555 37.668 95.6933 37.5943C95.961 37.9054 96.2449 38.2002 96.5531 38.4787C96.8938 38.7816 97.2506 39.0601 97.64 39.3057C99.1324 40.2638 100.957 40.7387 102.677 40.3948C103.123 40.3047 103.569 40.1573 103.999 39.9526C106.148 38.9045 107.187 36.6935 106.765 34.3433C106.74 34.1877 106.7 34.0322 106.667 33.8848C106.822 33.8193 106.976 33.7537 107.122 33.6882C107.219 34.0649 107.292 34.4498 107.333 34.851C107.543 37.2012 106.351 39.3467 104.242 40.3784Z" fill="#D7C4AC"/>
<path d="M100.739 126.328C100.739 126.328 99.9037 126.688 98.5492 127.302C98.1599 127.474 97.7381 127.671 97.2758 127.883C96.6593 128.162 95.9942 128.473 95.2724 128.817C94.8668 129.005 94.4369 129.21 94.0071 129.415C88.6051 131.994 81.508 135.679 78.8963 138.3C78.7097 138.488 78.5394 138.668 78.3691 138.848C74.4353 143.024 74.0865 145.94 73.1051 145.588C72.0831 145.219 71.3693 142.91 72.4886 141.035C73.2673 139.741 73.6323 138.021 74.6137 136.023C74.8814 135.483 75.1896 134.926 75.5708 134.353C77.2417 131.814 80.1697 128.915 81.7108 126.852C81.8081 126.721 81.9055 126.59 81.9866 126.459C83.2276 124.657 83.1789 121.521 85.8312 119.973C87.1289 119.22 88.8323 119.015 90.5356 119.089C90.8357 119.097 91.1439 119.122 91.444 119.146C91.8901 119.187 92.3362 119.244 92.7661 119.31C93.3582 119.4 93.9259 119.515 94.4451 119.629C94.9479 119.744 95.4021 119.859 95.7996 119.965C96.7567 120.227 97.3569 120.44 97.3569 120.44L100.739 126.328Z" fill="white"/>
<path d="M90.5348 119.089C89.3424 121.693 86.39 126.819 81.7019 126.852C81.7992 126.721 81.8966 126.59 81.9777 126.459C83.2187 124.657 83.17 121.521 85.8223 119.973C87.12 119.22 88.8314 119.015 90.5348 119.089Z" fill="#425045"/>
<path d="M78.3602 138.848C74.4264 143.025 74.0776 145.94 73.0962 145.588C72.0742 145.219 71.3604 142.91 72.4797 141.035C73.2584 139.741 73.6234 138.021 74.6048 136.023C75.935 136.588 77.4031 137.481 78.3602 138.848Z" fill="#425045"/>
<path d="M98.5403 127.302C98.151 127.474 97.7292 127.671 97.2669 127.883C96.0827 126.516 95.2473 124.723 94.8012 122.561C94.574 121.464 94.4848 120.448 94.4443 119.637C94.9472 119.752 95.4014 119.867 95.7988 119.973C95.8394 120.653 95.9367 121.447 96.107 122.299C96.4639 123.994 97.1696 125.885 98.5403 127.302Z" fill="#425045"/>
<path d="M92.7653 119.31C92.3354 119.245 91.8974 119.187 91.4432 119.146C91.3459 120.006 91.2485 121.431 91.4189 123.053C91.6946 125.673 92.5787 127.835 93.9981 129.415C94.4361 129.21 94.8579 129.006 95.2635 128.817C92.3678 125.951 92.5625 121.153 92.7653 119.31Z" fill="#425045"/>
<path d="M97.2588 117.811C96.9019 126.827 102.466 127.351 102.466 127.351C102.466 127.351 103.61 127.319 106.246 126.59C106.489 126.524 106.749 126.451 107.024 126.369C108.736 125.861 110.966 125.099 113.797 123.945C114.13 123.806 114.478 123.666 114.827 123.519C116.676 122.741 118.769 121.799 121.105 120.669C124.641 118.966 128.754 116.821 133.499 114.135C147.174 106.396 159.186 95.6445 163.623 86.7679C166.624 80.7819 166.178 75.6394 160.459 72.8634C159.454 72.3721 158.399 72.0937 157.321 71.9708C150.102 71.1765 142.867 78.1697 142.867 78.1697C128.308 88.1845 123.806 96.6599 117.869 103.489C117.625 103.776 117.374 104.054 117.123 104.333C116.96 104.513 116.798 104.685 116.62 104.865C115.663 105.864 114.559 106.855 113.383 107.805C109.466 110.99 104.697 113.832 101.363 115.666C101.128 115.797 100.901 115.92 100.682 116.043C98.6214 117.156 97.2588 117.811 97.2588 117.811Z" fill="#131E07"/>
<path d="M100.69 116.043C100.828 116.689 101.022 117.336 101.249 117.975C101.339 118.213 101.428 118.458 101.525 118.696C102.936 122.241 105.337 125.435 106.254 126.59C106.497 126.524 106.757 126.45 107.032 126.369C106.367 125.55 103.666 122.094 102.182 118.319C102.085 118.082 101.996 117.836 101.914 117.598C101.687 116.96 101.509 116.313 101.379 115.674C101.136 115.797 100.909 115.92 100.69 116.043Z" fill="#425045"/>
<path d="M163.631 86.7684C157.102 81.069 156.85 75.1322 157.321 71.9795C158.399 72.0941 159.454 72.3807 160.459 72.8639C166.178 75.6399 166.632 80.7742 163.631 86.7684Z" fill="#425045"/>
<path d="M101.241 117.975C101.33 118.213 101.42 118.458 101.517 118.696C101.728 118.573 101.947 118.45 102.174 118.319C107.495 115.199 115.395 109.475 124.293 102.245C132.631 95.4643 142.137 87.0053 143.305 84.4586C143.937 83.0829 143.97 82.0347 143.41 81.3633C142.575 80.3479 140.725 80.5608 139.89 80.7245C139.679 80.7655 139.541 80.9784 139.59 81.1913C139.63 81.3551 139.776 81.4697 139.931 81.4779C139.963 81.4779 139.987 81.4779 140.02 81.4697C140.839 81.3141 142.291 81.1995 142.826 81.8464C143.272 82.3869 142.956 83.3859 142.615 84.1392C141.674 86.1946 133.774 93.5645 123.814 101.655C116.782 107.371 107.981 114.02 101.898 117.607C101.679 117.729 101.46 117.852 101.241 117.975Z" fill="#425045"/>
<path d="M98.9702 116.321C100.349 120.776 102.247 124.715 105.362 127.441C105.362 127.441 103.456 129.423 101.257 128.637C99.5785 128.039 95.3851 121.439 95.8393 117.435C96.9911 116.501 98.0455 116.059 98.9702 116.321Z" fill="#425045"/>
<path d="M136.329 125.46C136.329 125.46 137.189 125.763 138.576 126.287C138.973 126.434 139.411 126.598 139.882 126.778C140.515 127.016 141.204 127.286 141.942 127.581C142.364 127.744 142.794 127.916 143.248 128.097C148.804 130.324 156.12 133.534 158.894 135.982C159.089 136.154 159.275 136.326 159.454 136.49C163.647 140.396 164.182 143.295 165.131 142.869C166.129 142.435 166.697 140.085 165.456 138.292C164.596 137.047 164.126 135.352 163.014 133.427C162.714 132.903 162.366 132.371 161.952 131.822C160.127 129.399 157.012 126.696 155.35 124.731C155.244 124.608 155.139 124.477 155.049 124.362C153.695 122.643 153.541 119.515 150.799 118.147C149.461 117.476 147.741 117.386 146.046 117.566C145.746 117.599 145.446 117.64 145.146 117.689C144.7 117.762 144.262 117.844 143.84 117.934C143.256 118.065 142.696 118.213 142.185 118.368C141.691 118.516 141.245 118.655 140.855 118.794C139.914 119.114 139.33 119.376 139.33 119.376L136.329 125.46Z" fill="white"/>
<path d="M146.046 117.566C147.409 120.088 150.67 125.009 155.358 124.739C155.252 124.616 155.147 124.485 155.058 124.371C153.703 122.651 153.549 119.523 150.807 118.155C149.461 117.476 147.741 117.386 146.046 117.566Z" fill="#425045"/>
<path d="M159.454 136.49C163.647 140.396 164.182 143.295 165.131 142.869C166.129 142.435 166.697 140.085 165.456 138.292C164.596 137.047 164.126 135.352 163.014 133.427C161.733 134.083 160.322 135.065 159.454 136.49Z" fill="#425045"/>
<path d="M138.584 126.287C138.982 126.434 139.42 126.598 139.89 126.778C140.985 125.337 141.707 123.494 142.015 121.3C142.169 120.194 142.202 119.171 142.177 118.36C141.683 118.508 141.236 118.647 140.847 118.786C140.847 119.466 140.807 120.268 140.685 121.12C140.45 122.848 139.866 124.78 138.584 126.287Z" fill="#425045"/>
<path d="M141.95 127.581C142.372 127.745 142.802 127.916 143.256 128.097C144.57 126.434 145.316 124.223 145.422 121.587C145.487 119.957 145.3 118.54 145.154 117.689C144.708 117.762 144.27 117.844 143.848 117.934C144.156 119.76 144.659 124.535 141.95 127.581Z" fill="#425045"/>
<path d="M71.0927 91.0262C76.4217 99.3869 89.2127 108.173 102.863 114.782C115.882 121.079 124.049 124.043 128.762 125.443C128.916 125.493 129.07 125.534 129.224 125.574C132.752 126.59 134.172 126.672 134.172 126.672C134.172 126.672 139.687 125.787 138.763 116.813C138.763 116.813 137.124 115.535 134.675 113.627C134.464 113.463 134.245 113.291 134.026 113.119C129.362 109.492 122.289 103.997 117.658 100.402C104.68 90.3301 103.488 90.9197 91.5243 81.0277C91.5243 81.0277 83.9892 74.3621 77.1192 74.8288C75.6268 74.9271 74.1668 75.3038 72.8285 76.0653C67.021 79.3654 67.1833 84.8846 71.0927 91.0262Z" fill="#131E07"/>
<path d="M128.77 125.435C128.786 125.46 128.802 125.484 128.827 125.501C128.883 125.55 128.948 125.583 129.013 125.599C129.086 125.615 129.159 125.607 129.232 125.574C129.273 125.558 129.321 125.525 129.354 125.484C131.941 122.708 133.466 118.262 134.204 115.576C134.277 115.306 134.342 115.052 134.407 114.823C134.537 114.307 134.626 113.889 134.683 113.627C134.472 113.463 134.253 113.291 134.034 113.119C134.026 113.136 134.026 113.144 134.026 113.16C134.026 113.177 133.928 113.676 133.726 114.462C133.669 114.692 133.604 114.945 133.531 115.216C132.817 117.82 131.317 122.274 128.827 124.96C128.689 125.1 128.673 125.288 128.77 125.435Z" fill="#425045"/>
<path d="M77.1195 74.8296C77.1195 77.8349 76.6977 87.8497 71.1012 91.0269C67.1917 84.8854 67.0295 79.3662 72.8369 76.0661C74.1671 75.3045 75.6271 74.9279 77.1195 74.8296Z" fill="#425045"/>
<path d="M91.4756 84.6881C92.7977 87.1611 102.823 94.9814 111.583 101.205C120.286 107.396 128.048 112.333 133.523 115.216C133.758 115.339 133.985 115.453 134.204 115.568C134.277 115.298 134.342 115.044 134.407 114.815C134.18 114.7 133.953 114.577 133.726 114.454C127.496 111.146 118.956 105.504 112.021 100.574C101.574 93.1471 93.2114 86.3095 92.1407 84.3196C91.7514 83.599 91.3783 82.6164 91.7838 82.0514C92.2705 81.3717 93.7305 81.3881 94.5578 81.4863C94.574 81.4863 94.5902 81.4863 94.6065 81.4863C94.7849 81.4863 94.939 81.3553 94.9715 81.1752C95.012 80.9623 94.866 80.7575 94.647 80.7248C93.8035 80.6183 91.9461 80.5283 91.1755 81.5928C90.6564 82.3216 90.7537 83.3616 91.4756 84.6881Z" fill="#425045"/>
<path d="M136.962 115.429C135.867 119.965 134.229 124.019 131.292 126.942C131.292 126.942 133.32 128.793 135.461 127.875C137.1 127.171 140.863 120.317 140.158 116.346C138.949 115.486 137.87 115.109 136.962 115.429Z" fill="#425045"/>
<path d="M153.492 76.9331C151.602 81.5106 147.166 81.3551 142.372 74.411C139.598 70.3903 137.165 66.1977 135.259 62.6602C134.521 61.2927 133.872 60.0234 133.304 58.9015L133.377 52.2687L141.496 46.9951C141.496 46.9951 144.448 51.6299 147.466 57.3621C151.205 64.4535 155.033 73.2073 153.492 76.9331Z" fill="#E8A36F"/>
<path d="M124.049 86.7351C128.145 83.9099 133.174 80.5853 135.169 78.7838C140.077 74.3455 148.69 67.2377 153.192 70.7343C153.192 70.7343 156.923 78.055 150.824 82.8945C145.016 87.5048 131.99 92.6391 125.915 94.5962C125.209 92.0004 124.406 89.4046 124.049 86.7351Z" fill="#E8A36F"/>
<path d="M141.739 73.7562C141.804 73.7562 141.869 73.7317 141.926 73.6826C144.205 71.6845 147.441 70.448 147.474 70.4316C147.628 70.3743 147.709 70.1941 147.652 70.0386C147.595 69.883 147.417 69.8011 147.263 69.8584C147.125 69.9075 143.889 71.1522 141.528 73.2158C141.399 73.3304 141.391 73.5188 141.496 73.6498C141.553 73.7317 141.65 73.7644 141.739 73.7562Z" fill="#B05935"/>
<path d="M142.234 73.3465C142.38 73.3383 142.502 73.2319 142.518 73.0845C142.713 71.7088 144.416 70.374 144.432 70.3576C144.562 70.2512 144.586 70.0628 144.489 69.9236C144.384 69.7926 144.197 69.7598 144.059 69.8663C143.978 69.9236 142.145 71.373 141.91 72.9944C141.885 73.1664 141.999 73.3219 142.169 73.3383C142.194 73.3465 142.218 73.3465 142.234 73.3465Z" fill="#B05935"/>
<path d="M148.269 56.8216C148.269 56.8216 147.993 57.0263 147.482 57.3703C147.449 57.3948 147.409 57.4194 147.376 57.444C147.222 57.5504 147.052 57.6569 146.865 57.7797C146.281 58.1482 145.535 58.5986 144.659 59.0817C144.521 59.1554 144.375 59.2373 144.229 59.311C142.526 60.2199 140.369 61.2108 137.943 61.9641C137.7 62.0378 137.465 62.1115 137.222 62.177C137.173 62.1934 137.132 62.2016 137.084 62.218C136.921 62.2671 136.767 62.3081 136.597 62.349C136.167 62.4636 135.721 62.5701 135.275 62.6602C134.813 62.7584 134.342 62.8485 133.872 62.9222C133.872 62.9222 133.653 62.7093 133.28 62.3244L133.32 58.9015L133.393 52.2687L133.547 38.5198C134.74 39.3223 136.086 40.3868 137.53 41.7707C137.676 41.9099 137.83 42.0573 137.976 42.2047C138.673 42.9008 139.403 43.6705 140.141 44.5221C140.255 44.6531 140.36 44.776 140.474 44.907C141.683 46.3236 142.932 47.9696 144.197 49.8694C144.311 50.0331 144.416 50.2051 144.53 50.3771C145.762 52.2687 147.02 54.4059 148.269 56.8216Z" fill="white"/>
<path d="M137.067 62.2179C136.905 62.2671 136.751 62.308 136.581 62.349C135.324 56.1992 136.605 49.7383 140.133 44.5303C140.247 44.6613 140.352 44.7841 140.466 44.9151C137.067 49.984 135.859 56.2484 137.067 62.2179Z" fill="#D7C4AC"/>
<path d="M144.651 59.0817C144.513 59.1554 144.367 59.2373 144.221 59.311C142.972 56.3549 142.907 52.9402 144.197 49.8694C144.31 50.0332 144.416 50.2051 144.529 50.3771C143.435 53.2268 143.516 56.3549 144.651 59.0817Z" fill="#D7C4AC"/>
<path d="M85.9277 47.4126C85.9277 47.4126 71.4902 70.816 74.3696 77.5144C76.3243 82.0592 80.761 81.8462 85.4492 74.8285C92.0515 64.9611 96.618 54.1274 96.618 54.1274L85.9277 47.4126Z" fill="#E8A36F"/>
<path d="M103.95 86.8823C99.8137 84.1145 94.7362 80.8718 92.7166 79.103C87.7446 74.7384 79.0334 67.7534 74.5805 71.3237C74.5805 71.3237 70.9549 78.6936 77.1192 83.4513C82.9915 87.9796 96.0908 92.9174 102.198 94.7845C102.872 92.1641 103.634 89.5601 103.95 86.8823Z" fill="#E8A36F"/>
<path d="M86.0818 74.1659C86.0169 74.1659 85.9521 74.1413 85.8953 74.0922C83.5837 72.1269 80.3311 70.9395 80.2987 70.9231C80.1365 70.8658 80.0554 70.6856 80.1121 70.5301C80.1689 70.3663 80.3474 70.2844 80.5015 70.3417C80.6394 70.3909 83.8919 71.5864 86.2846 73.6172C86.4144 73.7237 86.4306 73.9202 86.3252 74.0512C86.2603 74.1331 86.171 74.1741 86.0818 74.1659Z" fill="#B05935"/>
<path d="M85.579 73.7641C85.433 73.7559 85.3113 73.6494 85.287 73.502C85.0761 72.1345 83.3484 70.8161 83.3322 70.7997C83.1943 70.7015 83.17 70.5049 83.2673 70.3657C83.3647 70.2265 83.5593 70.202 83.6972 70.3002C83.7783 70.3575 85.6357 71.7824 85.8872 73.3956C85.9115 73.5593 85.7979 73.7231 85.6357 73.7477C85.6114 73.764 85.5952 73.7641 85.579 73.7641Z" fill="#B05935"/>
<path d="M103.464 47.3225C103.439 47.4945 103.407 47.6747 103.374 47.8466C103.269 48.4035 103.131 48.9767 102.953 49.5581C102.604 50.7291 102.069 51.941 101.436 53.1284C101.314 53.3495 101.193 53.5706 101.063 53.7917C98.224 58.7622 93.8035 63.2087 93.8035 63.2087C93.2682 63.135 92.7409 63.0367 92.2218 62.9385C91.3134 62.7501 90.4293 62.529 89.5777 62.267C89.3992 62.2179 89.2289 62.1605 89.0586 62.1032C83.389 60.3017 79.3092 57.3128 79.3092 57.3128C79.8202 56.281 80.3393 55.2984 80.8584 54.3649C80.9476 54.2093 81.0368 54.0537 81.1179 53.8981C83.0321 50.4834 84.9463 47.7238 86.7713 45.4965C86.8767 45.3654 86.9822 45.2426 87.0795 45.1198C87.923 44.1044 88.7504 43.2036 89.5452 42.4011C89.6588 42.2865 89.7804 42.1718 89.894 42.0572C91.938 40.0591 93.771 38.7244 95.2472 37.8482C95.3932 37.7663 95.5392 37.6762 95.6771 37.6025C97.64 36.497 98.8728 36.235 98.954 36.2268C100.536 37.2176 101.833 38.6261 102.661 40.4031C102.734 40.5505 102.799 40.706 102.863 40.8616C103.602 42.6713 103.861 44.8414 103.464 47.3225Z" fill="white"/>
<path d="M103.464 47.3225C103.439 47.4945 103.407 47.6746 103.374 47.8466C103.237 47.8548 103.091 47.8629 102.953 47.8629C99.7326 47.9448 96.5126 47.1587 93.7062 45.611C92.1651 44.7676 90.7619 43.6867 89.5452 42.4011C89.6588 42.2864 89.7804 42.1718 89.894 42.0571C91.0295 43.2691 92.3597 44.3008 93.8035 45.1115C94.4767 45.4882 95.1742 45.824 95.8961 46.1106C98.3456 47.0932 100.917 47.4617 103.464 47.3225Z" fill="#D7C4AC"/>
<path d="M101.428 53.1284C101.306 53.3495 101.184 53.5706 101.055 53.7917C99.1162 54.4796 97.2669 55.4458 95.5473 56.6905C94.4524 57.4848 93.4223 58.361 92.4408 59.2945C91.4351 60.2362 90.4861 61.2435 89.5695 62.2752C89.3911 62.2261 89.2208 62.1688 89.0504 62.1115C90.1454 60.875 91.281 59.6794 92.4976 58.5657C93.7467 57.4193 95.0769 56.3548 96.5207 55.4295C98.1023 54.4304 99.7407 53.6689 101.428 53.1284Z" fill="#D7C4AC"/>
<path d="M88.9856 54.414C87.266 55.847 84.9382 55.9944 82.8699 55.3147C82.1561 55.0773 81.4829 54.7579 80.8503 54.3812C80.9395 54.2256 81.0287 54.07 81.1098 53.9144C83.3728 55.3065 85.9115 55.9616 88.3042 54.3075C90.2914 52.94 90.5834 50.5161 89.4965 48.4444C88.8558 47.2324 87.8581 46.3071 86.7631 45.5046C86.8686 45.3736 86.974 45.2508 87.0714 45.1279C88.361 46.086 89.529 47.2079 90.1779 48.7228C91.0457 50.7372 90.697 52.9891 88.9856 54.414Z" fill="#D7C4AC"/>
<path d="M102.872 40.8617C101.095 41.2465 99.2054 40.8371 97.6238 39.8872C97.1371 39.5924 96.6829 39.2567 96.2692 38.8882C95.9123 38.5688 95.5717 38.2167 95.2635 37.8482C95.4095 37.7663 95.5555 37.6762 95.6933 37.6025C95.961 37.9137 96.2449 38.2085 96.5531 38.4869C96.8938 38.7899 97.2506 39.0683 97.64 39.314C99.1324 40.2721 100.957 40.747 102.677 40.4031C102.742 40.5505 102.807 40.7061 102.872 40.8617Z" fill="#D7C4AC"/>
<path d="M94.1279 63.1268C94.1847 63.1268 94.2415 63.1104 94.282 63.0695C99.2946 58.7458 102.158 52.244 102.182 52.1866C102.239 52.0638 102.182 51.9164 102.052 51.8591C101.931 51.8018 101.785 51.8591 101.728 51.9901C101.704 52.0556 98.881 58.451 93.9576 62.701C93.8521 62.7911 93.844 62.9466 93.9333 63.0531C93.99 63.094 94.0549 63.1268 94.1279 63.1268Z" fill="#131E07"/>
<path d="M99.8543 56.2237C99.8705 56.2237 99.8786 56.2237 99.8948 56.2237C101.695 55.9043 103.326 54.6515 103.391 54.5941C103.496 54.5123 103.52 54.3567 103.439 54.2502C103.358 54.1438 103.204 54.1192 103.099 54.2011C103.082 54.2093 101.501 55.4294 99.8137 55.7324C99.6839 55.7569 99.5947 55.888 99.6191 56.019C99.6353 56.1418 99.7407 56.2237 99.8543 56.2237Z" fill="#131E07"/>
<path d="M133.32 62.0213C133.45 62.0213 133.555 61.923 133.563 61.792C133.588 61.4153 134.18 52.465 132.825 48.6491C132.777 48.518 132.639 48.4525 132.509 48.5017C132.379 48.5508 132.314 48.69 132.363 48.821C133.677 52.5387 133.077 61.6773 133.069 61.7674C133.061 61.9066 133.158 62.0213 133.296 62.0295C133.312 62.0213 133.32 62.0213 133.32 62.0213Z" fill="#131E07"/>
<path d="M100.909 101.704L98.0374 96.2832C97.3236 94.9321 98.297 93.2943 99.8137 93.3025L144.367 93.4581L143.102 100.435L100.909 101.704Z" fill="#E5A501"/>
<path d="M142.202 100.664L102.336 100.959C101.371 100.967 100.673 100.181 100.771 99.2147L103.31 74.3291C103.407 73.3547 104.267 72.5604 105.232 72.5522L145.097 72.2574C146.062 72.2492 146.76 73.0353 146.663 74.0016L144.124 98.8872C144.027 99.8616 143.167 100.656 142.202 100.664Z" fill="#FABD20"/>
<path d="M101.874 101.237C101.858 101.237 101.85 101.237 101.833 101.237C101.647 101.213 101.517 101.049 101.541 100.861L104.656 74.1981C104.68 74.0098 104.843 73.8788 105.029 73.9034C105.216 73.9279 105.345 74.0917 105.321 74.28L102.206 100.943C102.182 101.106 102.044 101.237 101.874 101.237Z" fill="#E5A501"/>
<path d="M121.162 86.2684C121.024 88.2664 122.492 89.9779 124.447 90.0925C126.401 90.2072 128.089 88.6759 128.226 86.6778C128.364 84.6798 126.896 82.9683 124.942 82.8619C122.995 82.7391 121.3 84.2703 121.162 86.2684Z" fill="#E5A501"/>
<path d="M142.534 102.032L102.117 102.326C101.225 102.335 100.536 101.548 100.649 100.656L101.014 97.8062L144.392 97.4868L143.978 100.738C143.881 101.475 143.264 102.023 142.534 102.032Z" fill="#E5A501"/>
<path d="M37.9351 103.661C37.9351 103.661 37.4808 101.049 37.7647 97.0365C38.2189 90.6329 42.5421 85.1382 48.6253 83.2712C53.6541 81.7317 60.3051 80.7491 67.1346 82.7799C67.6374 82.9273 68.1403 83.091 68.6432 83.2794C83.2186 88.5693 81.2882 116.649 79.0496 132.42C76.811 148.2 76.665 157.699 70.0464 159.255C67.0048 159.967 62.5681 160.057 58.6505 159.951C57.8313 159.926 57.0445 159.893 56.2902 159.86C56.2902 159.86 48.0576 160.647 43.7993 157.019C39.541 153.391 37.9351 103.661 37.9351 103.661Z" fill="#731F07"/>
<path d="M58.6424 159.95C62.56 160.065 66.9967 159.975 70.0383 159.254C76.6569 157.699 76.8029 148.191 79.0415 132.42C81.2801 116.648 83.2186 88.5692 68.6351 83.2793C68.1322 83.0991 67.6294 82.9354 67.1265 82.7798C64.6526 83.3939 62.3897 85.0726 61.1892 88.7248C57.9286 98.6496 63.4684 132.977 58.6424 159.95Z" fill="#A5410F"/>
<path d="M66.8345 157.273C69.8517 157.248 72.1958 155.971 73.6152 153.571C75.8376 149.813 78.8387 117.656 78.9685 116.288C78.9847 116.124 78.863 115.969 78.6927 115.952C78.5224 115.936 78.3764 116.059 78.3602 116.231C78.3277 116.567 75.2374 149.616 73.088 153.26C71.7254 155.569 69.5354 156.708 66.583 156.667C64.3363 156.634 62.4708 155.889 62.4545 155.881C62.3004 155.815 62.122 155.897 62.0652 156.053C62.0003 156.208 62.0814 156.388 62.2355 156.446C62.3166 156.478 64.2065 157.232 66.5587 157.273C66.6479 157.273 66.7452 157.273 66.8345 157.273Z" fill="#731F07"/>
<path d="M63.4441 92.1888C63.6144 92.1888 63.7442 92.0496 63.7442 91.8777C63.7361 90.9114 64.3931 88.553 65.999 87.2592C67.0291 86.424 68.262 86.1701 69.649 86.4977C73.1854 87.3247 74.256 91.8285 74.2641 91.8695C74.3047 92.0332 74.4669 92.1397 74.6291 92.0988C74.7913 92.0578 74.8968 91.894 74.8562 91.7303C74.8076 91.5337 73.6964 86.8088 69.7869 85.8999C68.2052 85.5314 66.802 85.8262 65.6178 86.7843C63.9064 88.1682 63.1278 90.6493 63.1359 91.8858C63.1359 92.0578 63.2738 92.1888 63.4441 92.1888Z" fill="#731F07"/>
<path d="M65.0419 94.0641C65.0419 94.0641 65.2366 88.6677 69.2759 89.0689C73.307 89.4702 73.5666 98.3631 69.9734 99.5423C64.7094 101.262 65.0419 94.0641 65.0419 94.0641Z" fill="#731F07"/>
<path d="M109.733 16.6805C109.733 16.6805 105.256 19.3255 106.846 21.1516C108.436 22.9858 110.171 22.6173 110.171 22.6173C110.171 22.6173 107.981 25.164 110.528 26.6708C113.067 28.1775 116.011 22.0359 116.011 22.0359C116.011 22.0359 113.367 15.0346 109.733 16.6805Z" fill="#A36A24"/>
<path d="M108.468 15.534C108.468 15.534 105.426 11.1203 106.521 8.721C107.616 6.3217 109.417 6.65744 109.417 6.65744C109.417 6.65744 108.882 2.22733 111.047 1.0891C113.213 -0.0491394 116.003 1.33476 116.003 1.33476C116.003 1.33476 117.593 0.941698 120.205 1.09728C122.581 1.23649 123.027 3.08715 123.027 3.08715C123.027 3.08715 129.265 1.75238 131.236 3.84051C133.207 5.92864 130.465 8.61455 130.465 8.61455C130.465 8.61455 136.816 9.22051 135.697 13.5933C134.829 16.9834 129.63 16.9016 129.63 16.9016C129.63 16.9016 130.425 20.8813 126.75 21.0369C125.274 21.1024 112.702 14.4286 108.468 15.534Z" fill="#A36A24"/>
<path d="M109.571 32.7958C111.169 34.3762 113.091 35.2114 114.714 35.6618C117.236 36.3742 120.148 35.6782 122.111 34.5154L122.257 30.6995L122.289 29.9215L122.346 28.4476L113.375 22.0521L112.856 21.6836L112.507 21.438L112.378 21.7655L112.232 22.1422L112.272 22.306C111.469 25.9909 111.015 30.1836 109.571 32.7958Z" fill="#E8A36F"/>
<path d="M122.143 33.7211C118.493 32.7057 116.587 29.381 115.792 27.5386C117.552 29.0781 119.702 30.118 121.673 29.9952C121.884 29.9788 122.095 29.9543 122.289 29.9215L122.143 33.7211Z" fill="#131E07"/>
<path d="M112.086 21.7656C112.102 21.7738 112.126 21.7738 112.142 21.7738C112.167 21.8967 112.191 22.0195 112.223 22.1423C112.24 22.1997 112.248 22.2488 112.264 22.3061C113.294 26.0238 117.804 30.2328 121.673 29.9953C121.884 29.979 122.095 29.9544 122.289 29.9216C125.939 29.2747 127.002 25.0575 126.669 21.9867C126.669 21.9867 126.677 21.8721 126.702 21.6674C126.71 21.5937 126.718 21.5118 126.726 21.4217C126.758 21.1351 126.799 20.7421 126.856 20.2835C126.856 20.2753 126.856 20.2753 126.856 20.2671C127.026 18.8914 127.302 16.8688 127.699 14.8871C128.389 11.3905 126.361 6.05965 119.312 4.4219C112.264 2.78415 109.32 7.92668 109.336 11.6444C109.336 12.5779 109.514 13.6588 109.774 14.7561C109.093 14.7643 108.355 15.1 107.908 16.2792C107.073 18.4492 109.571 21.3726 112.086 21.7656Z" fill="#E8A36F"/>
<path d="M123.774 24.0175C122.597 24.3286 121.356 23.952 120.562 23.0184C120.375 22.7974 120.683 22.4616 120.878 22.6827C121.567 23.4934 122.614 23.8455 123.644 23.5671C123.936 23.4934 124.057 23.9356 123.774 24.0175Z" fill="#B05935"/>
<g opacity="0.5">
<g opacity="0.5">
<g opacity="0.5">
<g opacity="0.5">
<g opacity="0.5">
<g opacity="0.5">
<path opacity="0.5" d="M116.409 19.8905C116.368 20.2835 117.309 20.7175 118.518 20.8567C119.726 20.9959 120.74 20.783 120.789 20.39C120.837 19.9969 119.888 19.5629 118.68 19.4237C117.463 19.2845 116.449 19.4892 116.409 19.8905Z" fill="#B05935"/>
</g>
</g>
</g>
</g>
</g>
</g>
<g opacity="0.5">
<g opacity="0.5">
<g opacity="0.5">
<g opacity="0.5">
<g opacity="0.5">
<g opacity="0.5">
<path opacity="0.5" d="M126.702 21.6755C126.71 21.6018 126.718 21.5199 126.726 21.4298C126.758 21.1432 126.799 20.7501 126.856 20.2916C126.856 20.2834 126.856 20.2834 126.856 20.2752C125.866 20.2343 125.096 20.439 125.063 20.7829C125.023 21.1186 125.72 21.4871 126.702 21.6755Z" fill="#B05935"/>
</g>
</g>
</g>
</g>
</g>
</g>
<path d="M118.939 15.3456C118.826 15.3128 118.728 15.2473 118.639 15.1572C118.355 14.8706 118.355 14.4039 118.639 14.1091C118.704 14.0436 120.334 12.4468 122.297 13.3557C122.662 13.5277 122.825 13.9617 122.654 14.3384C122.484 14.7069 122.054 14.8706 121.681 14.6987C120.626 14.2073 119.677 15.1491 119.669 15.1572C119.475 15.362 119.191 15.4193 118.939 15.3456Z" fill="#A36A24"/>
<path d="M126.507 16.2055C126.304 16.14 126.126 15.9926 126.045 15.7715C125.817 15.1901 124.804 15.0673 124.544 15.0591C124.138 15.0591 123.814 14.7233 123.822 14.3139C123.822 13.9045 124.155 13.5769 124.56 13.5851C125.379 13.5933 126.904 13.9454 127.415 15.2229C127.561 15.5995 127.383 16.0335 127.01 16.1809C126.831 16.2546 126.661 16.2546 126.507 16.2055Z" fill="#A36A24"/>
<path d="M125.379 18.7604C125.29 19.2599 125.015 19.6284 124.755 19.5875C124.495 19.5465 124.358 19.1043 124.447 18.6048C124.536 18.1053 124.812 17.7368 125.071 17.7778C125.331 17.8187 125.469 18.2609 125.379 18.7604Z" fill="#131E07"/>
<path d="M123.911 17.6057C123.887 17.5975 123.863 17.573 123.855 17.5484C123.822 17.4829 123.838 17.401 123.903 17.3682C123.96 17.3355 125.225 16.6313 126.215 17.4829C126.272 17.532 126.28 17.6139 126.231 17.6712C126.182 17.7285 126.101 17.7367 126.045 17.6876C125.193 16.9588 124.049 17.5975 124.033 17.6057C123.993 17.6221 123.944 17.6221 123.911 17.6057Z" fill="#131E07"/>
<path d="M127.067 16.0007C125.469 15.6486 123.895 16.6722 123.538 18.2854C123.465 18.6048 123.457 18.9241 123.482 19.2271L123.984 19.4154C123.92 19.0879 123.928 18.7358 124.001 18.3918C124.293 17.0325 125.615 16.1809 126.961 16.4757C128.299 16.7705 129.151 18.1052 128.859 19.4646C128.567 20.8239 127.237 21.6755 125.899 21.3807C125.274 21.2415 124.747 20.8812 124.406 20.3899L124.001 20.6274C124.406 21.2333 125.039 21.6837 125.801 21.8475C127.391 22.1914 128.973 21.176 129.321 19.5628C129.67 17.9415 128.656 16.3529 127.067 16.0007Z" fill="white"/>
<path d="M117.033 17.8758C117.382 16.2708 118.964 15.2473 120.553 15.5912C122.143 15.9433 123.157 17.5401 122.816 19.1451C122.468 20.7501 120.886 21.7737 119.296 21.4298C117.698 21.0776 116.685 19.4808 117.033 17.8758ZM117.488 17.9741C117.196 19.3252 118.047 20.6682 119.385 20.963C120.724 21.2578 122.054 20.398 122.346 19.0468C122.638 17.6957 121.786 16.3527 120.448 16.0579C119.11 15.7631 117.78 16.623 117.488 17.9741Z" fill="white"/>
<path d="M128.713 19.7019C128.786 19.7183 128.867 19.7019 128.924 19.6446C129.021 19.5545 129.021 19.4071 128.932 19.3088C128.908 19.2843 128.372 18.7192 127.294 18.5309C127.164 18.5063 127.042 18.5964 127.018 18.7274C126.994 18.8585 127.083 18.9813 127.213 19.0058C128.129 19.1696 128.583 19.6364 128.591 19.6446C128.632 19.6691 128.673 19.6937 128.713 19.7019Z" fill="white"/>
<path d="M117.552 16.8031C115.59 15.8696 114.146 15.9188 113.286 16.1153L113.335 16.5984C114.097 16.4183 115.468 16.3446 117.358 17.2372C117.471 17.2945 117.617 17.2453 117.674 17.1225C117.723 17.0079 117.674 16.8605 117.552 16.8031Z" fill="white"/>
<path d="M109.774 14.756C109.774 14.756 111.348 14.6086 112.313 15.5585C113.278 16.5002 113.221 18.9241 114.527 19.0551C115.833 19.1861 114.073 13.0036 114.762 12.1438C115.444 11.284 119.264 12.2994 120.432 10.7845C121.592 9.27777 122.971 9.28596 124.309 10.6944C125.647 12.1029 128.892 13.4049 128.624 11.3004C128.356 9.19588 123.441 3.61935 119.158 3.48833C114.884 3.35731 110.447 4.29902 109.295 8.61448C108.144 12.9218 109.774 14.756 109.774 14.756Z" fill="#A36A24"/>
<path d="M113.975 21.5608C113.797 21.7819 113.586 21.9457 113.375 22.0603C112.986 22.2651 112.572 22.3142 112.272 22.3142C112.256 22.2569 112.24 22.2077 112.232 22.1504C112.199 22.0276 112.175 21.9048 112.151 21.7737C112.134 21.7737 112.118 21.7656 112.094 21.7656C112.175 21.7737 112.272 21.7737 112.378 21.7656C112.524 21.7574 112.686 21.741 112.856 21.6837C113.108 21.61 113.359 21.4708 113.562 21.2169C113.651 21.1023 113.821 21.0859 113.935 21.176C114.048 21.2824 114.065 21.4462 113.975 21.5608Z" fill="#B05935"/>
<path d="M121.997 25.074C121.632 24.9593 121.462 24.6809 121.454 24.6645C121.405 24.5827 121.429 24.4762 121.511 24.4271C121.592 24.3779 121.697 24.4025 121.746 24.4844C121.754 24.5008 121.981 24.8529 122.476 24.7628C122.573 24.7464 122.662 24.8119 122.679 24.902C122.695 25.0003 122.63 25.0904 122.541 25.1067C122.322 25.1395 122.143 25.1231 121.997 25.074Z" fill="#B05935"/>
<path d="M111.672 19.8985C111.566 19.8657 111.493 19.7675 111.485 19.6528C111.396 17.753 109.312 16.6394 109.295 16.623C109.166 16.5575 109.117 16.3937 109.182 16.2627C109.247 16.1317 109.409 16.0825 109.539 16.148C109.636 16.1972 111.907 17.4091 112.021 19.6282C112.029 19.7756 111.915 19.8985 111.769 19.9067C111.737 19.9067 111.704 19.9067 111.672 19.8985Z" fill="#B05935"/>
<path d="M109.531 18.531C109.498 18.5228 109.466 18.5064 109.441 18.4819C109.328 18.3836 109.312 18.2198 109.409 18.1052C109.433 18.0724 110.05 17.3436 111.112 17.5402C111.258 17.5647 111.356 17.7039 111.323 17.8513C111.291 17.9987 111.161 18.097 111.015 18.0643C110.253 17.925 109.823 18.4409 109.823 18.4491C109.742 18.5392 109.628 18.5638 109.531 18.531Z" fill="#B05935"/>
<path d="M123.117 21.3561C123.052 21.3397 123.003 21.2988 122.962 21.2333C122.889 21.1022 122.93 20.9385 123.06 20.8648L124.601 19.964L123.376 19.4317C123.303 19.399 123.254 19.3417 123.23 19.268L122.232 15.9925C122.192 15.8532 122.265 15.6977 122.411 15.6567C122.549 15.6158 122.703 15.6895 122.743 15.8369L123.709 18.9895L125.307 19.6856C125.396 19.7265 125.461 19.8166 125.469 19.9149C125.477 20.0131 125.42 20.1114 125.339 20.1605L123.344 21.3315C123.263 21.3725 123.181 21.3806 123.117 21.3561Z" fill="#B05935"/>
<path d="M122.557 17.7532C122.63 17.7695 122.711 17.7532 122.768 17.6958C122.841 17.6221 123.23 17.3028 123.636 17.7122C123.725 17.8023 123.879 17.8023 123.968 17.7122C124.057 17.6221 124.057 17.4666 123.968 17.3765C123.368 16.7623 122.711 17.0899 122.443 17.3519C122.346 17.442 122.346 17.5894 122.435 17.6876C122.476 17.7204 122.516 17.745 122.557 17.7532Z" fill="white"/>
<path d="M121.056 18.0807C120.967 18.5802 120.691 18.9487 120.432 18.9078C120.172 18.8668 120.034 18.4247 120.124 17.9251C120.213 17.4256 120.489 17.0571 120.748 17.0981C121 17.139 121.137 17.5812 121.056 18.0807Z" fill="#131E07"/>
<path d="M119.353 17.0735C119.329 17.0653 119.304 17.0489 119.288 17.0244C119.248 16.967 119.256 16.877 119.312 16.836C119.361 16.7951 120.529 15.9353 121.624 16.6559C121.689 16.6968 121.705 16.7787 121.665 16.8442C121.624 16.9097 121.543 16.9261 121.478 16.8852C120.545 16.271 119.483 17.0489 119.475 17.0571C119.434 17.0735 119.394 17.0817 119.353 17.0735Z" fill="#131E07"/>
<path d="M55.8684 16.0498L45.6323 5.87122C45.5026 5.7402 45.3241 5.6665 45.1295 5.67469C44.9429 5.68288 44.7645 5.76477 44.6428 5.90397L30.1404 22.1914C30.0268 22.3224 29.9619 22.4862 29.9619 22.6581L31.0569 173.806L32.4277 173.798L31.3327 22.912L45.1862 7.36157L54.9113 17.0407C55.179 17.3109 55.617 17.3027 55.8765 17.0325C56.1442 16.7541 56.1361 16.3201 55.8684 16.0498Z" fill="#131E07"/>
<path d="M45.8595 180.062L17.7063 180.267L17.6982 179.202C17.6657 175.231 20.8371 171.988 24.7709 171.963L38.6894 171.857C42.6232 171.824 45.8351 175.026 45.8595 178.998V180.062Z" fill="#131E07"/>
<path d="M69.941 20.9712C72.2039 23.5916 71.9362 27.5795 69.3407 29.8642C66.7452 32.1489 62.7952 31.8786 60.5322 29.2582C58.2693 26.6297 58.5369 22.6499 61.1324 20.3653C63.7279 18.0724 67.678 18.3426 69.941 20.9712Z" fill="white"/>
<path d="M78.9522 14.6905C72.1796 8.58985 61.8056 8.38513 54.7815 14.5594C47.7574 20.7419 46.5489 31.1416 51.6101 38.749L78.9522 14.6905Z" fill="#131E07"/>
<path d="M204.096 149.461L204.023 150.018L203.942 150.681L203.837 151.467L203.423 154.759L203.375 155.119L202.937 158.567L202.888 158.935L201.144 172.602L201.104 172.971L200.203 180.021L180.599 180.169L180.315 178.171L180.266 177.802L180.112 176.729L180.056 176.377L179.196 170.318L179.139 169.892L177.209 156.323L177.144 155.897L176.795 153.441L176.26 149.666L204.096 149.461Z" fill="#FABD20"/>
<path d="M182.651 164.634C182.319 166.911 181.045 168.991 179.196 170.309L179.139 169.892C181.443 168.147 182.781 165.101 182.254 162.202C181.759 159.492 179.723 157.265 177.209 156.315L177.144 155.889C177.922 156.159 178.669 156.552 179.342 157.052C181.718 158.796 183.081 161.678 182.651 164.634Z" fill="#E5A501"/>
<path d="M203.423 154.759L203.375 155.111C201.006 154.874 198.792 155.643 196.845 157.003C195.174 158.174 193.487 159.599 191.354 159.623C189.529 159.639 187.704 158.665 186.755 157.085C185.733 155.39 185.766 153.203 186.747 151.508C186.869 151.295 187.193 151.484 187.072 151.696C185.758 153.965 186.358 156.986 188.572 158.428C190.535 159.705 192.733 159.312 194.623 158.116C196.415 156.978 197.965 155.562 200.065 155.013C201.185 154.718 202.32 154.644 203.423 154.759Z" fill="#E5A501"/>
<path d="M204.023 150.018L203.942 150.681C203.756 150.976 203.545 151.246 203.31 151.508C202.239 152.712 200.763 153.531 199.149 153.735C197.324 153.965 195.466 153.359 194.071 152.179C193.779 151.934 193.504 151.655 193.252 151.361C193.098 151.18 193.358 150.91 193.512 151.09C193.844 151.483 194.217 151.836 194.623 152.138C195.864 153.056 197.405 153.531 198.962 153.375C200.406 153.236 201.744 152.556 202.758 151.541C203.18 151.115 203.553 150.632 203.845 150.108C203.886 150.034 203.959 150.009 204.023 150.018Z" fill="#E5A501"/>
<path d="M202.937 158.567L202.888 158.935C202.182 158.968 201.485 159.197 200.893 159.639C199.725 160.516 199.173 162.088 199.498 163.513C199.757 164.643 200.455 165.658 200.487 166.854C200.511 167.812 200.082 168.696 199.465 169.409C197.867 171.259 195.353 171.652 193.479 173.102C191.549 174.6 190.916 177.45 192.125 179.62C192.214 179.784 192.319 179.939 192.425 180.095H191.971C191.881 179.956 191.792 179.808 191.719 179.653C190.665 177.565 191.086 174.829 192.774 173.216C194.777 171.292 198.054 171.079 199.595 168.606C200.503 167.157 199.903 165.846 199.376 164.397C198.954 163.251 198.897 162.08 199.4 160.95C200.065 159.467 201.469 158.632 202.937 158.567Z" fill="#E5A501"/>
<path d="M197.551 176.656C197.527 178.154 198.386 179.407 199.603 180.029L198.889 180.038C197.794 179.252 197.097 177.941 197.186 176.467C197.316 174.281 199.092 172.692 201.152 172.602L201.104 172.971C199.197 173.077 197.575 174.633 197.551 176.656Z" fill="#E5A501"/>
<path d="M196.034 165.101C195.864 166.747 194.331 167.713 193.155 168.631C191.606 169.843 190.105 171.161 188.97 172.79C187.51 174.887 186.747 177.728 187.501 180.119H187.112C186.447 177.876 186.999 175.263 188.231 173.224C189.164 171.685 190.438 170.383 191.8 169.228C192.465 168.663 193.171 168.139 193.86 167.599C194.68 166.96 195.515 166.166 195.645 165.069C195.921 162.653 192.838 162.301 191.151 162.432C189.432 162.563 187.639 163.161 186.609 164.643C185.628 166.051 185.449 167.853 185.157 169.507C184.841 171.259 184.346 173.036 183.276 174.486C182.497 175.542 181.337 176.369 180.096 176.729L180.047 176.377C180.623 176.222 181.175 175.951 181.662 175.591C183.43 174.281 184.249 172.119 184.671 170.023C184.995 168.434 185.125 166.772 185.814 165.281C186.447 163.914 187.574 162.964 188.978 162.481C190.43 161.973 192.238 161.818 193.723 162.227C195.02 162.587 196.188 163.66 196.034 165.101Z" fill="#E5A501"/>
<path d="M184.143 180.136H183.762C183.608 179.473 183.292 178.858 182.692 178.474C181.921 177.966 181.094 177.925 180.315 178.162L180.266 177.802C181.248 177.499 182.286 177.606 183.194 178.383C183.722 178.85 184.006 179.473 184.143 180.136Z" fill="#E5A501"/>
<path d="M204.096 149.461L204.023 150.018L203.942 150.681L203.837 151.467L203.31 151.508L202.758 151.549L194.631 152.139L194.071 152.18L176.795 153.441L176.26 149.666L204.096 149.461Z" fill="#171612"/>
<path d="M206.578 149.608C195.653 150.624 184.719 150.705 173.786 149.854L173.761 146.849L206.554 146.611L206.578 149.608Z" fill="#FABD20"/>
<path d="M198.832 111.219C197.819 112.464 197.113 117.058 195.158 117.811C193.812 118.327 193.082 116.37 195.677 113.864C197.348 112.251 198.086 110.335 198.394 109.172C197.916 107.15 197.299 105.078 196.513 103.194C195.012 104.611 192.611 106.626 191.914 105.676C191.151 104.644 193.382 101.352 194.623 99.6651C194.031 98.8135 193.382 98.0683 192.652 97.4787C191.468 96.5125 190.097 95.972 188.507 96.0211C187.364 96.0621 186.317 96.4879 185.376 97.2003C186.739 99.878 188.759 104.406 187.372 105.463C186.09 106.445 184.192 102.695 183 99.8944C181.37 102.474 180.291 105.995 179.837 109.393C180.161 109.999 180.729 110.704 181.694 111.391C184.257 113.226 187.307 116.935 185.798 117.779C184.289 118.622 182.692 116.436 181.556 114.487C180.972 113.488 180.315 112.677 179.609 112.145C179.593 112.743 179.593 113.316 179.618 113.881C180.096 124.551 190.413 124.469 190.413 124.469C190.413 124.469 200.739 121.988 198.832 111.219ZM185.847 111.522C184.825 111.522 183.186 109.606 182.416 108.542C181.645 107.469 182.254 106.74 182.984 106.937C182.992 106.937 183 106.945 183.016 106.945C184.046 107.256 187.169 111.531 185.847 111.522ZM194.834 108.902C194.842 108.902 194.858 108.894 194.866 108.894C195.596 108.681 196.205 109.172 195.864 110.114C195.426 111.35 194.826 111.85 193.909 111.391C193.325 111.105 193.804 109.221 194.834 108.902Z" fill="#7F784B"/>
<path d="M189.197 108.615C190.137 113.275 189.878 118.098 189.57 122.815C189.237 127.851 188.775 132.903 189.002 137.956C189.132 140.822 189.489 143.68 190.194 146.464C190.251 146.701 190.616 146.595 190.559 146.357C188.037 136.359 190.219 126.147 190.219 116.026C190.219 113.504 190.056 110.982 189.562 108.501C189.513 108.271 189.148 108.378 189.197 108.615Z" fill="#171612"/>
<path d="M184.671 124.559C184.581 126.172 186.69 130.299 185.555 132.076C184.768 133.296 183.04 132.142 183.673 128.58C184.079 126.279 183.551 124.297 183.13 123.175C181.564 121.824 179.853 120.522 178.117 119.466C177.736 121.505 176.973 124.559 175.854 124.207C174.637 123.822 174.516 119.842 174.532 117.738C173.559 117.402 172.593 117.189 171.661 117.148C170.144 117.074 168.716 117.451 167.459 118.442C166.559 119.154 165.959 120.121 165.618 121.259C168.287 122.61 172.553 125.067 172.058 126.737C171.596 128.293 167.873 126.393 165.277 124.846C165.472 127.9 166.656 131.388 168.27 134.402C168.887 134.697 169.755 134.926 170.939 134.91C174.078 134.86 178.717 136.048 177.987 137.62C177.265 139.2 174.694 138.382 172.634 137.489C171.58 137.03 170.574 136.768 169.69 136.76C170.022 137.251 170.363 137.718 170.712 138.152C177.33 146.48 185.62 140.273 185.62 140.273C185.62 140.273 192.498 132.134 184.671 124.559ZM174.362 132.543C173.534 133.149 171.093 132.576 169.852 132.174C168.603 131.773 168.668 130.815 169.373 130.545C169.382 130.545 169.39 130.537 169.406 130.537C170.412 130.168 175.432 131.757 174.362 132.543ZM180.088 125.075C180.096 125.067 180.104 125.058 180.104 125.05C180.567 124.444 181.345 124.477 181.621 125.443C181.986 126.704 181.791 127.458 180.786 127.638C180.161 127.753 179.447 125.943 180.088 125.075Z" fill="#7F784B"/>
<path d="M175.351 128.187C177.793 130.422 180.21 132.739 182.189 135.417C183.705 137.464 184.873 139.716 185.936 142.025C186.69 143.663 187.404 145.317 188.142 146.955C188.24 147.176 188.564 146.98 188.467 146.759C187.258 144.056 186.131 141.305 184.719 138.701C183.454 136.367 181.881 134.246 180.088 132.305C178.677 130.766 177.16 129.325 175.619 127.916C175.44 127.753 175.173 128.023 175.351 128.187Z" fill="#171612"/>
<path d="M193.771 142.132C193.771 142.132 202.109 148.274 208.663 139.896C209.004 139.454 209.344 138.988 209.669 138.496C208.785 138.513 207.787 138.775 206.733 139.25C204.68 140.158 202.117 140.994 201.379 139.421C200.641 137.849 205.273 136.629 208.403 136.654C209.588 136.662 210.447 136.424 211.064 136.121C212.662 133.1 213.822 129.595 213.984 126.541C211.404 128.113 207.698 130.037 207.219 128.49C206.708 126.819 210.958 124.33 213.619 122.962C213.27 121.824 212.662 120.866 211.761 120.153C210.504 119.171 209.069 118.81 207.552 118.892C206.619 118.941 205.662 119.163 204.689 119.506C204.721 121.611 204.632 125.599 203.415 125.992C202.304 126.352 201.509 123.298 201.12 121.267C199.384 122.332 197.689 123.65 196.132 125.018C195.71 126.148 195.199 128.137 195.629 130.43C196.286 133.992 194.566 135.155 193.771 133.943C192.619 132.183 194.696 128.039 194.599 126.426C186.828 134.041 193.771 142.132 193.771 142.132ZM209.92 132.265C209.928 132.273 209.945 132.273 209.953 132.273C210.666 132.543 210.731 133.493 209.49 133.91C208.249 134.32 205.816 134.91 204.981 134.312C203.894 133.542 208.906 131.912 209.92 132.265ZM198.508 129.464C197.502 129.292 197.3 128.539 197.656 127.278C197.932 126.311 198.703 126.27 199.173 126.868C199.181 126.876 199.189 126.885 199.189 126.893C199.838 127.761 199.141 129.57 198.508 129.464Z" fill="#7F784B"/>
<path d="M203.683 129.701C198.711 134.811 194.769 140.723 190.965 146.742C190.835 146.947 191.16 147.135 191.29 146.93C195.077 140.944 198.995 135.057 203.951 129.963C204.121 129.791 203.853 129.521 203.683 129.701Z" fill="#171612"/>
<path d="M206.554 146.603C206.554 146.906 199.214 147.209 190.162 147.275C181.102 147.34 173.761 147.152 173.761 146.841C173.761 146.538 181.102 146.235 190.154 146.169C199.214 146.104 206.554 146.3 206.554 146.603Z" fill="#171612"/>
</svg>
