<svg viewBox="0 0 677 385" fill="none" xmlns="http://www.w3.org/2000/svg">
<path d="M98.075 235.966C98.075 235.966 89.7493 198.991 69.1389 191.061C46.99 182.543 44.5692 203.613 67.0574 220.175C82.487 231.526 98.075 235.966 98.075 235.966Z" fill="#7F784B"/>
<path d="M122.079 269.249C122.079 269.249 142.735 237.484 134.024 217.161C124.681 195.321 107.916 208.28 111.74 235.989C114.387 254.952 122.079 269.249 122.079 269.249Z" fill="#7F784B"/>
<path d="M133.052 290.681C133.052 290.681 95.541 295.779 80.9259 279.217C65.2022 261.409 84.0933 251.78 107.441 267.096C123.459 277.586 133.052 290.681 133.052 290.681Z" fill="#7F784B"/>
<path d="M139.454 306.949C139.454 306.949 171.535 286.807 172.169 264.717C172.847 240.951 152.192 245.686 144.047 272.42C138.481 290.749 139.454 306.949 139.454 306.949Z" fill="#7F784B"/>
<path d="M76.5143 210.455C93.5501 227.47 109.296 245.867 121.898 266.439C134.296 286.694 143.368 308.761 149.884 331.576C151.603 337.558 153.142 343.607 154.544 349.656H151.965C148.187 333.57 143.481 317.688 137.237 302.372C128.572 281.075 116.83 261.205 102.6 243.194C93.98 232.296 84.5911 222.055 74.7496 212.245C73.5958 211.067 75.3605 209.3 76.5143 210.455Z" fill="#49421F"/>
<path d="M451.211 249.039H614.33C615.099 249.039 615.732 248.405 615.732 247.634V1.4047C615.732 0.634379 615.099 0 614.33 0H451.211C450.441 0 449.808 0.634379 449.808 1.4047V247.634C449.808 248.405 450.441 249.039 451.211 249.039ZM612.927 246.207H452.613V2.83205H612.927V246.207Z" fill="#C2AC96"/>
<path d="M452.321 36.0916H614.354C615.123 36.0916 615.757 35.4573 615.757 34.6869C615.757 33.9166 615.123 33.2822 614.354 33.2822H452.321C451.552 33.2822 450.919 33.9166 450.919 34.6869C450.919 35.4573 451.529 36.0916 452.321 36.0916Z" fill="#C2AC96"/>
<path d="M535.035 248.405C535.804 248.405 536.437 247.77 536.437 247V34.6869C536.437 33.9166 535.804 33.2822 535.035 33.2822C534.265 33.2822 533.632 33.9166 533.632 34.6869V247C533.609 247.77 534.243 248.405 535.035 248.405Z" fill="#C2AC96"/>
<path d="M113.391 166.185H359.269C360.038 166.185 360.672 165.55 360.672 164.78V1.4047C360.672 0.634379 360.038 0 359.269 0H113.414C112.645 0 112.011 0.634379 112.011 1.4047V164.757C111.989 165.55 112.622 166.185 113.391 166.185ZM357.844 163.353H114.794V2.83205H357.844V163.353Z" fill="#C2AC96"/>
<path d="M114.047 36.5901H359.269C360.038 36.5901 360.671 35.9557 360.671 35.1854C360.671 34.415 360.038 33.7807 359.269 33.7807H114.047C113.278 33.7807 112.645 34.415 112.645 35.1854C112.645 35.9557 113.256 36.5901 114.047 36.5901Z" fill="#C2AC96"/>
<path d="M239.407 166.185C240.176 166.185 240.81 165.55 240.81 164.78V35.1627C240.81 34.3924 240.176 33.758 239.407 33.758C238.638 33.758 238.004 34.3924 238.004 35.1627V164.78C237.982 165.55 238.615 166.185 239.407 166.185Z" fill="#C2AC96"/>
<path d="M167.214 222.78C167.983 222.78 168.616 222.146 168.616 221.376V201.257C168.616 200.486 167.983 199.852 167.214 199.852C166.445 199.852 165.811 200.486 165.811 201.257V221.376C165.789 222.146 166.422 222.78 167.214 222.78Z" fill="#C2AC96"/>
<path d="M219.226 246.275C219.996 246.275 220.629 245.641 220.629 244.87V224.751C220.629 223.981 219.996 223.347 219.226 223.347C218.457 223.347 217.824 223.981 217.824 224.751V244.87C217.801 245.641 218.434 246.275 219.226 246.275Z" fill="#C2AC96"/>
<path d="M148.956 224.48H250.289C251.058 224.48 251.692 223.845 251.692 223.075C251.692 222.305 251.058 221.67 250.289 221.67H148.956C148.187 221.67 147.554 222.305 147.554 223.075C147.554 223.845 148.187 224.48 148.956 224.48Z" fill="#C2AC96"/>
<path d="M176.444 246.275H248.954C249.724 246.275 250.357 245.641 250.357 244.87C250.357 244.1 249.724 243.466 248.954 243.466H176.444C175.675 243.466 175.042 244.1 175.042 244.87C175.019 245.641 175.653 246.275 176.444 246.275Z" fill="#C2AC96"/>
<path d="M31.0175 364.247C31.0175 375.711 175.63 385 353.997 385C532.387 385 677 375.711 677 364.247C677 352.783 532.388 343.493 354.02 343.493C175.63 343.493 31.0175 352.783 31.0175 364.247Z" fill="#A5410F"/>
<path d="M88.3918 362.797C88.3918 368.937 203.48 373.898 345.468 373.898C487.456 373.898 602.544 368.937 602.544 362.797C602.544 356.657 487.456 351.695 345.468 351.695C203.48 351.695 88.3918 356.657 88.3918 362.797Z" fill="#731F07"/>
<path d="M146.128 338.328L122.984 348.795L107.147 327.702L129.341 317.665L146.128 338.328Z" fill="#E8A36F"/>
<path d="M45.6324 331.168C55.8132 339.891 77.6907 344.762 83.8896 354.074C90.0886 363.386 100.428 368.212 106.83 363.023C109.794 360.622 115.473 355.841 121.151 351.831C121.559 351.537 121.966 351.265 122.396 350.97C124.138 349.769 125.857 348.682 127.486 347.776C127.78 347.617 128.074 347.436 128.368 347.3C128.504 347.232 128.663 347.164 128.798 347.096C132.237 345.533 136.898 346.099 134.771 342.972C129.726 335.519 122.441 323.035 119.206 322.242C117.871 321.925 115.676 322.423 113.029 323.307C112.554 323.465 112.057 323.647 111.559 323.828C110.156 324.349 108.663 324.938 107.147 325.572C106.695 325.754 106.22 325.958 105.744 326.161C100.36 328.404 94.817 330.738 91.6497 330.806C85.2018 330.919 76.1522 328.993 71.4917 326.343C65.7225 323.057 50.1573 317.008 47.4198 315.898C42.3746 313.836 35.4516 322.423 45.6324 331.168Z" fill="white"/>
<path d="M111.581 323.828C117.305 331.531 122.599 339.529 127.486 347.776C127.78 347.617 128.074 347.436 128.368 347.3C128.504 347.232 128.663 347.164 128.798 347.096C123.957 338.894 118.685 330.965 113.029 323.307C112.577 323.465 112.079 323.646 111.581 323.828Z" fill="#C2AC96"/>
<path d="M105.767 326.161C111.106 334.612 116.242 343.154 121.174 351.831C121.581 351.536 121.988 351.265 122.418 350.97C117.532 342.383 112.441 333.91 107.17 325.572C106.695 325.776 106.22 325.957 105.767 326.161Z" fill="#C2AC96"/>
<path d="M333.907 225.25C333.907 225.25 266.601 224.502 240.629 244.281C214.656 264.083 127.735 317.393 127.735 317.393L143.391 342.519C143.391 342.519 202.304 326.388 232.62 311.91C262.936 297.433 293.32 282.978 293.32 282.978L359.902 343.493L333.907 225.25Z" fill="#2D4446"/>
<path d="M135.97 313.836C142.011 321.811 146.897 330.647 152.825 338.736C153.391 339.506 152.101 340.254 151.535 339.483C145.608 331.395 140.744 322.582 134.68 314.584C134.092 313.814 135.382 313.066 135.97 313.836Z" fill="#527676"/>
<path d="M236.715 292.426C222.665 300.967 208.774 309.849 194.182 317.484C179.815 325.006 164.748 330.919 149.115 335.179C148.187 335.428 147.78 333.978 148.707 333.729C164.476 329.424 179.634 323.443 194.091 315.83C208.435 308.285 222.122 299.54 235.968 291.135C236.783 290.636 237.529 291.928 236.715 292.426Z" fill="#527676"/>
<path d="M407.616 128.009C407.616 128.009 403.793 188.388 373.273 204.904C349.744 217.637 303.003 175.836 293.365 182.021C283.727 188.229 279.768 192.081 285.017 200.872C290.266 209.662 352.527 263.267 385.807 247.408C419.087 231.526 428.204 154.879 407.616 128.009Z" fill="#A5410F"/>
<path d="M367.459 269.86C412.752 344.513 444.041 360.916 458.769 345.918C497.592 306.36 503.61 246.116 502.841 216.595C502.75 212.902 502.886 208.937 503.203 204.768C503.655 198.629 504.47 192.104 505.329 185.533C508.587 160.838 504.605 141.625 502.117 135.485C497.999 125.29 484.696 122.911 477.185 120.373C472.547 118.787 467.638 118.108 462.728 118.38L434.177 119.966C434.177 119.966 413.499 121.506 408.476 124.542C403.453 127.578 399.653 142.667 389.879 155.899C380.106 169.13 376.961 183.018 383.657 199.15C389.494 213.174 388.703 207.986 387.617 230.03C386.282 257.059 361.984 260.82 367.459 269.86Z" fill="#FABD20"/>
<path d="M478.633 103.653L468.022 89.3795L473.724 106.326C460.285 112.648 437.186 119.603 414.698 120.464C412.956 120.532 412.322 120.532 409.833 120.623C409.404 120.645 408.974 120.464 408.974 120.464L405.693 106.983L405.422 120.283C402.616 119.875 397.82 119.535 395.173 118.833C395.173 118.833 397.888 92.0076 395.445 83.3755C392.979 74.7661 387.209 65.9527 389.336 58.1589C391.463 50.3878 403.137 23.7439 434.313 24.6048C434.313 24.6048 451.348 23.7439 459.538 42.1862C472.163 82.0388 485.42 97.649 485.42 97.649C485.511 98.8951 481.008 102.86 478.633 103.653Z" fill="#131E07"/>
<path d="M402.526 83.4435C402.526 83.4435 394.54 82.8771 390.807 72.2059C384.743 54.8511 394.155 36.5674 415.874 30.2916C444.335 22.0673 449.787 30.4502 457.163 40.8948C464.538 51.3394 465.579 68.3997 461.167 78.4817C456.914 88.2467 446.032 93.7748 446.032 93.7748L402.526 83.4435Z" fill="#131E07"/>
<path d="M401.123 79.3653C401.123 79.3653 397.571 80.4302 397.843 85.188C398.114 89.9459 402.028 97.1506 406.485 95.2248C410.942 93.3217 401.123 79.3653 401.123 79.3653Z" fill="#B05935"/>
<path d="M409.313 95.8365C410.037 98.0795 408.793 100.481 406.553 101.206C404.313 101.931 401.915 100.685 401.191 98.442C400.467 96.199 401.711 93.7974 403.951 93.0724C406.214 92.3474 408.612 93.5709 409.313 95.8365Z" fill="#FABD20"/>
<path d="M462.117 117.292C462.117 117.292 458.317 130.478 445.24 135.259C428.634 141.331 425.15 134.352 425.15 134.352C425.376 131.883 425.331 129.481 425.014 126.966C424.901 126.015 424.743 125.041 424.539 124.044C424.019 121.325 423.204 118.402 422.141 115.049C421.892 114.256 421.62 113.441 421.349 112.602L421.326 112.512C432.593 107.21 441.19 99.9147 445.986 89.7646L447.548 88.3373L448.588 87.363L448.95 88.0201L449.176 90.2631C450.262 100.821 454.403 108.932 462.117 117.292Z" fill="#E8A36F"/>
<path d="M439.674 100.594C438.362 106.78 434.652 118.017 424.539 124.044C424.019 121.325 423.204 118.402 422.141 115.049C421.892 114.256 421.621 113.441 421.349 112.602C421.598 112.58 421.824 112.557 422.073 112.512C428.634 111.583 434.946 106.78 439.674 100.594Z" fill="#131E07"/>
<path d="M459.403 67.1989C461.145 73.5426 457.932 82.8091 449.72 85.324L449.674 85.3466L449.493 85.3919C449.471 85.7998 449.403 86.1849 449.335 86.6154C449.312 86.7966 449.29 86.9779 449.244 87.1591C449.244 87.1818 449.244 87.1818 449.222 87.2045C447.027 99.4162 433.453 110.019 425.218 112.534C422.277 113.441 420.105 113.327 419.426 113.35C410.105 113.871 405.173 102.43 404.042 92.9592C403.883 91.5771 403.793 90.2404 403.793 88.9943C403.793 88.9037 403.793 88.813 403.793 88.7451C403.793 88.7451 397.322 76.8278 395.105 71.4809C390.807 61.0816 393.951 48.462 416.915 39.762C439.878 31.0846 449.584 44.1573 453.385 51.4753C454.018 52.6988 455.896 60.4699 454.946 62.0785C457.502 62.5996 458.814 65.0692 459.403 67.1989Z" fill="#E8A36F"/>
<path d="M419.2 82.1521C419.562 82.0614 419.833 81.7443 419.856 81.3591C419.901 80.4982 420.263 78.595 421.168 78.2099C422.458 77.6435 424.245 78.4591 424.268 78.4817C424.697 78.6856 425.218 78.5044 425.421 78.0739C425.625 77.6434 425.444 77.1224 425.014 76.9184C424.924 76.8731 422.503 75.7403 420.467 76.6239C418.34 77.5528 418.136 80.906 418.136 81.2911C418.114 81.7669 418.476 82.1747 418.973 82.1974C419.041 82.1974 419.132 82.1747 419.2 82.1521Z" fill="#131E07"/>
<path d="M410.467 84.9841C410.557 84.9615 410.625 84.9388 410.693 84.8935C411.1 84.6443 411.236 84.1232 410.987 83.7154C410.829 83.4435 409.381 81.1325 407.481 81.2911C405.716 81.4497 404.472 83.081 404.336 83.2622C404.064 83.6474 404.132 84.1911 404.539 84.463C404.924 84.7349 405.467 84.6669 405.738 84.2818C405.987 83.9646 406.779 83.081 407.616 83.013C408.25 82.9677 409.155 84.0099 409.494 84.599C409.72 84.9161 410.105 85.0747 410.467 84.9841Z" fill="#131E07"/>
<path d="M420.037 36.794C437.344 30.8807 454.086 46.944 456.348 53.5824C458.588 60.2207 454.946 62.1012 454.946 62.1012C450.059 63.7098 447.864 67.1309 446.371 70.4387L444.72 74.8341C443.769 77.3716 440.036 76.7599 439.923 74.0637C439.833 71.8208 439.742 70.1442 439.765 70.1215C440.24 66.066 434.086 65.0692 430.218 63.7324C430.24 63.7324 430.24 63.7324 430.218 63.7324C423.498 61.4441 422.503 54.5793 422.503 54.5793C422.752 48.3261 394.721 57.2074 395.626 66.5418C396.621 76.9411 397.028 77.6435 397.028 77.6435C397.028 77.6435 395.037 80.7927 392.255 68.2411C389.495 55.6668 402.752 42.6846 420.037 36.794Z" fill="#131E07"/>
<path d="M420.535 50.5237C414.969 56.8222 407.933 61.9652 399.019 65.5902C403.725 61.3535 407.005 56.8449 408.77 52.0417L420.535 50.5237Z" fill="#131E07"/>
<path d="M458.022 83.3076C458.746 85.5505 457.502 87.9521 455.262 88.6771C453.023 89.4021 450.624 88.156 449.901 85.913C449.177 83.6701 450.421 81.2685 452.661 80.5435C454.9 79.8185 457.299 81.0419 458.022 83.3076Z" fill="#FABD20"/>
<g opacity="0.5">
<g opacity="0.5">
<g opacity="0.5">
<g opacity="0.5">
<g opacity="0.5">
<g opacity="0.5">
<g opacity="0.5">
<g opacity="0.5">
<g opacity="0.5">
<g opacity="0.5">
<g opacity="0.5">
<path opacity="0.5" d="M408.385 89.8099C408.634 90.7615 406.757 92.0756 404.064 92.9592C403.906 91.5771 403.815 90.2404 403.815 88.9943C406.259 88.6544 408.159 88.9263 408.385 89.8099Z" fill="#B05935"/>
</g>
</g>
</g>
</g>
</g>
</g>
</g>
</g>
</g>
</g>
</g>
<path d="M420.173 100.73C421.236 100.3 421.666 99.4389 421.711 99.3709C421.847 99.1217 421.734 98.8045 421.485 98.6686C421.236 98.5327 420.919 98.6459 420.783 98.8952C420.761 98.9405 420.173 100.051 418.657 99.892C418.363 99.8694 418.114 100.073 418.091 100.345C418.069 100.64 418.272 100.889 418.544 100.912C419.2 101.002 419.743 100.912 420.173 100.73Z" fill="#B05935"/>
<path d="M418.476 97.5811C418.498 97.5584 418.521 97.5584 418.566 97.5584C422.028 96.1311 422.571 92.9592 422.571 92.8232C422.639 92.3928 422.345 91.9849 421.915 91.917C421.485 91.849 421.078 92.1435 421.01 92.574C420.987 92.6873 420.58 94.9982 417.955 96.0631C417.933 96.0631 417.91 96.0857 417.888 96.0857C415.263 97.1506 413.589 96.0857 413.589 96.0631C413.227 95.8139 412.729 95.9271 412.48 96.2896C412.232 96.6521 412.345 97.1506 412.707 97.3998C412.775 97.4678 415.06 98.9404 418.476 97.5811Z" fill="#B05935"/>
<path d="M414.743 91.2373C414.607 91.2826 414.471 91.2826 414.336 91.2373L410.58 90.2404C410.331 90.1724 410.128 89.9685 410.06 89.7193C409.992 89.4701 410.06 89.1982 410.241 88.9943C412.367 86.774 413.272 84.0325 413.069 80.3622C413.046 79.9544 413.363 79.5919 413.77 79.5692C414.177 79.5466 414.539 79.8638 414.562 80.2716C414.765 83.8966 413.996 86.7286 412.141 89.0849L414.743 89.7646C415.15 89.8779 415.376 90.2857 415.263 90.6709C415.173 90.988 414.969 91.1693 414.743 91.2373Z" fill="#B05935"/>
<path d="M416.055 68.7168C414.245 69.5551 412.594 67.2668 413.974 65.8395C414.698 65.0918 415.761 64.4801 417.322 64.3215C424.109 63.6191 428.204 68.5809 428.204 68.5809C428.204 68.5809 421.372 67.2442 417.978 68.0598C417.186 68.241 416.553 68.4903 416.055 68.7168Z" fill="#131E07"/>
<path d="M406.1 72.2286C408.046 71.8661 408.091 69.034 406.123 68.6715C405.105 68.4903 403.883 68.6036 402.503 69.3739C396.553 72.727 397.594 77.4169 397.594 77.4169C397.594 77.4169 400.897 74.0864 404.132 72.795C404.901 72.5005 405.535 72.3419 406.1 72.2286Z" fill="#131E07"/>
<g opacity="0.5">
<g opacity="0.5">
<g opacity="0.5">
<g opacity="0.5">
<g opacity="0.5">
<g opacity="0.5">
<g opacity="0.5">
<g opacity="0.5">
<g opacity="0.5">
<g opacity="0.5">
<g opacity="0.5">
<path opacity="0.5" d="M423.046 85.8677C423.317 86.9552 426.236 87.1365 429.562 86.2755C432.887 85.4146 435.331 83.8513 435.059 82.7638C434.788 81.6763 431.869 81.495 428.543 82.356C425.24 83.2169 422.774 84.7802 423.046 85.8677Z" fill="#B05935"/>
</g>
</g>
</g>
</g>
</g>
</g>
</g>
</g>
</g>
</g>
</g>
<path d="M449.72 85.3466L449.674 85.3693L449.493 85.4146C449.471 85.8224 449.403 86.2076 449.335 86.638C449.312 86.8193 449.29 87.0005 449.244 87.1818C449.244 87.2045 449.244 87.2045 449.244 87.2271C448.249 87.3404 446.982 87.3177 445.692 86.842C444.946 86.5701 444.177 86.1396 443.498 85.4826C443.136 85.1427 443.136 84.5763 443.475 84.2365C443.815 83.874 444.38 83.8513 444.72 84.1912C445.489 84.9162 446.394 85.2787 447.254 85.4146C447.842 85.5052 448.385 85.5052 448.882 85.4599C449.199 85.4146 449.493 85.3693 449.72 85.3466Z" fill="#B05935"/>
<path d="M447.57 80.6115C447.91 80.4529 448.113 80.113 448.091 79.7278C447.593 73.452 453.973 68.8754 454.041 68.8301C454.448 68.5582 454.538 67.9918 454.267 67.584C453.995 67.1762 453.43 67.0856 453.023 67.3574C452.728 67.5613 445.715 72.5231 446.303 79.8411C446.349 80.3396 446.778 80.7021 447.253 80.6568C447.367 80.6794 447.48 80.6341 447.57 80.6115Z" fill="#B05935"/>
<path d="M454.086 75.1965C454.176 75.1512 454.29 75.0833 454.357 74.9926C454.697 74.6301 454.674 74.0637 454.312 73.7465C454.222 73.6559 451.869 71.5262 448.43 72.6137C447.955 72.7723 447.706 73.2708 447.864 73.7239C448.023 74.1997 448.52 74.4489 448.973 74.2903C451.416 73.4973 453.068 75.0153 453.09 75.0153C453.385 75.3098 453.769 75.3551 454.086 75.1965Z" fill="#B05935"/>
<path d="M448.362 142.441C451.869 140.402 454.244 138.476 454.471 138.295L453.452 137.048C453.317 137.162 439.765 148.195 428.973 145.227C424.2 143.913 420.625 140.039 418.317 133.673L416.802 134.216C419.29 141.104 423.249 145.318 428.566 146.768C435.466 148.671 443.159 145.454 448.362 142.441Z" fill="#E5A501"/>
<path d="M453.113 163.806L449.833 181.591C449.833 181.591 422.978 178.011 405.105 177.264L409.539 160.86C409.539 160.86 435.444 160.974 453.113 163.806Z" fill="#E5A501"/>
<path d="M453.475 346.824C453.113 347.096 452.593 347.096 452.231 346.801C451.801 346.439 451.733 345.827 452.095 345.397C478.135 313.768 488.316 271.854 492.275 242.242C496.574 210.138 494.673 185.239 494.651 184.989C494.606 184.446 495.013 183.947 495.578 183.902C496.121 183.857 496.619 184.264 496.664 184.831C496.687 185.08 498.61 210.206 494.289 242.514C491.755 261.5 487.592 279.24 481.913 295.213C474.81 315.218 465.307 332.528 453.679 346.665C453.588 346.733 453.543 346.779 453.475 346.824Z" fill="#E5A501"/>
<path d="M441.077 295.915L441.055 295.938C440.602 296.255 439.991 296.164 439.652 295.711C427.344 278.764 412.073 269.838 401.44 265.352C389.924 260.503 381.237 259.642 381.146 259.62C380.603 259.574 380.196 259.076 380.241 258.532C380.287 257.988 380.784 257.581 381.327 257.626C381.689 257.649 390.399 258.532 402.209 263.494C413.091 268.093 428.702 277.201 441.258 294.51C441.598 294.964 441.507 295.575 441.077 295.915Z" fill="#E5A501"/>
<path d="M437.276 263.313C436.982 263.539 436.575 263.584 436.213 263.426C436.009 263.313 414.698 252.936 396.463 253.774C395.92 253.797 395.445 253.366 395.422 252.823C395.399 252.279 395.829 251.803 396.372 251.78C415.127 250.942 436.213 261.206 437.095 261.636C437.593 261.885 437.797 262.474 437.548 262.973C437.503 263.109 437.389 263.222 437.276 263.313Z" fill="#E5A501"/>
<path d="M373.59 259.438L391.169 268.478C392.843 266.326 394.336 263.834 395.648 261.002C403.815 243.511 405.512 213.99 406.802 185.352C408.295 152.092 423.023 120.396 423.023 120.396C418.974 119.15 415.241 120.781 411.666 121.914C409.042 122.752 406.802 124.497 405.354 126.853C399.54 136.188 385.762 153.814 379.563 168.609C372.549 185.352 382.979 197.45 384.676 209.934C385.92 219.087 379.382 241.426 375.807 252.709C374.495 256.81 373.59 259.438 373.59 259.438Z" fill="#A5410F"/>
<path d="M414.675 126.898C415.354 122.209 419.562 119.037 423.996 119.331C424.494 123.024 425.082 130.297 425.399 134.013C419.946 140.492 413.204 148.014 413.204 148.014C411.983 141.988 413.793 132.88 414.675 126.898Z" fill="#731F07"/>
<path d="M373.59 259.438L391.169 268.478C392.843 266.326 394.336 263.834 395.648 261.002C391.576 259.506 382.458 256.04 375.784 252.709C374.495 256.81 373.59 259.438 373.59 259.438Z" fill="#731F07"/>
<path d="M238.185 310.642L224.634 332.143L199.815 323.284L212.801 302.644L238.185 310.642Z" fill="#E8A36F"/>
<path d="M205.539 306.883L237.778 316.353C237.778 316.353 249.61 306.747 266.646 294.83C285.266 281.825 299.79 277.294 305.831 260.347C305.831 260.347 338.523 344.583 392.074 364.294C425.195 376.483 462.231 343.518 462.231 343.518C450.557 305.977 356.011 209.007 322.844 191.381C321.849 190.86 321.057 190.248 320.265 189.863C319.383 189.41 318.455 189.138 317.46 188.979C316.781 188.888 316.08 188.843 315.356 188.866C313.636 188.934 311.804 189.319 309.835 190.044C275.356 202.278 205.539 306.883 205.539 306.883Z" fill="#2D4446"/>
<path d="M343.387 324.349C327.233 306.858 314.202 286.694 304.903 264.785C304.383 263.539 306.193 262.474 306.713 263.72C315.921 285.471 328.84 305.499 344.857 322.854C345.785 323.85 344.314 325.346 343.387 324.349Z" fill="#131E07"/>
<path d="M306.532 263.856C297.845 275.139 287.03 284.519 274.565 291.406C273.366 292.063 272.302 290.251 273.501 289.594C285.628 282.888 296.261 273.78 304.722 262.791C305.514 261.727 307.347 262.769 306.532 263.856Z" fill="#131E07"/>
<path d="M315.378 188.818C318.659 194.029 320.582 197.201 320.627 197.314C320.876 197.722 321.419 197.858 321.826 197.609C322.211 197.36 322.369 196.816 322.098 196.408C322.03 196.318 320.378 193.554 317.46 188.932C316.804 188.841 316.102 188.796 315.378 188.818Z" fill="#527676"/>
<path d="M245.425 310.279C245.832 310.325 246.217 310.053 246.33 309.645C246.466 309.192 246.194 308.716 245.719 308.58L211.353 299.178C210.901 299.042 210.426 299.314 210.29 299.789C210.154 300.242 210.426 300.718 210.901 300.854L245.267 310.257C245.312 310.257 245.357 310.279 245.425 310.279Z" fill="#527676"/>
<path d="M399.517 357.88C412.254 358.945 424.222 355.955 432.842 352.76C445.059 348.251 453.407 342.383 453.498 342.338C453.882 342.066 453.973 341.522 453.701 341.137C453.43 340.752 452.887 340.661 452.502 340.933C452.412 341.001 444.222 346.733 432.209 351.174C421.168 355.252 404.494 359.036 387.933 353.915C374.834 349.86 356.509 329.084 334.993 293.785C318.659 267.028 306.148 241.155 306.012 240.905C305.854 240.566 305.492 240.384 305.13 240.43C304.768 240.475 304.474 240.747 304.383 241.109C304.338 241.291 300.13 259.574 279.135 275.932C256.465 293.604 241.036 307.56 240.9 307.696C240.538 308.014 240.516 308.557 240.832 308.92C241.149 309.282 241.692 309.305 242.054 308.988C242.212 308.852 257.574 294.918 280.198 277.292C297.619 263.72 303.682 249.152 305.446 243.692C308.727 250.308 319.767 272.194 333.5 294.714C355.559 330.874 373.703 351.355 387.413 355.592C391.485 356.815 395.535 357.541 399.517 357.88Z" fill="#527676"/>
<path d="M421.801 278.674C422.774 279.535 423.792 280.395 424.833 281.211C425.059 281.392 425.286 281.551 425.512 281.732C426.077 282.14 426.643 282.57 427.209 282.978C451.733 300.356 493.406 305.816 493.406 305.816C496.89 302.055 500.284 297.864 501.89 292.63C512.546 257.648 507.818 192.489 508.564 171.328C509.537 144.48 508.089 130.342 493.859 123.024C479.628 115.706 460.172 116.205 460.172 116.205C453.973 125.063 443.86 134.738 443.86 134.738C444.041 136.12 444.199 137.57 444.312 139.042C447.615 178.963 429.335 250.829 423.498 272.42C422.458 276.408 421.801 278.674 421.801 278.674Z" fill="#A5410F"/>
<path d="M455.511 243.669C455.511 243.669 468.814 264.717 492.32 267.119L494.877 261.228C494.877 261.228 477.275 260.979 459.335 239.614L455.511 243.669Z" fill="#731F07"/>
<path d="M421.802 278.674C422.774 279.534 423.792 280.395 424.833 281.211C425.059 281.392 425.286 281.551 425.512 281.732C426.077 282.14 426.643 282.57 427.209 282.978C451.733 300.356 493.406 305.816 493.406 305.816C496.89 302.055 499.673 297.592 501.89 292.63C469.334 289.685 432.752 276 423.521 272.398C422.458 276.408 421.802 278.674 421.802 278.674Z" fill="#731F07"/>
<path d="M420.67 278.674C421.711 279.535 422.82 280.395 423.951 281.211C424.2 281.392 424.426 281.551 424.675 281.732C446.326 226.315 450.602 139.745 450.602 139.745L444.358 139.02C448.588 186.417 420.67 278.674 420.67 278.674Z" fill="#731F07"/>
<path d="M458.724 111.537C458.724 111.537 464.855 108.456 472.57 116.522C472.57 116.522 466.031 135.984 444.72 145.137L443.905 134.715C443.905 134.715 455.194 121.076 458.724 111.537Z" fill="#731F07"/>
<path d="M285.786 132.789L288.818 128.462L338.093 131.113L366.825 200.645L363.138 202.911L312.46 194.392L285.786 132.789Z" fill="white"/>
<path d="M288.818 128.462L258.049 124.52L255.153 128.802L285.786 132.789L288.818 128.462Z" fill="white"/>
<path d="M334.541 134.126L364.246 204.089C364.246 204.089 331.871 201.71 313.003 198.017L285.764 132.789L334.541 134.126Z" fill="#A5410F"/>
<path d="M325.401 149.442L327.98 155.989L304.768 156.125L301.216 149.374L325.401 149.442Z" fill="#731F07"/>
<path d="M285.786 132.789L252.416 128.462L283.388 193.667L313.025 198.017L285.786 132.789Z" fill="#731F07"/>
<path d="M261.94 148.513C261.94 148.513 256.217 153.701 258.999 157.485C261.782 161.268 272.868 161.472 276.759 161.268C280.65 161.064 273.275 155.808 269.271 154.992C266.918 154.517 263.977 152.749 263.977 152.749L261.94 148.513Z" fill="#E8A36F"/>
<path d="M267.393 161.313C267.393 161.313 261.511 167 264.814 171.486C268.117 175.995 281.261 176.199 285.899 175.972C290.515 175.746 281.827 169.153 277.031 168.541C272.234 167.929 270.967 165.618 270.967 165.618L267.393 161.313Z" fill="#E8A36F"/>
<path d="M269.859 168.133C269.859 168.133 264.655 173.14 267.574 177.128C270.492 181.093 282.098 181.296 286.193 181.093C290.266 180.889 282.596 175.066 278.343 174.522C274.09 173.978 272.981 171.939 272.981 171.939L269.859 168.133Z" fill="#E8A36F"/>
<path d="M262.732 153.565C262.732 153.565 256.85 159.252 260.153 163.738C263.456 168.246 276.601 168.45 281.239 168.224C285.854 167.997 277.166 161.404 272.347 160.792C267.551 160.181 266.284 157.87 266.284 157.87L262.732 153.565Z" fill="#E8A36F"/>
<path d="M465.783 225.182C457.412 229.464 448.453 232.047 439.29 232.228C436.1 232.296 432.91 232.092 429.765 231.662C396.621 227.153 367.21 197.45 360.966 190.495C354.359 183.154 356.328 168.654 360.785 164.146C368.861 156.012 398.951 179.121 425.286 185.397C443.928 189.838 458.43 165.55 463.792 145.952C473.429 110.79 497.071 126.513 497.071 126.513C524.922 148.399 504.605 205.358 465.783 225.182Z" fill="#A5410F"/>
<path d="M335.016 181.863C335.016 181.863 319.111 182.384 319.157 186.19C319.224 190.2 334.088 189 334.088 189C334.088 189 327.188 191.673 327.55 193.508C328.455 198.085 348.093 195.842 352.957 194.981C357.844 194.12 366.576 195.049 372.662 192.851C376.802 191.356 387.911 177.354 384.562 169.651C383.499 167.227 376.689 164.395 372.775 162.129C368.771 159.841 362.595 157.553 358.545 156.828C355.943 156.374 352.029 153.406 347.074 153.044L351.712 163.239C352.346 163.624 349.88 165.981 349.88 165.981C349.88 165.981 320.423 161.857 318.252 165.346C315.333 169.991 328.229 171.373 333.975 171.622C333.975 171.622 317.528 173.548 316.215 175.95C313.659 180.753 335.016 181.863 335.016 181.863Z" fill="#E8A36F"/>
<path d="M465.783 225.182C457.842 230.053 449.358 233.316 439.29 232.228C436.1 231.888 432.91 232.092 429.765 231.662C432.435 226.677 437.842 219.948 447.932 218.34C457.027 216.912 462.615 221.104 465.783 225.182Z" fill="#731F07"/>
<path d="M446.281 180.186C443.792 182.089 441.122 183.766 438.272 185.035C423.34 191.718 399.291 174.545 398.273 173.797C397.82 173.48 397.73 172.846 398.046 172.392C398.363 171.939 398.997 171.849 399.449 172.166C399.698 172.347 423.589 189.407 437.457 183.2C457.547 174.205 468.543 144.389 468.656 144.095C468.837 143.574 469.425 143.302 469.945 143.483C470.466 143.664 470.737 144.253 470.556 144.774C470.149 145.862 461.936 168.11 446.281 180.186Z" fill="#731F07"/>
<path d="M474.764 220.673C465.805 227.583 457.344 231.843 449.539 233.338C435.964 235.944 421.01 231.594 410.874 227.493C399.924 223.052 392.051 217.932 391.983 217.886C391.531 217.592 391.395 216.958 391.689 216.504C391.983 216.051 392.617 215.915 393.069 216.21C393.386 216.414 424.019 236.193 449.154 231.367C474.312 226.519 500.058 192.171 500.307 191.809C500.623 191.356 501.257 191.265 501.709 191.605C502.162 191.945 502.252 192.557 501.913 193.01C501.845 193.1 495.262 201.936 485.601 211.248C481.913 214.805 478.294 217.932 474.764 220.673Z" fill="#731F07"/>
<path d="M150.382 360.123C163.684 361.777 184.612 353.78 194.906 358.107C205.199 362.434 216.489 360.78 218.977 352.919C220.425 348.41 223.344 338.441 226.715 331.078C226.918 330.602 227.145 330.149 227.371 329.696C227.665 329.084 227.982 328.472 228.299 327.906C228.728 327.113 229.317 326.388 229.905 325.731C230.289 325.3 230.674 324.893 231.036 324.53C232.552 322.899 233.547 321.698 231.285 320.769C222.982 317.348 210.018 310.936 206.874 312.046C205.72 312.454 204.362 313.791 202.869 315.626C202.552 316.011 202.213 316.442 201.896 316.895C201.15 317.869 200.403 318.957 199.611 320.089C199.34 320.497 199.046 320.928 198.752 321.358C195.2 326.592 191.467 332.437 188.593 334.408C183.277 338.079 174.657 341.432 169.318 341.817C162.689 342.27 146.377 345.804 143.481 346.394C138.142 347.458 137.079 358.447 150.382 360.123Z" fill="white"/>
<path d="M201.896 316.895C211.24 319.84 220.561 322.786 229.905 325.731C230.29 325.3 230.674 324.893 231.036 324.53C221.647 321.562 212.258 318.594 202.869 315.626C202.552 316.034 202.236 316.464 201.896 316.895Z" fill="#C2AC96"/>
<path d="M198.752 321.336C207.937 325.006 217.258 328.246 226.738 331.055C226.941 330.579 227.167 330.126 227.394 329.673C218.005 326.886 208.729 323.692 199.611 320.067C199.34 320.497 199.046 320.928 198.752 321.336Z" fill="#C2AC96"/>
<path d="M537.749 312.907C537.749 312.907 537.953 315.626 538.79 319.863C538.903 320.497 539.062 321.154 539.22 321.857C540.894 329.288 544.401 340.095 551.573 349.407C551.957 349.905 552.364 350.404 552.772 350.902C555.373 354.051 558.428 356.974 561.98 359.489C562.342 359.738 562.704 359.987 563.066 360.237C568.767 364.02 575.758 366.762 584.287 367.736C584.83 367.804 585.373 367.849 585.916 367.894C587.59 368.053 589.332 368.121 591.142 368.121C598.404 368.121 604.762 366.92 610.35 364.904C610.757 364.768 611.142 364.609 611.526 364.451C619.264 361.415 625.44 356.748 630.349 351.423C630.734 351.015 631.096 350.608 631.458 350.2C636.096 344.921 639.535 339.076 642.069 333.615C642.227 333.253 642.408 332.89 642.566 332.55C647.34 321.879 648.652 312.953 648.652 312.953H537.749V312.907Z" fill="#2D4446"/>
<path d="M626.096 312.909C630.123 320.862 635.123 328.61 642.069 333.572C642.227 333.209 642.408 332.847 642.566 332.507C636.028 327.772 631.254 320.431 627.431 312.909H626.096Z" fill="#131E07"/>
<path d="M609.694 312.907C616.413 318.186 621.843 325.029 625.485 332.777C627.748 337.603 630.462 344.898 630.372 351.355C630.757 350.948 631.119 350.54 631.481 350.132C631.277 344.626 629.354 338.781 627.544 334.431C624.06 326.071 618.54 318.662 611.617 312.885H609.694V312.907Z" fill="#131E07"/>
<path d="M561.98 359.444C562.342 359.693 562.704 359.942 563.066 360.191C566.391 343.29 561.391 325.55 549.627 312.885H547.975C559.944 325.232 565.102 342.701 561.98 359.444Z" fill="#131E07"/>
<path d="M577.568 358.401C579.717 361.573 581.957 364.655 584.287 367.691C584.83 367.759 585.373 367.804 585.916 367.849C582.59 363.612 579.468 359.217 576.55 354.686C574.875 352.08 571.889 348.274 572.975 344.921C574.355 340.707 580.169 342.474 583.133 343.516C594.264 347.39 602.748 356.023 610.35 364.836C610.757 364.7 611.142 364.541 611.526 364.383C608.087 360.395 604.535 356.521 600.621 353.009C596.21 349.044 591.323 345.578 585.848 343.267C582.183 341.726 575.486 339.053 572.5 343.244C569.197 347.912 575.124 354.776 577.568 358.401Z" fill="#131E07"/>
<path d="M538.79 319.84C538.903 320.475 539.062 321.132 539.22 321.834C546.799 328.971 551.233 339.053 551.573 349.384C551.957 349.883 552.364 350.381 552.772 350.88C552.84 339.143 547.772 327.543 538.79 319.84Z" fill="#131E07"/>
<path d="M561.799 312.907C564.061 315.037 566.391 317.099 568.767 319.115C574.536 323.986 580.577 328.495 586.889 332.641C589.943 334.635 593.065 336.855 596.436 338.305C599.038 339.438 602.16 339.982 604.603 338.147C609.762 334.295 606.979 326.524 604.694 321.857C603.065 318.549 600.916 315.513 598.336 312.907H596.64C599.943 316.057 602.59 319.84 604.4 324.077C605.667 327.068 606.956 330.693 606.029 333.933C604.716 338.577 600.169 338.736 596.436 336.991C590.735 334.318 585.373 330.308 580.282 326.615C574.445 322.378 568.857 317.801 563.563 312.907H561.799Z" fill="#131E07"/>
<path d="M593.201 316.079C562.576 316.079 537.749 314.659 537.749 312.907C537.749 311.156 562.576 309.735 593.201 309.735C623.826 309.735 648.652 311.156 648.652 312.907C648.652 314.659 623.826 316.079 593.201 316.079Z" fill="#131E07"/>
<path d="M564.943 196.68C568.269 200.668 570.667 215.44 577.025 217.796C581.391 219.427 583.721 213.106 575.237 205.108C569.785 199.965 567.342 193.803 566.301 190.087C567.794 183.562 569.74 176.878 572.274 170.806C577.16 175.338 585.011 181.75 587.251 178.691C589.694 175.338 582.386 164.803 578.314 159.41C580.215 156.646 582.319 154.245 584.649 152.342C588.472 149.215 592.907 147.425 598.065 147.561C601.775 147.652 605.191 149.011 608.246 151.277C603.879 159.931 597.454 174.545 601.956 177.898C606.142 181.025 612.205 168.926 616.006 159.886C621.345 168.133 624.942 179.461 626.481 190.382C625.44 192.33 623.63 194.618 620.508 196.861C612.25 202.82 602.431 214.828 607.341 217.501C612.25 220.175 617.363 213.106 621.028 206.807C622.906 203.568 625.01 200.962 627.295 199.24C627.363 201.143 627.386 203.024 627.318 204.814C626.028 239.138 592.545 239.138 592.545 239.138C592.545 239.138 559.016 231.39 564.943 196.68ZM607.069 197.36C610.395 197.337 615.666 191.129 618.132 187.685C620.598 184.219 618.63 181.885 616.255 182.543C616.232 182.543 616.187 182.565 616.164 182.565C612.816 183.562 602.771 197.405 607.069 197.36ZM577.862 189.136C577.839 189.136 577.794 189.113 577.771 189.113C575.396 188.456 573.45 190.042 574.559 193.078C576.029 197.065 577.975 198.629 580.939 197.133C582.794 196.182 581.21 190.132 577.862 189.136Z" fill="#7F784B"/>
<path d="M596.142 188.071C593.223 203.001 594.151 218.43 595.26 233.497C596.459 249.855 598.088 266.213 597.454 282.638C597.092 291.814 596.006 300.967 593.789 309.894C593.608 310.642 592.432 310.325 592.613 309.577C600.576 277.314 593.223 244.462 592.997 211.86C592.952 203.794 593.404 195.706 594.965 187.776C595.124 186.983 596.278 187.323 596.142 188.071Z" fill="#131E07"/>
<path d="M611.187 239.274C611.526 244.462 604.762 257.807 608.495 263.471C611.074 267.368 616.662 263.63 614.513 252.166C613.133 244.78 614.807 238.368 616.164 234.743C621.209 230.37 626.73 226.111 632.34 222.69C633.63 229.237 636.186 239.048 639.784 237.892C643.72 236.623 644.037 223.822 643.924 217.048C647.091 215.938 650.191 215.236 653.222 215.077C658.154 214.805 662.792 215.983 666.864 219.133C669.806 221.398 671.751 224.502 672.905 228.15C664.285 232.545 650.485 240.566 652.159 245.935C653.697 250.92 665.733 244.734 674.104 239.682C673.561 249.492 669.783 260.752 664.625 270.495C662.634 271.469 659.828 272.216 655.982 272.194C645.802 272.126 630.802 276.023 633.177 281.098C635.575 286.15 643.856 283.477 650.53 280.554C653.946 279.059 657.181 278.198 660.055 278.152C658.991 279.738 657.905 281.256 656.774 282.661C635.508 309.622 608.472 289.843 608.472 289.843C608.472 289.843 585.961 263.811 611.187 239.274ZM644.806 264.717C647.498 266.643 655.417 264.763 659.444 263.426C663.471 262.089 663.267 259.03 660.96 258.17C660.937 258.17 660.892 258.147 660.869 258.124C657.566 256.969 641.322 262.202 644.806 264.717ZM626.073 240.815C626.051 240.792 626.028 240.769 626.006 240.724C624.49 238.798 621.978 238.912 621.074 242.038C619.92 246.116 620.553 248.541 623.834 249.084C625.892 249.424 628.177 243.601 626.073 240.815Z" fill="#7F784B"/>
<path d="M641.503 250.716C633.63 257.966 625.825 265.51 619.467 274.165C614.648 280.735 610.915 287.94 607.544 295.349C605.124 300.673 602.816 306.042 600.44 311.389C600.124 312.092 599.083 311.48 599.4 310.778C603.268 302.055 606.866 293.151 611.39 284.723C615.418 277.246 620.417 270.449 626.141 264.173C630.734 259.144 635.643 254.454 640.643 249.832C641.209 249.334 642.069 250.172 641.503 250.716Z" fill="#131E07"/>
<path d="M582.068 296.028C582.068 296.028 555.169 315.989 533.721 289.186C532.59 287.781 531.481 286.286 530.418 284.7C533.291 284.723 536.526 285.561 539.965 287.034C546.639 289.911 554.965 292.539 557.318 287.464C559.671 282.389 544.648 278.583 534.468 278.742C530.622 278.787 527.816 278.062 525.825 277.11C520.576 267.413 516.73 256.176 516.12 246.366C524.536 251.35 536.594 257.467 538.11 252.46C539.739 247.068 525.87 239.161 517.228 234.811C518.337 231.14 520.282 228.037 523.201 225.748C527.251 222.576 531.888 221.353 536.82 221.602C539.829 221.738 542.952 222.418 546.119 223.505C546.051 230.28 546.458 243.103 550.395 244.326C554.015 245.459 556.503 235.626 557.748 229.079C563.404 232.455 568.947 236.669 574.014 241.019C575.394 244.644 577.114 251.033 575.779 258.419C573.72 269.883 579.354 273.599 581.887 269.679C585.575 263.97 578.743 250.693 579.037 245.505C604.398 269.838 582.068 296.028 582.068 296.028ZM529.49 264.672C529.445 264.695 529.422 264.695 529.4 264.717C527.092 265.601 526.911 268.659 530.938 269.974C534.965 271.265 542.884 273.1 545.576 271.152C549.06 268.614 532.748 263.494 529.49 264.672ZM566.435 255.383C569.693 254.816 570.327 252.392 569.15 248.314C568.245 245.21 565.734 245.097 564.218 247.045C564.196 247.068 564.173 247.091 564.15 247.136C562.069 249.923 564.377 255.723 566.435 255.383Z" fill="#7F784B"/>
<path d="M549.65 256.266C557.342 263.245 565.147 270.268 571.798 278.288C576.685 284.179 580.599 290.704 583.97 297.569C586.527 302.757 588.902 308.059 591.278 313.338C591.594 314.04 590.554 314.652 590.237 313.95C586.481 305.635 582.862 297.184 578.156 289.367C574.016 282.48 568.812 276.408 563.179 270.721C558.518 266.031 553.654 261.568 548.767 257.127C548.202 256.584 549.061 255.745 549.65 256.266Z" fill="#131E07"/>
</svg>
